<svg width="129" height="129" viewBox="0 0 129 129" fill="none" xmlns="http://www.w3.org/2000/svg">
<g clip-path="url(#clip0_5_8864)">
<path d="M64.459 22.9277C41.536 22.9277 22.8867 41.5771 22.8867 64.5C22.8867 87.423 41.536 106.072 64.459 106.072C87.3819 106.072 106.031 87.423 106.031 64.5C106.031 41.5771 87.3819 22.9277 64.459 22.9277ZM55.9556 41.8242C55.9556 40.7804 56.8014 39.9346 57.8452 39.9346C58.8891 39.9346 59.7349 40.7804 59.7349 41.8242V49.3828H65.4038V41.8242C65.4038 40.7804 66.2496 39.9346 67.2935 39.9346C68.3373 39.9346 69.1831 40.7804 69.1831 41.8242V60.7207C69.1831 61.7645 68.3373 62.6104 67.2935 62.6104C66.2496 62.6104 65.4038 61.7645 65.4038 60.7207V53.1621H57.8452C56.8014 53.1621 55.9556 52.3163 55.9556 51.2725V41.8242ZM50.5774 62.6104H38.9487C38.1717 62.6104 37.4738 62.1347 37.1898 61.4113C36.9059 60.6882 37.0936 59.8646 37.663 59.336L47.4509 50.2473C48.8397 48.958 48.849 47.2626 48.395 46.1062C47.2503 43.1918 43.3952 42.9222 41.7479 45.3929L40.5212 47.2331C39.9422 48.1014 38.7691 48.3362 37.9009 47.7572C37.0326 47.1782 36.7978 46.0051 37.3768 45.1369L38.6036 43.2966C40.0069 41.1916 42.3556 39.9346 44.8855 39.9346C48.0117 39.9346 50.7701 41.8149 51.913 44.725C53.0556 47.6348 52.3138 50.8897 50.0228 53.0167L43.7608 58.8311H50.5776C51.6215 58.8311 52.4673 59.6769 52.4673 60.7207C52.4673 61.7645 51.6212 62.6104 50.5774 62.6104ZM89.8795 68.8555L83.8327 87.752C83.5134 88.7495 82.4474 89.2924 81.4568 88.9757C80.4631 88.6575 79.915 87.594 80.233 86.5998L85.491 70.1689H78.6313C77.5875 70.1689 76.7417 69.3231 76.7417 68.2793C76.7417 67.2355 77.5875 66.3896 78.6313 66.3896H88.0796C89.3605 66.3896 90.2686 67.6383 89.8795 68.8555ZM91.3736 46.8678L57.36 84.6608C56.6605 85.4381 55.465 85.4978 54.6913 84.8011C53.9158 84.103 53.8528 82.9082 54.5509 82.1324L88.5646 44.3395C89.2628 43.5637 90.4578 43.501 91.2333 44.1991C92.009 44.8973 92.072 46.0921 91.3736 46.8678Z" fill="#B5A88A"/>
<path d="M127.983 11.0489L114.756 0.655848C114.187 0.208883 113.413 0.125739 112.762 0.442192C112.112 0.758393 111.699 1.41826 111.699 2.14162V5.92091H64.4575C32.0826 5.92091 5.87842 32.121 5.87842 64.5C5.87842 82.2088 13.8202 98.7704 27.3783 109.852H17.2995V106.072C17.2995 105.349 16.8865 104.689 16.2357 104.373C15.5854 104.056 14.8112 104.14 14.2423 104.587L1.01472 114.98C0.0517552 115.736 0.053015 117.196 1.01472 117.951L14.2423 128.344C14.5819 128.611 14.9941 128.748 15.4101 128.748C16.4519 128.748 17.2995 127.903 17.2995 126.859V123.079H64.4575C96.8325 123.079 123.037 96.8793 123.037 64.5003C123.037 46.7912 115.095 30.2296 101.537 19.1487H111.699V22.928C111.699 23.6514 112.112 24.3112 112.762 24.6274C113.413 24.9444 114.187 24.861 114.756 24.4138L127.983 14.0207C128.946 13.2641 128.945 11.8045 127.983 11.0489ZM115.478 19.0401V17.2588C115.478 16.215 114.632 15.3692 113.588 15.3692H95.7987C94.9655 15.3692 94.2306 15.9149 93.9897 16.7123C93.7488 17.51 94.0585 18.3712 94.7524 18.8325C110.097 29.0323 119.257 46.1044 119.257 64.5C119.257 94.7168 94.6743 119.3 64.4575 119.3H15.4098C14.366 119.3 13.5202 120.146 13.5202 121.189V122.971L5.24098 116.465L13.5202 109.96V111.741C13.5202 112.785 14.366 113.631 15.4098 113.631H33.1163C33.9495 113.631 34.6845 113.085 34.9253 112.288C35.1662 111.49 34.8566 110.629 34.1627 110.168C18.8182 99.9675 9.65772 82.8954 9.65772 64.5C9.65772 34.2833 34.2408 9.70021 64.4575 9.70021H113.588C114.632 9.70021 115.478 8.8544 115.478 7.81056V6.0295L123.757 12.5347L115.478 19.0401Z" fill="#B5A88A"/>
</g>
<defs>
<clipPath id="clip0_5_8864">
<rect width="129" height="129" fill="white"/>
</clipPath>
</defs>
</svg>
