<svg width="129" height="128" viewBox="0 0 129 128" fill="none" xmlns="http://www.w3.org/2000/svg">
<path d="M120 65.0297C120.535 66.9653 122.312 68.3919 124.416 68.3919C126.944 68.3919 129 66.3358 129 63.8083C129 61.2807 126.944 59.2246 124.416 59.2246C122.312 59.2246 120.535 60.6512 120 62.5868H94.4787V58.7279L107.579 48.4067H120C120.535 50.3422 122.312 51.7681 124.416 51.7681C126.944 51.7681 129 49.712 129 47.1852C129 44.6576 126.944 42.6015 124.416 42.6015C122.312 42.6015 120.535 44.0274 120 45.9638H107.156C106.882 45.9638 106.616 46.0558 106.4 46.2252L94.4787 55.6173V40.3932C94.4787 36.7736 91.5342 33.8291 87.9147 33.8291H76.3395V18.2981L83.936 9.41001C84.265 9.48574 84.607 9.52645 84.958 9.52645C87.4855 9.52645 89.5416 7.47035 89.5416 4.94359C89.5416 2.41602 87.4855 0.35992 84.958 0.35992C82.4304 0.35992 80.3743 2.41602 80.3743 4.94359C80.3743 6.22122 80.9011 7.37834 81.748 8.21055L74.1897 17.053C74.0008 17.2745 73.8966 17.5562 73.8966 17.8469V33.8291H65.721V8.9996C67.6574 8.4638 69.0833 6.687 69.0833 4.58286C69.0833 2.0561 67.0272 0 64.4996 0C61.9728 0 59.9167 2.0561 59.9167 4.58286C59.9167 6.687 61.3426 8.4638 63.2781 8.9996V33.8291H55.1026V17.8469C55.1026 17.5562 54.9992 17.2745 54.8103 17.053L47.252 8.21055C48.0989 7.37834 48.6249 6.22122 48.6249 4.94359C48.6249 2.41602 46.5688 0.35992 44.042 0.35992C41.5145 0.35992 39.4584 2.41602 39.4584 4.94359C39.4584 7.47035 41.5145 9.52645 44.042 9.52645C44.393 9.52645 44.735 9.48574 45.064 9.41001L52.6597 18.2981V33.8291H41.0845C37.4658 33.8291 34.5205 36.7736 34.5205 40.3932V55.6173L22.6 46.2252C22.3842 46.0558 22.1179 45.9638 21.8435 45.9638H9.00042C8.4638 44.0274 6.68782 42.6015 4.58367 42.6015C2.0561 42.6015 0 44.6576 0 47.1852C0 49.712 2.0561 51.7681 4.58367 51.7681C6.68782 51.7681 8.4638 50.3422 9.00042 48.4067H21.4201L34.5205 58.727V62.5868H9.00042C8.4638 60.6512 6.68782 59.2246 4.58367 59.2246C2.0561 59.2246 0 61.2807 0 63.8083C0 66.3358 2.0561 68.3919 4.58367 68.3919C6.68782 68.3919 8.4638 66.9653 9.00042 65.0297H34.5205V68.8895L21.4201 79.2099H9.00042C8.4638 77.2743 6.68782 75.8484 4.58367 75.8484C2.0561 75.8484 0 77.9045 0 80.4313C0 82.9589 2.0561 85.015 4.58367 85.015C6.68782 85.015 8.4638 83.5891 9.00042 81.6527H21.8435C22.1179 81.6527 22.3842 81.5607 22.6 81.3914L34.5205 71.9993V87.2234C34.5205 90.8429 37.4658 93.7874 41.0845 93.7874H52.6597V109.318L45.064 118.207C44.735 118.131 44.393 118.09 44.042 118.09C41.5145 118.09 39.4584 120.146 39.4584 122.673C39.4584 125.201 41.5145 127.257 44.042 127.257C46.5688 127.257 48.6249 125.201 48.6249 122.673C48.6249 121.395 48.0989 120.238 47.252 119.406L54.8103 110.564C54.9992 110.342 55.1026 110.06 55.1026 109.77V93.7874H63.2781V118.617C61.3426 119.153 59.9167 120.93 59.9167 123.034C59.9167 125.56 61.9728 127.617 64.4996 127.617C67.0272 127.617 69.0833 125.56 69.0833 123.034C69.0833 120.93 67.6574 119.153 65.721 118.617V93.7874H73.8966V109.77C73.8966 110.06 74.0008 110.342 74.1897 110.564L81.748 119.406C80.9011 120.238 80.3743 121.395 80.3743 122.673C80.3743 125.201 82.4304 127.257 84.958 127.257C87.4855 127.257 89.5416 125.201 89.5416 122.673C89.5416 120.146 87.4855 118.09 84.958 118.09C84.607 118.09 84.265 118.131 83.936 118.207L76.3395 109.318V93.7874H87.9147C91.5342 93.7874 94.4787 90.8429 94.4787 87.2234V71.9993L106.4 81.3914C106.616 81.5607 106.882 81.6527 107.156 81.6527H120C120.535 83.5891 122.312 85.015 124.416 85.015C126.944 85.015 129 82.9589 129 80.4313C129 77.9045 126.944 75.8484 124.416 75.8484C122.312 75.8484 120.535 77.2743 120 79.2099H107.579L94.4787 68.8886V65.0297H120ZM124.416 61.6675C125.597 61.6675 126.557 62.6283 126.557 63.8083C126.557 64.9882 125.597 65.949 124.416 65.949C123.236 65.949 122.276 64.9882 122.276 63.8083C122.276 62.6283 123.236 61.6675 124.416 61.6675ZM124.416 45.0444C125.597 45.0444 126.557 46.0045 126.557 47.1852C126.557 48.3651 125.597 49.3252 124.416 49.3252C123.236 49.3252 122.276 48.3651 122.276 47.1852C122.276 46.0045 123.236 45.0444 124.416 45.0444ZM84.958 2.80281C86.1379 2.80281 87.0988 3.76286 87.0988 4.94359C87.0988 6.12351 86.1379 7.08357 84.958 7.08357C83.7781 7.08357 82.8172 6.12351 82.8172 4.94359C82.8172 3.76286 83.7781 2.80281 84.958 2.80281ZM44.042 7.08357C42.8613 7.08357 41.9012 6.12351 41.9012 4.94359C41.9012 3.76286 42.8613 2.80281 44.042 2.80281C45.2219 2.80281 46.182 3.76286 46.182 4.94359C46.182 6.12351 45.2219 7.08357 44.042 7.08357ZM4.58367 49.3252C3.40295 49.3252 2.44289 48.3651 2.44289 47.1852C2.44289 46.0045 3.40295 45.0444 4.58367 45.0444C5.76359 45.0444 6.72365 46.0045 6.72365 47.1852C6.72365 48.3651 5.76359 49.3252 4.58367 49.3252ZM4.58367 65.949C3.40295 65.949 2.44289 64.9882 2.44289 63.8083C2.44289 62.6283 3.40295 61.6675 4.58367 61.6675C5.76359 61.6675 6.72365 62.6283 6.72365 63.8083C6.72365 64.9882 5.76359 65.949 4.58367 65.949ZM4.58367 82.5721C3.40295 82.5721 2.44289 81.612 2.44289 80.4313C2.44289 79.2514 3.40295 78.2913 4.58367 78.2913C5.76359 78.2913 6.72365 79.2514 6.72365 80.4313C6.72365 81.612 5.76359 82.5721 4.58367 82.5721ZM44.042 124.814C42.8613 124.814 41.9012 123.854 41.9012 122.673C41.9012 121.493 42.8613 120.533 44.042 120.533C45.2219 120.533 46.182 121.493 46.182 122.673C46.182 123.854 45.2219 124.814 44.042 124.814ZM84.958 120.533C86.1379 120.533 87.0988 121.493 87.0988 122.673C87.0988 123.854 86.1379 124.814 84.958 124.814C83.7781 124.814 82.8172 123.854 82.8172 122.673C82.8172 121.493 83.7781 120.533 84.958 120.533ZM45.4174 79.8328L56.3061 47.7837H61.2986L72.2354 79.8328H67.813L64.3897 69.7518H53.0254L49.6965 79.8328H45.4174ZM81.0795 79.8328H76.9429V47.7837H81.0795V79.8328ZM62.3596 4.58286C62.3596 3.40294 63.3197 2.44289 64.4996 2.44289C65.6803 2.44289 66.6404 3.40294 66.6404 4.58286C66.6404 5.76359 65.6803 6.72365 64.4996 6.72365C63.3197 6.72365 62.3596 5.76359 62.3596 4.58286ZM66.6404 123.034C66.6404 124.214 65.6803 125.174 64.4996 125.174C63.3197 125.174 62.3596 124.214 62.3596 123.034C62.3596 121.853 63.3197 120.893 64.4996 120.893C65.6803 120.893 66.6404 121.853 66.6404 123.034ZM124.416 78.2913C125.597 78.2913 126.557 79.2514 126.557 80.4313C126.557 81.612 125.597 82.5721 124.416 82.5721C123.236 82.5721 122.276 81.612 122.276 80.4313C122.276 79.2514 123.236 78.2913 124.416 78.2913Z" fill="#9A70D3"/>
<path d="M60.3972 57.2938C59.6839 55.2019 59.2083 53.2997 58.7328 51.4456H58.6375C58.1619 53.3469 57.6392 55.2964 57.0211 57.2466L53.8828 66.5182H63.5355L60.3972 57.2938Z" fill="#9A70D3"/>
</svg>
