<svg width="203" height="285" viewBox="0 0 203 285" fill="none" xmlns="http://www.w3.org/2000/svg">
<g clip-path="url(#clip0_8_8952)">
<path d="M150.501 154.709C152.915 145.003 152.397 134.798 149.012 125.386C145.628 115.974 139.528 107.776 131.485 101.831C123.441 95.8852 113.816 92.4581 103.825 91.9829C93.8336 91.5077 83.9261 94.0058 75.3547 99.1612C66.7834 104.317 59.9333 111.898 55.6705 120.946C51.4078 129.995 49.9238 140.104 51.4063 149.996C52.8888 159.888 57.2712 169.118 63.9993 176.519C70.7274 183.92 79.4991 189.16 89.2052 191.577C95.6507 193.181 102.349 193.5 108.918 192.516C115.487 191.531 121.797 189.262 127.489 185.839C133.181 182.415 138.143 177.904 142.091 172.563C146.04 167.221 148.897 161.155 150.501 154.709Z" stroke="#A8B4A2" stroke-opacity="0.18" stroke-width="2.26182" stroke-miterlimit="10"/>
<path d="M6.78516 184.654C21.7584 175.924 37.1388 168.007 52.6549 160.362C68.1709 152.717 83.8227 145.48 99.565 138.377C115.307 131.275 131.231 124.535 147.289 118.202C163.348 111.869 179.543 105.626 196.054 100.107C181.081 108.838 165.701 116.754 150.185 124.399C134.668 132.044 119.017 139.282 103.274 146.384C87.5321 153.486 71.6089 160.181 55.5048 166.56C39.4006 172.938 23.2964 179.362 6.78516 184.654Z" fill="#A8B4A2" fill-opacity="0.18"/>
<path d="M98.7969 72.5156C101 84.0503 102.6 95.6918 103.592 107.393C104.768 119.019 105.401 130.644 105.944 142.315C106.487 153.986 106.532 165.657 106.261 177.328C106.129 189.075 105.39 200.807 104.044 212.477C101.849 200.939 100.233 189.299 99.204 177.6C98.0731 165.974 97.4398 154.348 96.897 142.677C96.3542 131.006 96.3089 119.335 96.5803 107.664C96.7118 95.9176 97.4517 84.1857 98.7969 72.5156Z" fill="#A8B4A2" fill-opacity="0.18"/>
<path d="M171.128 149.325C159.404 149.936 147.657 149.936 135.934 149.325C124.217 148.918 112.592 147.968 100.966 146.883C89.3401 145.797 77.7597 144.349 66.2244 142.359C54.6891 140.369 43.1538 138.423 31.709 135.438C43.4317 134.805 55.1801 134.805 66.9029 135.438C78.6191 135.845 90.2449 136.795 101.871 137.881C113.496 138.966 125.077 140.414 136.612 142.404C148.147 144.395 159.683 146.34 171.128 149.325Z" fill="#A8B4A2" fill-opacity="0.18"/>
<path d="M47.7715 268.929C54.1498 246.764 61.7043 225.141 69.7564 203.699C73.6467 192.932 77.9894 182.392 82.1059 171.716L95.1792 140.051L108.75 108.612C113.545 98.2525 118.159 87.7577 123.181 77.4891C133.042 56.816 143.356 36.3692 154.846 16.4199C148.513 38.5858 140.913 60.2087 132.906 81.6508C129.016 92.4171 124.628 103.002 120.512 113.633L107.438 145.298L93.8674 176.692C89.0723 187.097 84.4582 197.546 79.3918 207.86C69.7564 228.217 59.3068 248.845 47.7715 268.929Z" fill="#A8B4A2" fill-opacity="0.18"/>
<path d="M202.837 214.286C184.291 204.605 166.648 193.839 149.097 182.621C140.049 177.147 131.726 171.266 123.086 165.566L97.4818 147.924C80.5634 136.027 64.0069 123.587 47.7218 110.83C31.4367 98.0737 15.3778 84.9099 0.0878906 70.6152C18.6348 80.2958 36.277 91.0621 53.874 102.281C71.4709 113.499 88.525 124.899 105.443 136.977L130.55 155.072C138.783 161.359 147.151 167.466 155.249 173.935C171.489 186.873 187.367 200.037 202.837 214.286Z" fill="#A8B4A2" fill-opacity="0.18"/>
<path d="M19.9941 0C35.0729 22.8896 49.6391 46.0657 63.6925 69.5283C77.8515 92.9156 91.6033 116.574 105.219 140.233C118.836 163.891 132.09 187.867 144.982 211.978C157.875 236.089 170.541 260.335 182.574 284.989C167.495 262.1 152.929 238.939 138.875 215.506C124.671 192.074 110.965 168.46 97.3484 144.756C83.7323 121.053 70.6589 97.0321 57.7213 73.0116C44.7837 48.991 32.1627 24.6538 19.9941 0Z" fill="#A8B4A2" fill-opacity="0.18"/>
</g>
<defs>
<clipPath id="clip0_8_8952">
<rect width="202.84" height="284.944" fill="white"/>
</clipPath>
</defs>
</svg>
