<svg width="129" height="118" viewBox="0 0 129 118" fill="none" xmlns="http://www.w3.org/2000/svg">
<path d="M0 109.322C0 111.429 0.852383 113.49 2.3425 114.98C3.83443 116.469 5.89185 117.322 7.99796 117.322H9.00415H13.2617H121.003C123.109 117.322 125.167 116.469 126.657 114.978C128.152 113.49 129 111.429 129 109.322V43.1516H0V109.322ZM67.2257 94.7242C67.2744 94.2257 67.3557 93.8231 67.4748 93.5158C67.5892 93.2095 67.7223 92.9933 67.8743 92.8648C68.0279 92.738 68.2081 92.6735 68.4118 92.6735C68.6674 92.6735 69.0561 92.82 69.5809 93.1132C70.1057 93.4078 70.7953 93.7338 71.6541 94.0909C72.5065 94.4489 73.5487 94.7749 74.7757 95.0688C76.001 95.3635 77.4725 95.5092 79.1837 95.5092C80.6676 95.5092 82.0153 95.3573 83.2297 95.0502C84.4443 94.7431 85.466 94.2509 86.3137 93.574C87.1568 92.8969 87.8085 92.0469 88.2694 91.0244C88.7303 90.0027 88.9574 88.7764 88.9574 87.3451C88.9574 86.118 88.766 85.0251 88.3836 84.0678C88.0014 83.108 87.401 82.2963 86.5833 81.6334C85.7635 80.9682 84.7045 80.4708 83.4005 80.1384C82.0969 79.8054 80.5125 79.6394 78.6461 79.6394C77.1669 79.6394 75.8192 79.7168 74.6046 79.8704C73.3902 80.0234 72.2447 80.0993 71.1743 80.0993C70.4315 80.0993 69.902 79.9144 69.5806 79.5428C69.2624 79.1739 69.1042 78.489 69.1042 77.4932V55.9488C69.1042 54.9263 69.2953 54.1922 69.6951 53.7448C70.0931 53.2989 70.7261 53.0749 71.5928 53.0749H95.0937C95.3225 53.0749 95.5418 53.1511 95.7454 53.3038C95.9491 53.4589 96.1198 53.7002 96.2624 54.0324C96.402 54.3654 96.5038 54.8066 96.568 55.3558C96.6291 55.9042 96.662 56.5632 96.662 57.3304C96.662 58.8622 96.5271 59.9756 96.2624 60.6641C95.9944 61.3536 95.6027 61.6998 95.0934 61.6998H77.4595V72.3188C78.3528 72.2153 79.2412 72.151 80.1251 72.127C81.0042 72.1011 81.9304 72.0868 82.9034 72.0868C85.5846 72.0868 87.968 72.4004 90.049 73.0262C92.1315 73.6531 93.8837 74.5723 95.3018 75.7866C96.7231 76.9997 97.7981 78.5069 98.5407 80.3106C99.282 82.1119 99.6533 84.2017 99.6533 86.5771C99.6533 89.2614 99.1878 91.6575 98.2556 93.7667C97.3186 95.8743 96.0053 97.6513 94.3065 99.0938C92.608 100.538 90.563 101.644 88.1715 102.41C85.7788 103.176 83.1305 103.56 80.2142 103.56C78.6816 103.56 77.2275 103.464 75.8469 103.271C74.4694 103.08 73.2268 102.838 72.13 102.544C71.0301 102.25 70.1306 101.956 69.4253 101.662C68.7249 101.368 68.2643 101.125 68.0478 100.933C67.8285 100.743 67.67 100.532 67.5667 100.301C67.4618 100.072 67.3849 99.7965 67.3192 99.4768C67.2534 99.1585 67.2094 98.7544 67.1812 98.2686C67.1594 97.7834 67.1483 97.2094 67.1483 96.5447C67.1491 95.8288 67.1726 95.2208 67.2257 94.7242ZM29.3834 62.409C29.4132 62.0125 29.4774 61.6734 29.5794 61.3919C29.6812 61.1115 29.8239 60.8818 30.0025 60.7024C30.1827 60.5245 30.4225 60.3326 30.728 60.1273L41.3823 53.2277C41.5141 53.1257 41.677 53.0428 41.8683 52.9778C42.0594 52.9152 42.3069 52.8626 42.614 52.8243C42.918 52.7873 43.3224 52.7609 43.8191 52.749C44.3206 52.7365 44.9646 52.7293 45.7589 52.7293C46.7289 52.7293 47.5139 52.749 48.1141 52.7873C48.7159 52.8243 49.169 52.8893 49.4745 52.9778C49.7847 53.0679 49.9885 53.1886 50.0887 53.3429C50.1923 53.4965 50.2407 53.6876 50.2407 53.918V94.8966H58.3314C58.5602 94.8966 58.7718 94.9665 58.9629 95.1066C59.1555 95.2475 59.3217 95.4717 59.4564 95.778C59.6037 96.0843 59.7039 96.4872 59.7668 96.9856C59.831 97.4838 59.8639 98.1037 59.8639 98.8463C59.8639 99.5599 59.8264 100.167 59.7495 100.667C59.6728 101.165 59.563 101.56 59.4235 101.854C59.2808 102.149 59.118 102.359 58.9393 102.487C58.764 102.614 58.56 102.679 58.3314 102.679H30.9569C30.7578 102.679 30.5652 102.614 30.3865 102.487C30.2063 102.359 30.0478 102.149 29.9054 101.854C29.7674 101.56 29.6579 101.165 29.5794 100.667C29.5025 100.168 29.4619 99.5601 29.4619 98.8463C29.4619 98.1034 29.4979 97.4838 29.559 96.9856C29.6247 96.4872 29.7265 96.0846 29.8692 95.778C30.0072 95.4717 30.1654 95.2475 30.3456 95.1066C30.5243 94.9663 30.728 94.8966 30.9569 94.8966H40.1977V62.6189L32.2246 67.0285C31.6369 67.3089 31.1607 67.4813 30.786 67.544C30.4147 67.6082 30.1216 67.5323 29.9054 67.3143C29.6892 67.0981 29.5434 66.7211 29.4619 66.1843C29.3837 65.6468 29.3505 64.8931 29.3505 63.9232C29.3505 63.309 29.3632 62.8038 29.3834 62.409Z" fill="#F0EAF8"/>
<path d="M129 35.5247H0V40.2617H129V35.5247Z" fill="#9A70D3"/>
<path d="M13.2617 12.7527H9.00415H7.99796C5.89185 12.7527 3.83443 13.6058 2.3425 15.096C0.852383 16.5856 0 18.6461 0 20.7506V30.0487H129V20.7506C129 18.6461 128.152 16.5856 126.657 15.096C125.167 13.6058 123.109 12.7527 121.003 12.7527H107.426V23.2267C107.426 25.1809 105.842 26.766 103.887 26.766H96.4307C94.4751 26.766 92.8907 25.1809 92.8907 23.2267V12.7527H36.1108V23.2267C36.1108 25.1809 34.5249 26.766 32.5692 26.766H25.1132C23.1576 26.766 21.5734 25.1809 21.5734 23.2267V12.7527H13.2617Z" fill="#9A70D3"/>
<path d="M129 30.0488H0V35.5248H129V30.0488Z" fill="white"/>
<path d="M32.5693 3.53931H25.1133V23.2267H32.5693V3.53931Z" fill="#E0D3F1"/>
<path d="M25.114 0C23.1583 0 21.5742 1.58437 21.5742 3.53926V12.7526V23.2267C21.5742 25.1808 23.1586 26.7659 25.114 26.7659H32.57C34.5257 26.7659 36.1116 25.1808 36.1116 23.2267V12.7526V3.53926C36.1116 1.58437 34.5257 0 32.57 0H25.114ZM32.57 23.2267H25.114V3.53926H32.57V23.2267Z" fill="white"/>
<path d="M103.894 3.53931H96.4375V23.2267H103.894V3.53931Z" fill="#E0D3F1"/>
<path d="M96.4228 0C94.4672 0 92.8828 1.58437 92.8828 3.53926V12.7526V23.2267C92.8828 25.1808 94.4672 26.7659 96.4228 26.7659H103.879C105.835 26.7659 107.419 25.1808 107.419 23.2267V12.7526V3.53926C107.419 1.58437 105.834 0 103.879 0H96.4228ZM103.879 23.2267H96.4228V3.53926H103.879V23.2267H103.879Z" fill="white"/>
<path d="M30.954 94.8969C30.7251 94.8969 30.5214 94.9668 30.3427 95.1068C30.1625 95.2477 30.0043 95.4719 29.8663 95.7782C29.7236 96.0846 29.6219 96.4874 29.5561 96.9859C29.495 97.484 29.459 98.1039 29.459 98.8465C29.459 99.5601 29.4996 100.168 29.5765 100.667C29.6547 101.166 29.7645 101.56 29.9025 101.854C30.0449 102.149 30.2034 102.359 30.3836 102.487C30.5623 102.614 30.7549 102.679 30.954 102.679H58.3285C58.5574 102.679 58.7611 102.614 58.9364 102.487C59.1151 102.359 59.2779 102.149 59.4206 101.854C59.5599 101.56 59.6697 101.166 59.7466 100.667C59.8235 100.168 59.861 99.5604 59.861 98.8465C59.861 98.1036 59.8281 97.484 59.7639 96.9859C59.7013 96.4874 59.6008 96.0848 59.4535 95.7782C59.3186 95.4719 59.1526 95.2477 58.96 95.1068C58.7686 94.9665 58.5571 94.8969 58.3285 94.8969H50.2378V53.918C50.2378 53.6875 50.1894 53.4964 50.0858 53.3429C49.9856 53.1886 49.7818 53.0679 49.4716 52.9778C49.1661 52.8893 48.713 52.8243 48.1112 52.7872C47.5111 52.7489 46.7262 52.7292 45.7561 52.7292C44.9614 52.7292 44.3175 52.7362 43.8162 52.7489C43.3193 52.7606 42.9151 52.7872 42.6111 52.8243C42.3041 52.8626 42.0565 52.9152 41.8654 52.9778C41.6741 53.0428 41.5112 53.1257 41.3794 53.2277L30.7251 60.1273C30.4194 60.3326 30.1796 60.5245 29.9996 60.7024C29.821 60.8818 29.6783 61.1114 29.5765 61.3919C29.4745 61.6731 29.4103 62.0123 29.3805 62.4089C29.3601 62.8038 29.3477 63.3092 29.3477 63.9234C29.3477 64.8933 29.3805 65.6473 29.459 66.1846C29.5406 66.7213 29.6863 67.0983 29.9025 67.3145C30.1187 67.5326 30.4118 67.6084 30.7831 67.5442C31.1578 67.4816 31.634 67.3091 32.2217 67.0287L40.1948 62.6192V94.8969H30.954Z" fill="#9A70D3"/>
<path d="M86.3056 93.5743C85.4578 94.2511 84.4361 94.7433 83.2215 95.0504C82.0071 95.3575 80.6594 95.5095 79.1755 95.5095C77.4643 95.5095 75.9928 95.3637 74.7675 95.069C73.5405 94.7752 72.4983 94.4494 71.6459 94.0911C70.7871 93.7338 70.0976 93.408 69.5727 93.1134C69.0476 92.8203 68.659 92.6737 68.4037 92.6737C68.2001 92.6737 68.0199 92.7382 67.8661 92.8651C67.7141 92.9935 67.5811 93.2097 67.4666 93.516C67.3473 93.8231 67.2659 94.226 67.2175 94.7244C67.1642 95.221 67.1406 95.829 67.1406 96.5452C67.1406 97.2096 67.1518 97.7839 67.1735 98.2691C67.2017 98.7549 67.2458 99.159 67.3115 99.4773C67.3773 99.7968 67.4542 100.072 67.5591 100.302C67.6624 100.532 67.8208 100.743 68.0401 100.933C68.2563 101.126 68.7172 101.369 69.4176 101.663C70.1227 101.956 71.0222 102.251 72.1224 102.545C73.2192 102.839 74.462 103.081 75.8393 103.272C77.2198 103.464 78.674 103.56 80.2066 103.56C83.1228 103.56 85.7711 103.177 88.1639 102.411C90.555 101.645 92.6 100.538 94.2988 99.0943C95.9974 97.6518 97.3107 95.8748 98.248 93.7672C99.1804 91.658 99.6457 89.2619 99.6457 86.5776C99.6457 84.2022 99.2741 82.1124 98.5331 80.3111C97.7902 78.5074 96.7154 77.0002 95.2942 75.7871C93.876 74.5727 92.1241 73.6536 90.0413 73.0267C87.9603 72.4009 85.5769 72.0873 82.8958 72.0873C81.9227 72.0873 80.9965 72.1016 80.1175 72.1275C79.2338 72.1518 78.3451 72.2157 77.4518 72.3193V61.7003H95.0857C95.595 61.7003 95.9868 61.3541 96.2548 60.6646C96.5197 59.9758 96.6543 58.8627 96.6543 57.3309C96.6543 56.5637 96.6214 55.9047 96.5603 55.3563C96.4961 54.8071 96.3943 54.3659 96.2548 54.0329C96.1121 53.7007 95.9415 53.4594 95.7377 53.3043C95.5342 53.1516 95.3146 53.0754 95.086 53.0754H71.5851C70.7185 53.0754 70.0854 53.2997 69.6874 53.7453C69.2876 54.1927 69.0966 54.9268 69.0966 55.9493V77.4937C69.0966 78.4895 69.2548 79.1744 69.573 79.5433C69.8943 79.9149 70.4238 80.0998 71.1667 80.0998C72.2371 80.0998 73.3826 80.0239 74.5969 79.8709C75.8115 79.7173 77.159 79.6399 78.6385 79.6399C80.5048 79.6399 82.0892 79.8059 83.3929 80.1389C84.6966 80.4713 85.7558 80.9687 86.5756 81.6339C87.3936 82.2968 87.9937 83.1085 88.3759 84.0683C88.7584 85.0256 88.9497 86.1188 88.9497 87.3456C88.9497 88.7772 88.7224 90.0034 88.2617 91.0249C87.8006 92.0471 87.1486 92.8972 86.3056 93.5743Z" fill="#9A70D3"/>
</svg>
