<svg width="129" height="118" viewBox="0 0 129 118" fill="none" xmlns="http://www.w3.org/2000/svg">
<path d="M0 109.322C0 111.429 0.852383 113.489 2.3425 114.979C3.83443 116.468 5.89185 117.322 7.99796 117.322H9.00415H13.2617H121.003C123.109 117.322 125.167 116.468 126.657 114.978C128.152 113.489 129 111.429 129 109.322V43.1514H0V109.322ZM67.2257 94.7239C67.2744 94.2255 67.3557 93.8229 67.4748 93.5155C67.5892 93.2092 67.7223 92.993 67.8743 92.8646C68.0279 92.7377 68.2081 92.6733 68.4118 92.6733C68.6674 92.6733 69.0561 92.8198 69.5809 93.1129C70.1057 93.4076 70.7953 93.7336 71.6541 94.0906C72.5065 94.4487 73.5487 94.7747 74.7757 95.0686C76.001 95.3632 77.4725 95.509 79.1837 95.509C80.6676 95.509 82.0153 95.357 83.2297 95.0499C84.4443 94.7428 85.466 94.2506 86.3137 93.5738C87.1568 92.8967 87.8085 92.0466 88.2694 91.0241C88.7303 90.0024 88.9574 88.7762 88.9574 87.3448C88.9574 86.1178 88.766 85.0248 88.3836 84.0676C88.0014 83.1077 87.401 82.296 86.5833 81.6332C85.7635 80.968 84.7045 80.4706 83.4005 80.1381C82.0969 79.8052 80.5125 79.6392 78.6461 79.6392C77.1669 79.6392 75.8192 79.7166 74.6046 79.8701C73.3902 80.0232 72.2447 80.099 71.1743 80.099C70.4315 80.099 69.902 79.9142 69.5806 79.5426C69.2624 79.1736 69.1042 78.4888 69.1042 77.493V55.9485C69.1042 54.926 69.2953 54.192 69.6951 53.7445C70.0931 53.2987 70.7261 53.0747 71.5928 53.0747H95.0937C95.3225 53.0747 95.5418 53.1508 95.7454 53.3036C95.9491 53.4587 96.1198 53.7 96.2624 54.0322C96.402 54.3652 96.5038 54.8064 96.568 55.3556C96.6291 55.904 96.662 56.5629 96.662 57.3301C96.662 58.8619 96.5271 59.9753 96.2624 60.6638C95.9944 61.3533 95.6027 61.6995 95.0934 61.6995H77.4595V72.3186C78.3528 72.215 79.2412 72.1508 80.1251 72.1267C81.0042 72.1008 81.9304 72.0866 82.9034 72.0866C85.5846 72.0866 87.968 72.4001 90.049 73.026C92.1315 73.6528 93.8837 74.572 95.3018 75.7864C96.7231 76.9994 97.7981 78.5066 98.5407 80.3103C99.282 82.1117 99.6533 84.2015 99.6533 86.5768C99.6533 89.2611 99.1878 91.6572 98.2556 93.7664C97.3186 95.8741 96.0053 97.6511 94.3065 99.0936C92.608 100.538 90.563 101.644 88.1715 102.41C85.7788 103.176 83.1305 103.56 80.2142 103.56C78.6816 103.56 77.2275 103.464 75.8469 103.271C74.4694 103.08 73.2268 102.838 72.13 102.544C71.0301 102.25 70.1306 101.955 69.4253 101.662C68.7249 101.368 68.2643 101.125 68.0478 100.932C67.8285 100.743 67.67 100.531 67.5667 100.301C67.4618 100.071 67.3849 99.7963 67.3192 99.4765C67.2534 99.1583 67.2094 98.7541 67.1812 98.2684C67.1594 97.7832 67.1483 97.2091 67.1483 96.5444C67.1491 95.8285 67.1726 95.2206 67.2257 94.7239ZM29.3834 62.4087C29.4132 62.0123 29.4774 61.6731 29.5794 61.3917C29.6812 61.1112 29.8239 60.8816 30.0025 60.7021C30.1827 60.5242 30.4225 60.3324 30.728 60.1271L41.3823 53.2275C41.5141 53.1254 41.677 53.0426 41.8683 52.9776C42.0594 52.9149 42.3069 52.8624 42.614 52.824C42.918 52.787 43.3224 52.7606 43.8191 52.7487C44.3206 52.7363 44.9646 52.729 45.7589 52.729C46.7289 52.729 47.5139 52.7487 48.1141 52.787C48.7159 52.8241 49.169 52.889 49.4745 52.9776C49.7847 53.0677 49.9885 53.1884 50.0887 53.3427C50.1923 53.4962 50.2407 53.6873 50.2407 53.9178V94.8964H58.3314C58.5602 94.8964 58.7718 94.9663 58.9629 95.1064C59.1555 95.2472 59.3217 95.4715 59.4564 95.7778C59.6037 96.0841 59.7039 96.487 59.7668 96.9854C59.831 97.4836 59.8639 98.1034 59.8639 98.846C59.8639 99.5596 59.8264 100.167 59.7495 100.666C59.6728 101.165 59.563 101.559 59.4235 101.854C59.2808 102.149 59.118 102.359 58.9393 102.486C58.764 102.614 58.56 102.679 58.3314 102.679H30.9569C30.7578 102.679 30.5652 102.614 30.3865 102.486C30.2063 102.359 30.0478 102.148 29.9054 101.854C29.7674 101.559 29.6579 101.165 29.5794 100.666C29.5025 100.167 29.4619 99.5599 29.4619 98.846C29.4619 98.1032 29.4979 97.4836 29.559 96.9854C29.6247 96.487 29.7265 96.0843 29.8692 95.7778C30.0072 95.4715 30.1654 95.2472 30.3456 95.1064C30.5243 94.966 30.728 94.8964 30.9569 94.8964H40.1977V62.6187L32.2246 67.0282C31.6369 67.3086 31.1607 67.4811 30.786 67.5437C30.4147 67.6079 30.1216 67.5321 29.9054 67.3141C29.6892 67.0979 29.5434 66.7209 29.4619 66.1841C29.3837 65.6466 29.3505 64.8928 29.3505 63.9229C29.3505 63.3087 29.3632 62.8036 29.3834 62.4087Z" fill="#B5A88A" fill-opacity="0.1"/>
<path d="M129 35.5244H0V40.2615H129V35.5244Z" fill="#B5A88A"/>
<path d="M13.2617 12.7529H9.00415H7.99796C5.89185 12.7529 3.83443 13.6061 2.3425 15.0962C0.852383 16.5858 0 18.6463 0 20.7509V30.0489H129V20.7509C129 18.6463 128.152 16.5858 126.657 15.0962C125.167 13.6061 123.109 12.7529 121.003 12.7529H107.426V23.227C107.426 25.1811 105.842 26.7662 103.887 26.7662H96.4307C94.4751 26.7662 92.8907 25.1811 92.8907 23.227V12.7529H36.1108V23.227C36.1108 25.1811 34.5249 26.7662 32.5692 26.7662H25.1132C23.1576 26.7662 21.5734 25.1811 21.5734 23.227V12.7529H13.2617Z" fill="#B5A88A"/>
<path d="M129 30.0488H0V35.5248H129V30.0488Z" fill="white"/>
<path d="M32.5693 3.53906H25.1133V23.2265H32.5693V3.53906Z" fill="#EEEBE3"/>
<path d="M25.114 0C23.1583 0 21.5742 1.58437 21.5742 3.53926V12.7526V23.2267C21.5742 25.1808 23.1586 26.7659 25.114 26.7659H32.57C34.5257 26.7659 36.1116 25.1808 36.1116 23.2267V12.7526V3.53926C36.1116 1.58437 34.5257 0 32.57 0H25.114ZM32.57 23.2267H25.114V3.53926H32.57V23.2267Z" fill="white"/>
<path d="M103.894 3.53906H96.4375V23.2265H103.894V3.53906Z" fill="#EEEBE3"/>
<path d="M96.4228 0C94.4672 0 92.8828 1.58437 92.8828 3.53926V12.7526V23.2267C92.8828 25.1808 94.4672 26.7659 96.4228 26.7659H103.879C105.835 26.7659 107.419 25.1808 107.419 23.2267V12.7526V3.53926C107.419 1.58437 105.834 0 103.879 0H96.4228ZM103.879 23.2267H96.4228V3.53926H103.879V23.2267H103.879Z" fill="white"/>
<path d="M30.954 94.8971C30.7251 94.8971 30.5214 94.967 30.3427 95.1071C30.1625 95.2479 30.0043 95.4722 29.8663 95.7785C29.7236 96.0848 29.6219 96.4877 29.5561 96.9861C29.495 97.4843 29.459 98.1042 29.459 98.8468C29.459 99.5604 29.4996 100.168 29.5765 100.667C29.6547 101.166 29.7645 101.56 29.9025 101.855C30.0449 102.149 30.2034 102.359 30.3836 102.487C30.5623 102.615 30.7549 102.68 30.954 102.68H58.3285C58.5574 102.68 58.7611 102.615 58.9364 102.487C59.1151 102.359 59.2779 102.149 59.4206 101.855C59.5599 101.56 59.6697 101.166 59.7466 100.667C59.8235 100.168 59.861 99.5606 59.861 98.8468C59.861 98.1039 59.8281 97.4843 59.7639 96.9861C59.7013 96.4877 59.6008 96.0851 59.4535 95.7785C59.3186 95.4722 59.1526 95.2479 58.96 95.1071C58.7686 94.9668 58.5571 94.8971 58.3285 94.8971H50.2378V53.9182C50.2378 53.6878 50.1894 53.4967 50.0858 53.3431C49.9856 53.1888 49.7818 53.0682 49.4716 52.9781C49.1661 52.8895 48.713 52.8245 48.1112 52.7875C47.5111 52.7492 46.7262 52.7295 45.7561 52.7295C44.9614 52.7295 44.3175 52.7365 43.8162 52.7492C43.3193 52.7608 42.9151 52.7875 42.6111 52.8245C42.3041 52.8628 42.0565 52.9154 41.8654 52.9781C41.6741 53.0431 41.5112 53.1259 41.3794 53.2279L30.7251 60.1275C30.4194 60.3329 30.1796 60.5247 29.9996 60.7026C29.821 60.882 29.6783 61.1117 29.5765 61.3921C29.4745 61.6733 29.4103 62.0125 29.3805 62.4092C29.3601 62.804 29.3477 63.3095 29.3477 63.9236C29.3477 64.8936 29.3805 65.6476 29.459 66.1848C29.5406 66.7216 29.6863 67.0986 29.9025 67.3148C30.1187 67.5328 30.4118 67.6087 30.7831 67.5445C31.1578 67.4818 31.634 67.3093 32.2217 67.0289L40.1948 62.6194V94.8971H30.954Z" fill="#B5A88A"/>
<path d="M86.3056 93.574C85.4578 94.2509 84.4361 94.7431 83.2215 95.0502C82.0071 95.3573 80.6594 95.5092 79.1755 95.5092C77.4643 95.5092 75.9928 95.3635 74.7675 95.0688C73.5405 94.7749 72.4983 94.4492 71.6459 94.0908C70.7871 93.7335 70.0976 93.4078 69.5727 93.1131C69.0476 92.82 68.659 92.6735 68.4037 92.6735C68.2001 92.6735 68.0199 92.738 67.8661 92.8648C67.7141 92.9933 67.5811 93.2095 67.4666 93.5158C67.3473 93.8229 67.2659 94.2257 67.2175 94.7242C67.1642 95.2208 67.1406 95.8287 67.1406 96.5449C67.1406 97.2093 67.1518 97.7836 67.1735 98.2689C67.2017 98.7546 67.2458 99.1588 67.3115 99.477C67.3773 99.7965 67.4542 100.072 67.5591 100.301C67.6624 100.532 67.8208 100.743 68.0401 100.933C68.2563 101.126 68.7172 101.369 69.4176 101.662C70.1227 101.956 71.0222 102.251 72.1224 102.545C73.2192 102.838 74.462 103.08 75.8393 103.272C77.2198 103.464 78.674 103.56 80.2066 103.56C83.1228 103.56 85.7711 103.176 88.1639 102.411C90.555 101.644 92.6 100.538 94.2988 99.0941C95.9974 97.6516 97.3107 95.8746 98.248 93.7669C99.1804 91.6577 99.6457 89.2616 99.6457 86.5773C99.6457 84.202 99.2741 82.1122 98.5331 80.3108C97.7902 78.5071 96.7154 76.9999 95.2942 75.7869C93.876 74.5725 92.1241 73.6533 90.0413 73.0264C87.9603 72.4006 85.5769 72.0871 82.8958 72.0871C81.9227 72.0871 80.9965 72.1013 80.1175 72.1272C79.2338 72.1516 78.3451 72.2155 77.4518 72.3191V61.7H95.0857C95.595 61.7 95.9868 61.3538 96.2548 60.6643C96.5197 59.9756 96.6543 58.8624 96.6543 57.3306C96.6543 56.5634 96.6214 55.9045 96.5603 55.3561C96.4961 54.8069 96.3943 54.3657 96.2548 54.0327C96.1121 53.7005 95.9415 53.4592 95.7377 53.3041C95.5342 53.1513 95.3146 53.0752 95.086 53.0752H71.5851C70.7185 53.0752 70.0854 53.2994 69.6874 53.745C69.2876 54.1925 69.0966 54.9265 69.0966 55.949V77.4934C69.0966 78.4893 69.2548 79.1741 69.573 79.5431C69.8943 79.9147 70.4238 80.0995 71.1667 80.0995C72.2371 80.0995 73.3826 80.0237 74.5969 79.8706C75.8115 79.7171 77.159 79.6397 78.6385 79.6397C80.5048 79.6397 82.0892 79.8056 83.3929 80.1386C84.6966 80.4711 85.7558 80.9685 86.5756 81.6337C87.3936 82.2965 87.9937 83.1083 88.3759 84.0681C88.7584 85.0253 88.9497 86.1185 88.9497 87.3453C88.9497 88.7769 88.7224 90.0032 88.2617 91.0247C87.8006 92.0469 87.1486 92.8969 86.3056 93.574Z" fill="#B5A88A"/>
</svg>
