<svg width="21" height="21" viewBox="0 0 21 21" fill="none" xmlns="http://www.w3.org/2000/svg">
<path d="M20.9 10.5023C20.9 15.7817 16.9877 20.1464 11.9053 20.8546C11.4301 20.9206 10.9439 20.955 10.4504 20.955C9.88069 20.955 9.32127 20.9096 8.77649 20.8217C3.80027 20.0204 0 15.7048 0 10.5023C0 4.72915 4.67894 0.0488281 10.4496 0.0488281C16.2203 0.0488281 20.9 4.72915 20.9 10.5023Z" fill="#1877F2"/>
<path d="M11.9057 8.44176V10.7189H14.7219L14.2759 13.7864H11.9057V20.8538C11.4305 20.9197 10.9443 20.9541 10.4508 20.9541C9.8811 20.9541 9.32168 20.9087 8.7769 20.8208V13.7864H6.17969L6.17969 10.7189H8.7769V7.93271C8.7769 6.20414 10.1777 4.80225 11.9064 4.80225V4.80371C11.9116 4.80371 11.916 4.80225 11.9211 4.80225H14.7226V7.45516H12.892C12.348 7.45516 11.9064 7.89682 11.9064 8.44103L11.9057 8.44176Z" fill="white"/>
</svg>
