<svg width="367" height="368" viewBox="0 0 367 368" fill="none" xmlns="http://www.w3.org/2000/svg">
<path d="M174.203 107.457H259.929V127.252H174.203C142.756 127.252 117.197 152.799 117.197 184.184C117.197 215.631 142.744 241.19 174.203 241.19H259.929V260.985H174.203C131.885 260.985 97.4141 226.514 97.4141 184.196C97.4141 141.854 131.885 107.457 174.203 107.457Z" fill="#9A70D3"/>
<path d="M259.945 69.6602V89.4554H174.219C121.973 89.4554 79.432 131.922 79.432 184.168C79.432 236.414 121.973 278.955 174.219 278.955H259.945V298.75H174.219C111.028 298.75 59.6367 247.359 59.6367 184.168C59.6367 121.051 111.028 69.6602 174.219 69.6602H259.945Z" fill="#9A70D3"/>
<path d="M146.898 193.16H321.09L304.108 212.955H174.242C161.5 212.955 150.642 204.675 146.898 193.16Z" fill="#9A70D3"/>
<path d="M321.09 175.178H146.898C150.642 163.663 161.512 155.383 174.242 155.383H304.021L321.09 175.178Z" fill="#9A70D3"/>
<path d="M183.5 367.691C82.3172 367.691 0 285.374 0 184.191C0 83.0086 82.3172 0.691406 183.5 0.691406C284.683 0.691406 367 83.0086 367 184.191C367 285.374 284.683 367.691 183.5 367.691ZM183.5 18.6894C92.2458 18.6894 17.998 92.9372 17.998 184.191C17.998 275.446 92.2458 349.693 183.5 349.693C274.754 349.693 349.002 275.446 349.002 184.191C349.002 92.9372 274.754 18.6894 183.5 18.6894Z" fill="#9A70D3"/>
</svg>
