<svg width="32" height="32" viewBox="0 0 32 32" fill="none" xmlns="http://www.w3.org/2000/svg">
<path d="M28.5633 16.5108C28.5633 15.6569 28.4927 14.7983 28.342 13.9583H16.2539V18.7957H23.1762C22.8889 20.3558 21.966 21.736 20.6145 22.613V25.7518H24.7443C27.1694 23.5639 28.5633 20.3328 28.5633 16.5108Z" fill="#4285F4"/>
<path d="M16.2531 28.7845C19.7096 28.7845 22.6244 27.6721 24.7482 25.7519L20.6184 22.6131C19.4694 23.3794 17.986 23.8133 16.2578 23.8133C12.9144 23.8133 10.0796 21.6023 9.06245 18.6296H4.80078V21.8654C6.97635 26.1073 11.4075 28.7845 16.2531 28.7845Z" fill="#323394"/>
<path d="M9.05772 18.6297C8.52089 17.0695 8.52089 15.3801 9.05772 13.82V10.5842H4.80076C2.98308 14.1338 2.98308 18.3158 4.80076 21.8654L9.05772 18.6297Z" fill="#FBBC04"/>
<path d="M16.2531 8.63156C18.0802 8.60386 19.8461 9.27778 21.1694 10.5148L24.8283 6.9283C22.5114 4.79577 19.4364 3.62334 16.2531 3.66027C11.4075 3.66027 6.97635 6.33747 4.80078 10.5841L9.05774 13.8198C10.0702 10.8426 12.9097 8.63156 16.2531 8.63156Z" fill="#EA4335"/>
</svg>
