<svg width="21" height="22" viewBox="0 0 21 22" fill="none" xmlns="http://www.w3.org/2000/svg">
<path d="M10.4738 0.955078H10.4262C4.66797 0.955078 0 5.62442 0 11.3844L0 11.432C0 17.1919 4.66797 21.8612 10.4262 21.8612H10.4738C16.232 21.8612 20.9 17.1919 20.9 11.432V11.3844C20.9 5.62442 16.232 0.955078 10.4738 0.955078Z" fill="url(#paint0_linear_409_3889)"/>
<path d="M13.6837 5.2085H7.21667C5.43004 5.2085 3.97656 6.6624 3.97656 8.44956L3.97656 14.3677C3.97656 16.1549 5.43004 17.6088 7.21667 17.6088H13.6837C15.4704 17.6088 16.9238 16.1549 16.9238 14.3677V8.44956C16.9238 6.6624 15.4704 5.2085 13.6837 5.2085ZM5.11957 8.44956C5.11957 7.29303 6.06048 6.35184 7.21667 6.35184H13.6837C14.8399 6.35184 15.7808 7.29303 15.7808 8.44956V14.3677C15.7808 15.5242 14.8399 16.4654 13.6837 16.4654H7.21667C6.06048 16.4654 5.11957 15.5242 5.11957 14.3677V8.44956Z" fill="white"/>
<path d="M10.4504 14.4225C12.1118 14.4225 13.4642 13.0705 13.4642 11.4078C13.4642 9.74516 12.1125 8.39307 10.4504 8.39307C8.78822 8.39307 7.43652 9.74516 7.43652 11.4078C7.43652 13.0705 8.78822 14.4225 10.4504 14.4225ZM10.4504 9.53714C11.4821 9.53714 12.3212 10.3765 12.3212 11.4085C12.3212 12.4406 11.4821 13.2799 10.4504 13.2799C9.41867 13.2799 8.57953 12.4406 8.57953 11.4085C8.57953 10.3765 9.41867 9.53714 10.4504 9.53714Z" fill="white"/>
<path d="M13.7437 8.87993C14.1911 8.87993 14.5557 8.51591 14.5557 8.06765C14.5557 7.6194 14.1918 7.25537 13.7437 7.25537C13.2956 7.25537 12.9316 7.6194 12.9316 8.06765C12.9316 8.51591 13.2956 8.87993 13.7437 8.87993Z" fill="white"/>
<defs>
<linearGradient id="paint0_linear_409_3889" x1="3.05339" y1="18.8069" x2="17.851" y2="4.01446" gradientUnits="userSpaceOnUse">
<stop stop-color="#FAAD4F"/>
<stop offset="0.35" stop-color="#DD2A7B"/>
<stop offset="0.62" stop-color="#9537B0"/>
<stop offset="1" stop-color="#515BD4"/>
</linearGradient>
</defs>
</svg>
