<svg width="153" height="197" viewBox="0 0 153 197" fill="none" xmlns="http://www.w3.org/2000/svg">
<g opacity="0.7" clip-path="url(#clip0_5_8802)">
<path d="M96.7093 94.9814C96.7093 94.9814 64.7441 108.799 41.4966 89.7943C19.1646 71.6323 17.2757 37.1389 0 27.6365C0 27.6365 49.6478 24.6143 73.8251 48.7917C96.317 71.269 96.7093 94.9814 96.7093 94.9814Z" fill="#A8B4A2"/>
<path d="M126.743 116.034C126.743 116.034 136.085 141.475 109.307 162.848C82.529 184.221 84.1127 176.957 63.9746 193.855C63.9746 193.855 64.4105 157.196 83.7785 131.581C106.605 101.388 126.743 116.034 126.743 116.034Z" fill="#A8B4A2"/>
<path d="M142.462 88.9359C139.876 88.0787 111.136 89.6188 106.211 63.0296C101.852 39.7821 109.654 31.0644 110.57 0C110.57 0 139.062 21.591 145.107 44.8966C151.151 68.2021 142.462 88.9359 142.462 88.9359Z" fill="#A8B4A2"/>
<path d="M207.28 121.742C207.28 121.742 202.921 153.707 177.93 171.826C146.256 194.724 132.104 188.244 111.385 196.86C131.247 145.062 172.685 112.24 207.28 121.742Z" fill="#A8B4A2"/>
<path d="M306.982 149.016C305.384 148.014 304.454 145.965 303.336 144.483C300.594 140.902 297.487 137.615 294.066 134.676C287.205 128.905 279.553 124.149 271.341 120.553C252.772 112.111 232.286 107.81 212.118 105.398C191.138 102.885 169.983 102.696 148.929 102.623C128.428 102.536 107.403 102.042 87.9046 95.0388C71.1155 88.9723 56.3108 78.4191 45.1003 64.5266C43.7636 62.8605 42.4753 61.146 41.2354 59.3831C40.6833 58.5985 41.9328 57.9301 42.4849 58.642C42.2379 58.3224 42.8191 59.0343 42.9063 59.1361C43.3712 59.7027 43.8507 60.2403 44.3593 60.7634C46.261 62.7907 48.2638 64.7207 50.36 66.5462C58.0154 73.0828 66.4541 78.6419 75.4818 83.0954C87.6285 89.2124 100.574 94.0362 114.16 95.4747C129.547 97.0875 145.108 96.5353 160.553 96.9276C187.578 97.5815 214.821 99.049 241.468 103.916C257.887 106.822 274.625 111.181 289.198 119.579C294.432 122.542 299.27 126.155 303.597 130.331C305.559 132.249 307.389 134.298 309.075 136.463C310.794 138.515 312.303 140.735 313.579 143.088C314.026 143.988 314.168 145.008 313.983 145.995C313.798 146.983 313.296 147.883 312.554 148.559C311.812 149.236 310.869 149.652 309.869 149.745C308.869 149.838 307.866 149.603 307.012 149.075L306.982 149.016Z" fill="#90B18F"/>
<path d="M85.0991 161.597C90.911 148.884 100.399 137.856 110.599 128.441C121.227 118.383 133.447 110.155 146.763 104.089C153.005 101.201 159.673 99.3416 166.509 98.5821L166.131 101.488C155.041 98.494 144.893 92.7349 136.636 84.7499C128.324 76.8119 122.019 67.0108 118.241 56.1556C116.136 50.0684 114.941 43.7035 114.696 37.2671C114.696 35.3927 117.602 35.3927 117.602 37.2671C118.082 48.229 121.342 58.8889 127.075 68.2443C132.754 77.7112 140.616 85.6822 150.003 91.4917C155.248 94.7314 160.942 97.1794 166.901 98.7565C167.286 98.8085 167.635 99.0115 167.871 99.3208C168.107 99.63 168.21 100.02 168.158 100.406C168.106 100.791 167.903 101.14 167.594 101.376C167.284 101.611 166.894 101.714 166.509 101.662C160.728 102.313 155.077 103.822 149.741 106.138C143.526 108.75 137.567 111.936 131.943 115.654C119.692 123.566 108.742 133.33 99.4835 144.598C94.7459 150.276 90.752 156.535 87.5982 163.224C87.5021 163.39 87.3743 163.534 87.2221 163.65C87.07 163.766 86.8965 163.851 86.7116 163.899C86.5266 163.948 86.3339 163.959 86.1445 163.933C85.9551 163.907 85.7726 163.844 85.6077 163.748C85.2803 163.551 85.0434 163.234 84.9482 162.864C84.853 162.494 84.9072 162.102 85.0991 161.772V161.597Z" fill="#90B18F"/>
<path d="M136.55 175.751C144.331 172.172 151.582 167.537 158.097 161.977C163.909 157.24 169.431 152.097 174.807 146.852C186.517 135.402 198.984 124.36 213.441 116.47C222.429 111.429 232.288 108.131 242.5 106.75C242.885 106.75 243.255 106.903 243.528 107.176C243.8 107.448 243.953 107.818 243.953 108.203C243.953 108.588 243.8 108.958 243.528 109.23C243.255 109.503 242.885 109.656 242.5 109.656C224.454 111.908 208.355 121.643 194.552 132.903C188.74 137.625 183.219 142.696 177.858 147.927C172.714 152.969 167.484 157.938 161.948 162.573C154.683 168.661 146.837 174.429 138.076 178.221C137.744 178.412 137.35 178.464 136.98 178.366C136.61 178.268 136.294 178.028 136.1 177.698C135.903 177.367 135.846 176.971 135.942 176.598C136.037 176.224 136.277 175.904 136.608 175.708L136.55 175.751Z" fill="#90B18F"/>
</g>
<defs>
<clipPath id="clip0_5_8802">
<rect width="196.862" height="314" fill="white" transform="matrix(0 1 1 0 0 0)"/>
</clipPath>
</defs>
</svg>
