<svg width="163" height="197" viewBox="0 0 163 197" fill="none" xmlns="http://www.w3.org/2000/svg">
<g opacity="0.7" clip-path="url(#clip0_5_8791)">
<path d="M66.2907 94.9814C66.2907 94.9814 98.2559 108.799 121.503 89.7943C143.835 71.6323 145.724 37.1389 163 27.6365C163 27.6365 113.352 24.6143 89.1749 48.7917C66.683 71.269 66.2907 94.9814 66.2907 94.9814Z" fill="#A8B4A2"/>
<path d="M36.2573 116.034C36.2573 116.034 26.9148 141.475 53.6929 162.848C80.471 184.221 78.8873 176.957 99.0254 193.855C99.0254 193.855 98.5895 157.196 79.2215 131.581C56.3954 101.388 36.2573 116.034 36.2573 116.034Z" fill="#A8B4A2"/>
<path d="M20.5377 88.9359C23.124 88.0787 51.8636 89.6188 56.7892 63.0296C61.1481 39.7821 53.3457 31.0644 52.4303 0C52.4303 0 23.9377 21.591 17.8934 44.8966C11.849 68.2021 20.5377 88.9359 20.5377 88.9359Z" fill="#A8B4A2"/>
<path d="M-44.2804 121.743C-44.2804 121.743 -39.9215 153.708 -14.9305 171.826C16.7441 194.725 30.896 188.245 51.6152 196.861C31.7532 145.063 -9.68531 112.24 -44.2804 121.743Z" fill="#A8B4A2"/>
<path d="M-77.9025 86.3503C-77.9025 86.3503 -51.1388 89.7939 -33.8631 71.6609C-16.5874 53.5279 -14.8729 26.7643 0.673828 12.0894C0.673828 12.0894 -77.0307 20.72 -77.9025 86.3503Z" fill="#A8B4A2"/>
<path d="M-143.982 149.016C-142.384 148.014 -141.454 145.965 -140.336 144.483C-137.594 140.902 -134.487 137.615 -131.066 134.676C-124.205 128.905 -116.553 124.149 -108.341 120.553C-89.7724 112.111 -69.2856 107.81 -49.1184 105.398C-28.1376 102.885 -6.98251 102.696 14.0709 102.623C34.5723 102.536 55.5966 102.042 75.0954 95.0388C91.8845 88.9723 106.689 78.4191 117.9 64.5266C119.236 62.8605 120.525 61.146 121.765 59.3831C122.317 58.5985 121.067 57.9301 120.515 58.642C120.762 58.3224 120.181 59.0343 120.094 59.1361C119.629 59.7027 119.149 60.2403 118.641 60.7634C116.739 62.7907 114.736 64.7207 112.64 66.5462C104.985 73.0828 96.5459 78.6419 87.5182 83.0954C75.3715 89.2124 62.4256 94.0362 48.8404 95.4747C33.4535 97.0875 17.8922 96.5353 2.44723 96.9276C-24.5779 97.5815 -51.821 99.049 -78.4683 103.916C-94.8868 106.822 -111.625 111.181 -126.198 119.579C-131.432 122.542 -136.27 126.155 -140.597 130.331C-142.559 132.249 -144.389 134.298 -146.075 136.463C-147.794 138.515 -149.303 140.735 -150.579 143.088C-151.026 143.988 -151.168 145.008 -150.983 145.995C-150.798 146.983 -150.296 147.883 -149.554 148.559C-148.812 149.236 -147.869 149.652 -146.869 149.745C-145.869 149.838 -144.866 149.603 -144.012 149.075L-143.982 149.016Z" fill="#90B18F"/>
<path d="M77.9009 161.597C72.089 148.884 62.6012 137.856 52.4014 128.441C41.7728 118.383 29.5529 110.155 16.2371 104.089C9.99491 101.201 3.32697 99.3416 -3.5087 98.5821L-3.13091 101.488C7.95862 98.494 18.107 92.7349 26.3642 84.7499C34.6764 76.8119 40.9814 67.0108 44.7588 56.1556C46.8644 50.0684 48.0591 43.7035 48.304 37.2671C48.304 35.3927 45.3981 35.3927 45.3981 37.2671C44.9181 48.229 41.6581 58.8889 35.9248 68.2443C30.2458 77.7112 22.3844 85.6822 12.997 91.4917C7.75242 94.7314 2.05841 97.1794 -3.90098 98.7565C-4.28633 98.8085 -4.63524 99.0115 -4.87093 99.3208C-5.10664 99.63 -5.20985 100.02 -5.15782 100.406C-5.1058 100.791 -4.90281 101.14 -4.59354 101.376C-4.28427 101.611 -3.89404 101.714 -3.5087 101.662C2.27155 102.313 7.92262 103.822 13.2585 106.138C19.4744 108.75 25.4331 111.936 31.0573 115.654C43.3081 123.566 54.2579 133.33 63.5165 144.598C68.2541 150.276 72.248 156.535 75.4018 163.224C75.4979 163.39 75.6257 163.534 75.7779 163.65C75.93 163.766 76.1035 163.851 76.2884 163.899C76.4734 163.948 76.6661 163.959 76.8555 163.933C77.0449 163.907 77.2274 163.844 77.3923 163.748C77.7197 163.551 77.9566 163.234 78.0518 162.864C78.147 162.494 78.0928 162.102 77.9009 161.772V161.597Z" fill="#90B18F"/>
<path d="M26.45 175.752C18.6687 172.172 11.418 167.537 4.90255 161.978C-0.909306 157.241 -6.43057 152.097 -11.8065 146.852C-23.5174 135.403 -35.9838 124.36 -50.4408 116.471C-59.4287 111.43 -69.288 108.132 -79.5001 106.75C-79.8855 106.75 -80.2551 106.904 -80.5275 107.176C-80.8 107.449 -80.9531 107.818 -80.9531 108.203C-80.9531 108.589 -80.8 108.958 -80.5275 109.231C-80.2551 109.503 -79.8855 109.656 -79.5001 109.656C-61.4543 111.909 -45.3555 121.643 -31.5523 132.904C-25.7405 137.626 -20.2192 142.697 -14.8578 147.927C-9.71428 152.969 -4.48359 157.938 1.0522 162.573C8.31702 168.661 16.163 174.43 24.9244 178.222C25.2563 178.412 25.6499 178.464 26.0199 178.366C26.3899 178.269 26.7063 178.029 26.9004 177.699C27.0969 177.367 27.1537 176.971 27.0583 176.598C26.9629 176.225 26.7233 175.905 26.3919 175.708L26.45 175.752Z" fill="#90B18F"/>
</g>
<defs>
<clipPath id="clip0_5_8791">
<rect width="196.862" height="314" fill="white" transform="matrix(0 1 -1 0 163 0)"/>
</clipPath>
</defs>
</svg>
