<svg width="98" height="56" viewBox="0 0 98 56" fill="none" xmlns="http://www.w3.org/2000/svg">
<path d="M9.71196 42.5817C9.90072 42.5817 10.0082 42.6767 10.0082 42.8793V44.1882C10.0082 44.3769 9.90072 44.4858 9.71196 44.4858H3.79027C2.40147 44.4858 2.03636 44.877 2.03636 46.2934V46.3609H9.63067C9.81943 46.3609 9.92827 46.456 9.92827 46.6571V47.8572C9.92827 48.0597 9.81943 48.1548 9.63067 48.1548H2.03636V48.316C2.03636 49.7323 2.40147 50.1236 3.79027 50.1236H9.71196C9.90072 50.1236 10.0082 50.2311 10.0082 50.4198V51.7287C10.0082 51.9313 9.90072 52.025 9.71196 52.025H3.77649C1.03747 52.025 0 51.0398 0 48.4634V46.1432C0 43.5668 1.03747 42.5817 3.77649 42.5817H9.71196Z" fill="#1E1E1E"/>
<path d="M17.5561 42.5815C18.2574 42.5815 18.6624 42.7841 19.1088 43.6066L23.5742 51.7148C23.6693 51.9036 23.6279 52.0248 23.413 52.0248H21.6991C21.5227 52.0248 21.4414 51.9835 21.3877 51.8623L20.4976 50.2172H14.0359L13.1596 51.8623C13.0921 51.9835 13.0246 52.0248 12.8482 52.0248H11.0805C10.8656 52.0248 10.8242 51.9036 10.9193 51.7148L15.3434 43.6066C15.7746 42.7841 16.1935 42.5815 16.7597 42.5815H17.5561ZM19.5401 48.4633L17.4486 44.5917C17.4073 44.5242 17.3535 44.4967 17.2874 44.4967H17.2061C17.1386 44.4967 17.0987 44.5242 17.0573 44.5917L14.9796 48.4633H19.5401Z" fill="#1E1E1E"/>
<path d="M34.1027 42.5815C34.2915 42.5815 34.3989 42.6766 34.3989 42.8791V44.188C34.3989 44.3768 34.2915 44.4856 34.1027 44.4856H27.3433C26.8583 44.4856 26.6283 44.7143 26.6283 45.2145V45.6733C26.6283 46.1583 26.8446 46.3608 27.3433 46.3608H32.3888C33.9002 46.3608 34.7503 47.2247 34.7503 48.7347V49.8273C34.7503 51.2175 33.9126 52.0262 32.3626 52.0262H24.8881C24.6856 52.0262 24.5919 51.9312 24.5919 51.73V50.4211C24.5919 50.2323 24.687 50.1249 24.8881 50.1249H31.9713C32.4425 50.1249 32.6864 49.8948 32.6864 49.396V48.8435C32.6864 48.3586 32.4838 48.156 31.9851 48.156H26.9259C25.4158 48.156 24.5781 47.2922 24.5781 45.7821V44.7832C24.5781 43.3944 25.402 42.5843 26.9534 42.5843H34.1027V42.5815Z" fill="#1E1E1E"/>
<path d="M45.9112 42.5815C46.0999 42.5815 46.2074 42.6766 46.2074 42.8791V44.188C46.2074 44.3768 46.0999 44.4856 45.9112 44.4856H39.9895C38.5993 44.4856 38.2356 44.8769 38.2356 46.2933V46.3608H45.8299C46.0186 46.3608 46.1275 46.4559 46.1275 46.657V47.8571C46.1275 48.0596 46.0186 48.1547 45.8299 48.1547H38.2356V48.3159C38.2356 49.7322 38.6007 50.1235 39.9895 50.1235H45.9112C46.0999 50.1235 46.2074 50.231 46.2074 50.4197V51.7286C46.2074 51.9311 46.0999 52.0248 45.9112 52.0248H39.9757C37.2367 52.0248 36.1992 51.0397 36.1992 48.4633V46.1431C36.1992 43.5667 37.2367 42.5815 39.9757 42.5815H45.9112Z" fill="#1E1E1E"/>
<path d="M62.0423 42.5816C62.2448 42.5816 62.3385 42.6766 62.3385 42.8792V44.2018C62.3385 44.4044 62.2434 44.4981 62.0423 44.4981H56.0393C54.6491 44.4981 54.2441 44.9169 54.2441 46.3457V48.2608C54.2441 49.6909 54.6491 50.1084 56.0393 50.1084H62.0423C62.2448 50.1084 62.3385 50.2035 62.3385 50.4046V51.7273C62.3385 51.9298 62.2434 52.0235 62.0423 52.0235H55.9718C53.2328 52.0235 52.1953 51.0522 52.1953 48.4619V46.1418C52.1953 43.5515 53.2328 42.5802 55.9718 42.5802H62.0423V42.5816Z" fill="#1E1E1E"/>
<path d="M73.9217 42.5815C74.1242 42.5815 74.2317 42.6766 74.2317 42.8791V51.7286C74.2317 51.9311 74.1242 52.0248 73.9217 52.0248H72.464C72.2753 52.0248 72.1678 51.9298 72.1678 51.7286V48.1808H65.8548V51.7286C65.8548 51.9311 65.7598 52.0248 65.5572 52.0248H64.1009C63.8984 52.0248 63.8047 51.9298 63.8047 51.7286V42.8791C63.8047 42.6766 63.8997 42.5815 64.1009 42.5815H65.5572C65.7611 42.5815 65.8548 42.6766 65.8548 42.8791V46.3456H72.1678V42.8791C72.1678 42.6766 72.2753 42.5815 72.464 42.5815H73.9217Z" fill="#1E1E1E"/>
<path d="M82.0053 42.5815C82.7066 42.5815 83.113 42.7841 83.5581 43.6066L88.0234 51.7148C88.1185 51.9036 88.0772 52.0248 87.8608 52.0248H86.1483C85.9719 52.0248 85.8906 51.9835 85.8369 51.8623L84.9468 50.2172H78.4851L77.6088 51.8623C77.5413 51.9835 77.4738 52.0248 77.2974 52.0248H75.5297C75.3148 52.0248 75.2735 51.9036 75.3685 51.7148L79.7926 43.6066C80.2238 42.7841 80.6427 42.5815 81.2103 42.5815H82.0053ZM83.9893 48.4633L81.8978 44.5917C81.8579 44.5242 81.8028 44.4967 81.7366 44.4967H81.6553C81.5878 44.4967 81.5479 44.5242 81.5065 44.5917L79.4302 48.4633H83.9893Z" fill="#1E1E1E"/>
<path d="M97.691 42.5815C97.8935 42.5815 98.001 42.6766 98.001 42.8791V44.2018C98.001 44.4043 97.8935 44.498 97.691 44.498H93.4406V51.7286C93.4406 51.9311 93.3593 52.0248 93.1567 52.0248H91.6866C91.4993 52.0248 91.3904 51.9298 91.3904 51.7286V44.498H87.1414C86.9526 44.498 86.8438 44.403 86.8438 44.2018V42.8791C86.8438 42.6766 86.9526 42.5815 87.1414 42.5815H97.691Z" fill="#1E1E1E"/>
<path d="M1.59547 55.5935H0V53.9691H0.378889V55.2877H1.59684V55.5935H1.59547Z" fill="#9A70D3"/>
<path d="M4.20548 55.5934H2.52734V53.969H4.18894V54.2459H2.90486V54.6083H3.65299V54.8852H2.90486V55.2875H4.2041V55.5934H4.20548Z" fill="#9A70D3"/>
<path d="M6.78256 54.2583H6.03305V55.5934H5.65553V54.2583H4.91016V53.969H6.78256V54.2583Z" fill="#9A70D3"/>
<path d="M10.8959 53.969L10.0555 54.8563V55.592H9.67523V54.8646L8.83203 53.9677H9.33492L9.89292 54.5918L10.4523 53.9677H10.8959V53.969Z" fill="#9A70D3"/>
<path d="M13.6205 55.209C13.6205 55.3606 13.5915 55.4625 13.5337 55.5149C13.4758 55.5672 13.3711 55.5934 13.2168 55.5934H12.0209C11.8679 55.5934 11.7632 55.5672 11.704 55.5149C11.6461 55.4625 11.6172 55.3606 11.6172 55.209V54.3534C11.6172 54.2032 11.6461 54.1013 11.704 54.0475C11.7619 53.9952 11.8666 53.969 12.0209 53.969H13.2168C13.3697 53.969 13.4744 53.9952 13.5337 54.0475C13.5915 54.0999 13.6205 54.2018 13.6205 54.3534V55.209ZM13.243 55.2875V54.2583H11.9961V55.2875H13.243Z" fill="#9A70D3"/>
<path d="M16.6268 55.209C16.6268 55.3606 16.5979 55.4625 16.54 55.5149C16.4821 55.5672 16.3774 55.5934 16.2231 55.5934H15.1967C15.0437 55.5934 14.939 55.5672 14.8798 55.5149C14.8219 55.4625 14.793 55.3606 14.793 55.209V53.969H15.1719V55.2875H16.2479V53.969H16.6254V55.209H16.6268Z" fill="#9A70D3"/>
<path d="M19.7595 55.5934H19.2181L18.5636 54.9789H18.204V55.5934H17.832V53.969H19.2236C19.4661 53.969 19.5887 54.0737 19.5887 54.2831V54.6648C19.5887 54.8218 19.5253 54.9197 19.3999 54.9569C19.3517 54.972 19.2208 54.9789 19.01 54.9789L19.7595 55.5934ZM19.225 54.5738V54.3796C19.225 54.3245 19.2084 54.2886 19.1781 54.2721C19.1547 54.2569 19.1134 54.2501 19.0555 54.2501H18.2054V54.7033H19.0555C19.1134 54.7033 19.1547 54.6965 19.1781 54.6813C19.2084 54.6634 19.225 54.6289 19.225 54.5738Z" fill="#9A70D3"/>
<path d="M24.0703 55.209C24.0703 55.3606 24.0414 55.4625 23.9835 55.5149C23.9256 55.5672 23.8209 55.5934 23.6666 55.5934H22.6967C22.5437 55.5934 22.439 55.5672 22.3798 55.5149C22.3219 55.4625 22.293 55.3606 22.293 55.209V54.3534C22.293 54.2032 22.3219 54.1013 22.3798 54.0475C22.4376 53.9952 22.5423 53.969 22.6967 53.969H23.6666C23.8595 53.969 23.9794 54.0145 24.0248 54.104C24.0551 54.1564 24.0689 54.29 24.0689 54.5063L23.6914 54.5656V54.2569H22.6719V55.2861H23.6914V54.9389L24.0689 55.0175V55.209H24.0703Z" fill="#9A70D3"/>
<path d="M26.8259 55.5934H25.2305V53.969H25.6094V55.2875H26.8273V55.5934H26.8259Z" fill="#9A70D3"/>
<path d="M28.1328 55.5934H27.7539V53.969H28.1328V55.5934Z" fill="#9A70D3"/>
<path d="M31.0219 55.5934H29.3438V53.969H31.0054V54.2459H29.7213V54.6083H30.4694V54.8852H29.7213V55.2875H31.0205V55.5934H31.0219Z" fill="#9A70D3"/>
<path d="M34.0047 55.5934H33.7471L32.5539 54.589C32.5029 54.5477 32.4589 54.5036 32.4189 54.4568C32.4285 54.5615 32.4341 54.6441 32.4341 54.7048V55.592H32.0938V53.9677H32.3514L33.4936 54.9252C33.5749 54.9941 33.6369 55.0533 33.6782 55.1016C33.6686 54.95 33.663 54.8577 33.663 54.8219V53.969H34.0033V55.5934H34.0047Z" fill="#9A70D3"/>
<path d="M36.7122 54.2583H35.9627V55.5934H35.5852V54.2583H34.8398V53.969H36.7122V54.2583Z" fill="#9A70D3"/>
<path d="M39.3159 55.209C39.3159 55.3606 39.2856 55.4625 39.2277 55.5149C39.1699 55.5672 39.0624 55.5934 38.9095 55.5934H37.9064C37.7397 55.5934 37.6309 55.5645 37.5785 55.5052C37.5262 55.4474 37.5 55.333 37.5 55.1649L37.8334 55.0961V55.2876H38.9825V54.9156H37.9698C37.8169 54.9156 37.7108 54.8894 37.6529 54.837C37.5951 54.7847 37.5661 54.6827 37.5661 54.5312V54.352C37.5661 54.2019 37.5951 54.0999 37.6529 54.0462C37.7108 53.9938 37.8155 53.9677 37.9698 53.9677H38.8916C39.0459 53.9677 39.1533 53.9938 39.2098 54.0476C39.2663 54.1013 39.2952 54.2046 39.2952 54.3576L38.9618 54.4361V54.2501H37.8982V54.5987H38.9108C39.0638 54.5987 39.1699 54.6248 39.2291 54.6772C39.2884 54.7296 39.3173 54.8315 39.3173 54.9831V55.209H39.3159Z" fill="#9A70D3"/>
<path d="M43.8394 55.2751C43.8394 55.4873 43.6796 55.5934 43.3613 55.5934H42.0703V53.969H43.4619C43.7044 53.969 43.827 54.0737 43.827 54.2831V54.4815C43.827 54.6413 43.7333 54.7323 43.5473 54.7557C43.7416 54.7805 43.8394 54.8852 43.8394 55.0671V55.2751ZM43.477 54.5036V54.3493C43.477 54.2721 43.4192 54.2335 43.3034 54.2335H42.4409V54.6207H43.3034C43.4205 54.6207 43.477 54.5821 43.477 54.5036ZM43.4867 55.1566V55.034C43.4867 54.9734 43.4715 54.9334 43.444 54.9155C43.415 54.8976 43.3696 54.8893 43.3034 54.8893H42.4409V55.3013H43.3034C43.3682 55.3013 43.415 55.2917 43.444 55.2751C43.4729 55.2558 43.4867 55.2173 43.4867 55.1566Z" fill="#9A70D3"/>
<path d="M46.9174 55.209C46.9174 55.3606 46.8884 55.4625 46.8306 55.5149C46.7727 55.5672 46.668 55.5934 46.5137 55.5934H45.3178C45.1648 55.5934 45.0601 55.5672 45.0009 55.5149C44.943 55.4625 44.9141 55.3606 44.9141 55.209V54.3534C44.9141 54.2032 44.943 54.1013 45.0009 54.0475C45.0587 53.9952 45.1634 53.969 45.3178 53.969H46.5137C46.6666 53.969 46.7713 53.9952 46.8306 54.0475C46.8884 54.0999 46.9174 54.2018 46.9174 54.3534V55.209ZM46.5398 55.2875V54.2583H45.293V55.2875H46.5398Z" fill="#9A70D3"/>
<path d="M50.058 55.209C50.058 55.3606 50.029 55.4625 49.9712 55.5149C49.9133 55.5672 49.8086 55.5934 49.6543 55.5934H48.4584C48.3054 55.5934 48.2007 55.5672 48.1415 55.5149C48.0836 55.4625 48.0547 55.3606 48.0547 55.209V54.3534C48.0547 54.2032 48.0836 54.1013 48.1415 54.0475C48.1994 53.9952 48.3041 53.969 48.4584 53.969H49.6543C49.8072 53.969 49.9119 53.9952 49.9712 54.0475C50.029 54.0999 50.058 54.2018 50.058 54.3534V55.209ZM49.6805 55.2875V54.2583H48.4336V55.2875H49.6805Z" fill="#9A70D3"/>
<path d="M53.191 55.5934H52.5834L51.6121 54.8783V55.5934H51.2305V53.969H51.6121V54.6455L52.5118 53.969H53.0588L51.9814 54.7337L53.191 55.5934Z" fill="#9A70D3"/>
<path d="M54.4579 55.4763C54.4579 55.5259 54.451 55.559 54.4386 55.5728C54.4262 55.5866 54.3931 55.5934 54.3408 55.5934H54.0445C53.9935 55.5934 53.9688 55.5549 53.9688 55.4763V55.2214C53.9688 55.1718 53.9743 55.1388 53.9867 55.1264C53.9991 55.1126 54.0321 55.1057 54.0845 55.1057H54.3807C54.4317 55.1057 54.4565 55.1443 54.4565 55.2214V55.4763H54.4579Z" fill="#9A70D3"/>
<path d="M58.7944 53.969L57.9539 54.8563V55.592H57.5737V54.8646L56.7305 53.9677H57.2334L57.7914 54.5918L58.3507 53.9677H58.7944V53.969Z" fill="#9A70D3"/>
<path d="M61.5228 55.209C61.5228 55.3606 61.4939 55.4625 61.436 55.5149C61.3782 55.5672 61.2734 55.5934 61.1191 55.5934H59.9232C59.7703 55.5934 59.6656 55.5672 59.6063 55.5149C59.5485 55.4625 59.5195 55.3606 59.5195 55.209V54.3534C59.5195 54.2032 59.5485 54.1013 59.6063 54.0475C59.6642 53.9952 59.7689 53.969 59.9232 53.969H61.1191C61.2721 53.969 61.3768 53.9952 61.436 54.0475C61.4939 54.0999 61.5228 54.2018 61.5228 54.3534V55.209ZM61.1453 55.2875V54.2583H59.8984V55.2875H61.1453Z" fill="#9A70D3"/>
<path d="M64.5252 55.209C64.5252 55.3606 64.4963 55.4625 64.4384 55.5149C64.3806 55.5672 64.2759 55.5934 64.1215 55.5934H63.0951C62.9422 55.5934 62.8375 55.5672 62.7782 55.5149C62.7203 55.4625 62.6914 55.3606 62.6914 55.209V53.969H63.0703V55.2875H64.1463V53.969H64.5238V55.209H64.5252Z" fill="#9A70D3"/>
<path d="M68.6672 55.2091C68.6672 55.3606 68.6383 55.4626 68.5804 55.515C68.5225 55.5673 68.4178 55.5935 68.2635 55.5935H67.5678C67.4148 55.5935 67.3087 55.5673 67.2509 55.515C67.193 55.4626 67.1641 55.3606 67.1641 55.2091V54.8729L67.5443 54.8013V55.289H68.2897V53.9705H68.6672V55.2091Z" fill="#9A70D3"/>
<path d="M71.6385 55.209C71.6385 55.3606 71.6096 55.4625 71.5517 55.5149C71.4938 55.5672 71.3891 55.5934 71.2348 55.5934H70.2084C70.0554 55.5934 69.9507 55.5672 69.8915 55.5149C69.8336 55.4625 69.8047 55.3606 69.8047 55.209V53.969H70.1836V55.2875H71.2596V53.969H71.6371V55.209H71.6385Z" fill="#9A70D3"/>
<path d="M74.6103 55.209C74.6103 55.3606 74.5799 55.4625 74.5207 55.5149C74.4628 55.5672 74.3554 55.5934 74.2024 55.5934H73.1994C73.0327 55.5934 72.9239 55.5645 72.8715 55.5052C72.8191 55.4474 72.793 55.333 72.793 55.1649L73.1264 55.0961V55.2876H74.2755V54.9156H73.2628C73.1099 54.9156 73.0038 54.8894 72.9459 54.837C72.888 54.7847 72.8591 54.6827 72.8591 54.5312V54.352C72.8591 54.2019 72.888 54.0999 72.9459 54.0462C73.0038 53.9938 73.1085 53.9677 73.2628 53.9677H74.1845C74.3388 53.9677 74.4463 53.9938 74.5028 54.0476C74.5593 54.1013 74.5882 54.2046 74.5882 54.3576L74.2548 54.4361V54.2501H73.1911V54.5987H74.2038C74.3567 54.5987 74.4628 54.6248 74.5221 54.6772C74.5813 54.7296 74.6116 54.8315 74.6116 54.9831V55.209H74.6103Z" fill="#9A70D3"/>
<path d="M77.2747 54.2583H76.5252V55.5934H76.1477V54.2583H75.4023V53.969H77.2747V54.2583Z" fill="#9A70D3"/>
<path d="M81.48 55.2751C81.48 55.4873 81.3202 55.5934 81.0019 55.5934H79.7109V53.969H81.1025C81.345 53.969 81.4676 54.0737 81.4676 54.2831V54.4815C81.4676 54.6413 81.3739 54.7323 81.1879 54.7557C81.3822 54.7805 81.48 54.8852 81.48 55.0671V55.2751ZM81.1177 54.5036V54.3493C81.1177 54.2721 81.0598 54.2335 80.9441 54.2335H80.0816V54.6207H80.9441C81.0598 54.6207 81.1177 54.5821 81.1177 54.5036ZM81.1273 55.1566V55.034C81.1273 54.9734 81.1121 54.9334 81.0846 54.9155C81.0557 54.8976 81.0088 54.8893 80.9441 54.8893H80.0816V55.3013H80.9441C81.0088 55.3013 81.0557 55.2917 81.0846 55.2751C81.1135 55.2558 81.1273 55.2173 81.1273 55.1566Z" fill="#9A70D3"/>
<path d="M84.5134 55.5934H83.972L83.3175 54.9789H82.9579V55.5934H82.5859V53.969H83.9775C84.22 53.969 84.3426 54.0737 84.3426 54.2831V54.6648C84.3426 54.8218 84.2792 54.9197 84.1538 54.9569C84.1056 54.972 83.9761 54.9789 83.7626 54.9789L84.5134 55.5934ZM83.9789 54.5738V54.3796C83.9789 54.3245 83.9623 54.2886 83.932 54.2721C83.9086 54.2569 83.8673 54.2501 83.8094 54.2501H82.9593V54.7033H83.8094C83.8673 54.7033 83.9086 54.6965 83.932 54.6813C83.9623 54.6634 83.9789 54.6289 83.9789 54.5738Z" fill="#9A70D3"/>
<path d="M87.1664 55.5934H85.4883V53.969H87.1499V54.2459H85.8658V54.6083H86.6139V54.8852H85.8658V55.2875H87.165V55.5934H87.1664Z" fill="#9A70D3"/>
<path d="M90.1452 55.5934H89.7208L89.5252 55.2379H88.496L88.3072 55.5934H87.9297L88.8487 53.969H89.2138L90.1452 55.5934ZM89.3681 54.9445L89.0195 54.2831L88.6585 54.9445H89.3681Z" fill="#9A70D3"/>
<path d="M92.3333 54.2583H91.5838V55.5934H91.2063V54.2583H90.4609V53.969H92.3333V54.2583Z" fill="#9A70D3"/>
<path d="M95.1118 55.5934H94.7301V54.8949H93.5508V55.5934H93.1719V53.969H93.5508V54.5986H94.7301V53.969H95.1118V55.5934Z" fill="#9A70D3"/>
<path d="M97.9985 55.5934H96.3203V53.969H97.9819V54.2459H96.6978V54.6083H97.446V54.8852H96.6978V55.2875H97.9971V55.5934H97.9985Z" fill="#9A70D3"/>
<path d="M47.965 11.8668H57.4937V14.0671H47.965C44.4696 14.0671 41.6286 16.9067 41.6286 20.3953C41.6286 23.8907 44.4682 26.7317 47.965 26.7317H57.4937V28.932H47.965C43.2613 28.932 39.4297 25.1004 39.4297 20.3966C39.4297 15.6902 43.2613 11.8668 47.965 11.8668Z" fill="#9A70D3"/>
<path d="M57.4954 7.66602V9.86633H47.9667C42.1593 9.86633 37.4308 14.5866 37.4308 20.3939C37.4308 26.2013 42.1593 30.9298 47.9667 30.9298H57.4954V33.1301H47.9667C40.9427 33.1301 35.2305 27.4178 35.2305 20.3939C35.2305 13.3783 40.9427 7.66602 47.9667 7.66602H57.4954Z" fill="#9A70D3"/>
<path d="M44.9297 21.3942H64.2916L62.404 23.5945H47.9691C46.5527 23.5945 45.3458 22.6741 44.9297 21.3942Z" fill="#9A70D3"/>
<path d="M64.2911 19.395H44.9292C45.3453 18.1151 46.5536 17.1947 47.9686 17.1947H62.3939L64.2911 19.395Z" fill="#9A70D3"/>
<path d="M48.9982 40.7933C37.7514 40.7933 28.6016 31.6434 28.6016 20.3966C28.6016 9.14983 37.7514 0 48.9982 0C60.245 0 69.3948 9.14983 69.3948 20.3966C69.3948 31.6434 60.245 40.7933 48.9982 40.7933ZM48.9982 2.00053C38.855 2.00053 30.6021 10.2534 30.6021 20.3966C30.6021 30.5398 38.855 38.7927 48.9982 38.7927C59.1414 38.7927 67.3943 30.5398 67.3943 20.3966C67.3943 10.2534 59.1414 2.00053 48.9982 2.00053Z" fill="#9A70D3"/>
</svg>
