<svg width="129" height="129" viewBox="0 0 129 129" fill="none" xmlns="http://www.w3.org/2000/svg">
<path fill-rule="evenodd" clip-rule="evenodd" d="M17.9744 84.2551L36.2667 116.577C37.1514 118.14 36.5963 120.142 35.0334 121.026L28.8115 124.548C27.2486 125.432 25.2463 124.877 24.362 123.314L6.06941 90.9929C5.18505 89.43 5.7401 87.4277 7.30297 86.5431L13.525 83.0218C15.0876 82.1375 17.0901 82.6923 17.9744 84.2551ZM38.3612 77.5393L23.6346 86.0715L36.5457 108.885L39.2106 107.346L68.4006 115.167C72.5994 116.293 76.6493 115.761 80.3507 113.482L120.594 88.7019C126.326 85.1733 123.794 69.7283 106.556 79.7676L84.3802 92.684C83.1454 93.4031 81.8859 93.9123 80.5939 94.2292C78.7599 97.3096 75.42 98.4212 71.9614 97.915C66.5661 97.1252 62.1993 95.3567 57.0625 93.9803C55.9884 93.6933 55.3504 92.59 55.6374 91.5159C55.9244 90.4419 57.0277 89.8039 58.1018 90.0909C63.0708 91.4222 67.3409 93.1695 72.544 93.9312C75.6385 94.3839 78.2792 92.4754 79.0819 89.4796C79.9738 86.1506 77.9297 82.8671 74.6505 81.8041C65.8166 80.2108 57.1544 76.5167 51.8495 74.7966C47.0917 73.2531 42.69 75.0314 38.3612 77.5393ZM104.434 4.40918L107.264 11.8632C107.349 12.0872 107.547 12.2311 107.787 12.2429L115.75 12.6312C116.292 12.6574 116.514 13.3397 116.091 13.6795L109.876 18.6745C109.689 18.8247 109.614 19.0575 109.677 19.2888L111.768 26.9824C111.911 27.5057 111.33 27.9272 110.876 27.6304L104.205 23.2636C104.005 23.1323 103.76 23.1323 103.56 23.2636L96.8887 27.6304C96.4349 27.9275 95.8547 27.506 95.9968 26.9827L98.0885 19.2888C98.1515 19.0575 98.0759 18.8247 97.8889 18.6745L91.675 13.6793C91.2525 13.3397 91.474 12.6574 92.0157 12.6309L99.9794 12.2427C100.219 12.2311 100.417 12.0872 100.502 11.863L103.332 4.40918C103.523 3.90527 104.243 3.90527 104.434 4.40918ZM74.6881 4.40918L77.5183 11.863C77.6034 12.0869 77.8015 12.2308 78.0406 12.2427L86.0043 12.6309C86.546 12.6571 86.7677 13.3394 86.3449 13.6793L80.1303 18.6743C79.9436 18.8244 79.868 19.0572 79.9307 19.2885L82.0224 26.9824C82.1648 27.5057 81.5845 27.9272 81.1308 27.6304L74.4598 23.2636C74.2593 23.1323 74.0146 23.1323 73.8141 23.2636L67.1433 27.6304C66.6896 27.9275 66.1093 27.5057 66.2517 26.9827L68.3434 19.2888C68.4061 19.0575 68.3306 18.8247 68.1439 18.6745L61.9292 13.6795C61.5064 13.3399 61.7281 12.6576 62.2698 12.6312L70.2333 12.2429C70.4727 12.2313 70.6707 12.0875 70.7559 11.8632L73.5858 4.40918C73.777 3.90527 74.4968 3.90527 74.6881 4.40918ZM44.9422 4.40918L47.7722 11.8632C47.8573 12.0872 48.0554 12.2311 48.2947 12.2429L56.2582 12.6312C56.7999 12.6574 57.0214 13.3397 56.5989 13.6795L50.3844 18.6745C50.1975 18.8247 50.1219 19.0575 50.1849 19.2888L52.2766 26.9824C52.419 27.5057 51.8387 27.9272 51.3849 27.6304L44.714 23.2636C44.5134 23.1323 44.2688 23.1323 44.0682 23.2636L37.3975 27.6304C36.9437 27.9275 36.3635 27.506 36.5056 26.9827L38.5973 19.2888C38.66 19.0575 38.5845 18.8247 38.3978 18.6745L32.1831 13.6795C31.7603 13.3399 31.9823 12.6576 32.5237 12.6312L40.4875 12.2429C40.7268 12.2313 40.9249 12.0875 41.01 11.8632L43.8397 4.40918C44.0312 3.90527 44.7508 3.90527 44.9422 4.40918ZM74.1371 32.3672C79.3069 32.3672 83.4976 36.5581 83.4976 41.728C83.4976 46.8978 79.3066 51.0888 74.1371 51.0888C68.9672 51.0888 64.7765 46.8978 64.7765 41.728C64.7765 36.5581 68.9672 32.3672 74.1371 32.3672ZM57.1894 70.1299C56.3948 70.1299 55.8032 69.4151 55.9518 68.6343C57.5832 60.077 65.1043 53.6081 74.1371 53.6081C83.1693 53.6081 90.6904 60.0767 92.322 68.634C92.4709 69.4148 91.8793 70.1296 91.0847 70.1296L57.1894 70.1299ZM44.391 30.9739C49.5608 30.9739 53.7515 35.1648 53.7515 40.3347C53.7515 45.5045 49.5605 49.6955 44.391 49.6955C39.2211 49.6955 35.0302 45.5045 35.0302 40.3347C35.0304 35.1648 39.2214 30.9739 44.391 30.9739ZM27.4433 68.7366H51.8465C52.5029 64.376 54.3965 60.4526 57.1428 57.308C53.8228 54.152 49.3333 52.215 44.391 52.215C35.3585 52.215 27.8374 58.6837 26.2058 67.2413C26.0571 68.0215 26.6487 68.7366 27.4433 68.7366ZM103.883 30.9739C109.053 30.9739 113.244 35.1648 113.244 40.3347C113.244 45.5045 109.053 49.6955 103.883 49.6955C98.7133 49.6955 94.5223 45.5045 94.5223 40.3347C94.5223 35.1648 98.7133 30.9739 103.883 30.9739ZM96.4274 68.7366H120.831C121.625 68.7366 122.217 68.0218 122.068 67.241C120.436 58.6837 112.915 52.215 103.883 52.215C98.9403 52.215 94.451 54.152 91.1308 57.308C93.8773 60.4524 95.7708 64.376 96.4274 68.7366ZM13.4143 88.4542C12.2004 88.6316 11.3602 89.7596 11.5375 90.9735C11.7149 92.1874 12.8429 93.0276 14.0571 92.8503C15.271 92.6729 16.1112 91.5449 15.9339 90.3307C15.7562 89.1168 14.6283 88.2766 13.4143 88.4542Z" fill="#9A70D3"/>
</svg>
