<svg width="129" height="129" viewBox="0 0 129 129" fill="none" xmlns="http://www.w3.org/2000/svg">
<path fill-rule="evenodd" clip-rule="evenodd" d="M55.3841 94.2634C47.9338 100.504 39.128 106.271 28.5284 111.827C31.6148 104.646 34.0739 97.2566 35.8552 89.8038C36.0189 89.111 35.6813 88.3954 35.0313 88.088C18.6115 80.2372 8.40486 65.8506 8.40486 50.5445C8.40486 26.4653 32.8216 6.87598 62.8242 6.87598C92.8394 6.87598 117.256 26.4653 117.256 50.5445C117.256 58.5793 114.51 66.4352 109.312 73.2631C108.798 73.9283 108.932 74.8756 109.599 75.382C110.257 75.8885 111.204 75.7574 111.708 75.0948C117.317 67.7353 120.28 59.247 120.28 50.5445C120.28 38.0098 114.26 26.2487 103.333 17.4202C92.4993 8.6724 78.1153 3.85254 62.8242 3.85254C47.5433 3.85254 33.1593 8.6724 22.3253 17.4202C11.3981 26.2487 5.37891 38.0098 5.37891 50.5445C5.37891 58.8589 8.09496 67.0197 13.2398 74.1449C17.9841 80.7108 24.6609 86.2714 32.6251 90.275C30.5767 98.5013 27.6868 106.642 24.0234 114.49C23.7564 115.075 23.8798 115.765 24.3434 116.214C24.6306 116.496 25.0111 116.642 25.3941 116.642C25.6309 116.642 25.8577 116.589 26.0743 116.483C38.3596 110.338 48.4427 103.956 56.8504 96.9845C58.8459 97.1508 60.854 97.2364 62.8293 97.2364C63.6632 97.2364 64.341 96.5612 64.341 95.7247C64.341 94.8908 63.6607 94.213 62.8293 94.213C60.7406 94.213 58.6116 94.1147 56.5002 93.9182C56.0946 93.8779 55.694 94.0014 55.3841 94.2634ZM95.2456 77.1533V71.5549C95.2456 70.7184 95.9258 70.0431 96.7573 70.0431C97.5912 70.0431 98.269 70.7184 98.269 71.5549V77.1558H103.374V71.5549C103.374 70.7184 104.054 70.0431 104.885 70.0431C105.719 70.0431 106.397 70.7184 106.397 71.5549V77.1558H107.344C110.574 77.1558 113.2 79.7862 113.2 83.0187V83.961H118.808C119.642 83.961 120.32 84.6363 120.32 85.4727C120.32 86.3067 119.64 86.9845 118.808 86.9845H113.2V92.0916H118.808C119.642 92.0916 120.32 92.7668 120.32 93.6033C120.32 94.4372 119.64 95.115 118.808 95.115H113.2V100.222H118.808C119.642 100.222 120.32 100.9 120.32 101.734C120.32 102.568 119.64 103.246 118.808 103.246H113.2V108.353H118.808C119.642 108.353 120.32 109.03 120.32 109.864C120.32 110.701 119.64 111.376 118.808 111.376H113.2V112.318C113.2 115.551 110.577 118.179 107.344 118.179H106.397V123.782C106.397 124.616 105.717 125.294 104.885 125.294C104.051 125.294 103.374 124.616 103.374 123.782V118.179H98.269V123.782C98.269 124.616 97.5887 125.294 96.7573 125.294C95.9233 125.294 95.2456 124.616 95.2456 123.782V118.179H90.1309V123.782C90.1309 124.616 89.4632 125.294 88.6192 125.294C87.7852 125.294 87.1176 124.616 87.1176 123.782V118.179H82.0029V123.782C82.0029 124.616 81.3352 125.294 80.4912 125.294C79.6572 125.294 78.9795 124.616 78.9795 123.782V118.179H78.0422C74.8121 118.179 72.1767 115.551 72.1767 112.318V111.376H66.5783C65.7444 111.376 65.0666 110.701 65.0666 109.864C65.0666 109.03 65.7469 108.353 66.5783 108.353H72.1767V103.246H66.5783C65.7444 103.246 65.0666 102.568 65.0666 101.734C65.0666 100.9 65.7469 100.222 66.5783 100.222H72.1767V95.115H66.5783C65.7444 95.115 65.0666 94.4372 65.0666 93.6033C65.0666 92.7693 65.7469 92.0916 66.5783 92.0916H72.1767V86.9845H66.5783C65.7444 86.9845 65.0666 86.3067 65.0666 85.4727C65.0666 84.6363 65.7469 83.961 66.5783 83.961H72.1767V83.0187C72.1767 79.7862 74.8096 77.1558 78.0422 77.1558H78.9795V71.5549C78.9795 70.7184 79.6597 70.0431 80.4912 70.0431C81.3352 70.0431 82.0029 70.7184 82.0029 71.5549V77.1558H87.1176V71.5549C87.1176 70.7184 87.7852 70.0431 88.6192 70.0431C89.4632 70.0431 90.1309 70.7184 90.1309 71.5549V77.1558H95.2456V77.1533ZM95.8427 104.415C96.1828 105.178 95.8326 106.07 95.0616 106.405C94.8651 106.493 94.661 106.534 94.4544 106.534C93.8774 106.534 93.3232 106.196 93.0762 105.629L91.0909 101.104H83.0032L81.0178 105.629C80.6776 106.395 79.7933 106.743 79.0223 106.405C78.2614 106.07 77.9112 105.178 78.2513 104.415L85.6587 87.5337C85.9057 86.9845 86.4499 86.6317 87.047 86.6317C87.6441 86.6317 88.1884 86.9845 88.4252 87.5337L95.8427 104.415ZM87.0445 91.9026L89.7605 98.0805H84.3284L87.0445 91.9026ZM99.9697 90.9704H98.3547C97.5207 90.9704 96.8429 90.2951 96.8429 89.4586C96.8429 88.6247 97.5232 87.9469 98.3547 87.9469H104.611C105.445 87.9469 106.122 88.6247 106.122 89.4586C106.122 90.2951 105.442 90.9704 104.611 90.9704H102.996V103.513H104.611C105.445 103.513 106.122 104.188 106.122 105.024C106.122 105.858 105.442 106.536 104.611 106.536H98.3547C97.5207 106.536 96.8429 105.858 96.8429 105.024C96.8429 104.188 97.5232 103.513 98.3547 103.513H99.9697V90.9704ZM39.4153 52.3258L58.3168 49.0605C58.7174 48.9925 59.0676 48.7632 59.3044 48.4306C59.5312 48.0955 59.6244 47.6823 59.5413 47.2842L57.9767 39.1436L86.6111 47.836L70.025 51.2953C69.2112 51.4641 68.6973 52.2553 68.8509 53.0691L70.5995 61.9303L39.4153 52.3258Z" fill="#9A70D3"/>
</svg>
