<svg width="250" height="278" viewBox="0 0 250 278" fill="none" xmlns="http://www.w3.org/2000/svg">
<g opacity="0.62" clip-path="url(#clip0_8_9103)">
<path d="M79.2313 0L41.4026 39.6228L79.2313 79.2455L39.6156 41.41L0 79.2455L37.8624 39.6228L0 0L39.6156 37.8692L79.2313 0Z" fill="#A8B4A2"/>
<path d="M250.001 155.287L223.77 182.77L250.001 210.219L222.522 183.984L195.078 210.219L221.309 182.77L195.078 155.287L222.522 181.556L250.001 155.287Z" fill="#A8B4A2"/>
<path d="M118.679 247.752L89.1104 248.427L88.4361 278L87.7618 248.427L58.1934 247.752L87.7618 247.078L88.4361 217.504L89.1104 247.078L118.679 247.752Z" fill="#A8B4A2"/>
<path d="M174.342 39.623L153.067 40.1288L152.561 61.407L152.089 40.1288L130.781 39.623L152.089 39.1508L152.561 17.8389L153.067 39.1508L174.342 39.623Z" fill="#A8B4A2"/>
<path d="M125.826 147.633L211.463 52.4707L116.284 138.123L74.0727 101.738L110.452 143.957L24.8145 239.153L119.959 153.5L162.205 189.886L125.826 147.633Z" fill="#A8B4A2"/>
</g>
<defs>
<clipPath id="clip0_8_9103">
<rect width="250" height="278" fill="white"/>
</clipPath>
</defs>
</svg>
