<svg width="129" height="129" viewBox="0 0 129 129" fill="none" xmlns="http://www.w3.org/2000/svg">
<path d="M9.44532 112.752H16.9269V88.116C16.9269 86.9824 17.8337 86.1511 18.8917 86.1511H31.0587C32.1922 86.1511 33.0991 86.9824 33.0991 88.116V112.752H43.2256V71.717C43.2256 70.5835 44.1325 69.7522 45.2661 69.7522H57.433C58.491 69.7522 59.3979 70.5835 59.3979 71.717V112.752H69.5244V54.7891C69.5244 53.6555 70.4313 52.7487 71.5648 52.7487H83.7318C84.8654 52.7487 85.7722 53.6555 85.7722 54.7891V112.752H95.8988V37.8612C95.8988 36.7276 96.73 35.8207 97.8636 35.8207H110.031C111.164 35.8207 112.071 36.7276 112.071 37.8612V112.752H119.477C120.611 112.752 121.517 113.659 121.517 114.793V126.96C121.517 128.093 120.611 129 119.477 129H9.44532C8.31175 129 7.48047 128.093 7.48047 126.96V114.793C7.48047 113.659 8.31175 112.752 9.44532 112.752ZM97.8636 32.42C96.73 32.42 95.8988 31.5132 95.8988 30.3796C95.8988 29.246 96.73 28.3392 97.8636 28.3392H110.031C111.164 28.3392 112.071 29.246 112.071 30.3796C112.071 31.5132 111.164 32.42 110.031 32.42H97.8636ZM71.5648 49.348C70.4313 49.348 69.5244 48.4411 69.5244 47.3076C69.5244 46.174 70.4313 45.2671 71.5648 45.2671H83.7318C84.8654 45.2671 85.7722 46.174 85.7722 47.3076C85.7722 48.4411 84.8654 49.348 83.7318 49.348H71.5648ZM45.2661 66.2759C44.1325 66.2759 43.2256 65.3691 43.2256 64.2355C43.2256 63.1775 44.1325 62.2707 45.2661 62.2707H57.433C58.491 62.2707 59.3979 63.1775 59.3979 64.2355C59.3979 65.3691 58.491 66.2759 57.433 66.2759H45.2661ZM18.8917 82.6749C17.8337 82.6749 16.9269 81.768 16.9269 80.6344C16.9269 79.5765 17.8337 78.6696 18.8917 78.6696H31.0587C32.1922 78.6696 33.0991 79.5765 33.0991 80.6344C33.0991 81.768 32.1922 82.6749 31.0587 82.6749H18.8917ZM41.7142 0C49.0446 0 55.6949 2.94728 60.4559 7.78383C65.2924 12.5448 68.2397 19.1951 68.2397 26.5255C68.2397 27.6591 67.3328 28.5659 66.1993 28.5659H41.7142C40.5806 28.5659 39.6738 27.6591 39.6738 26.5255V2.04042C39.6738 0.906854 40.5806 0 41.7142 0ZM60.5314 34.2337C60.5314 41.5641 57.5842 48.2144 52.7476 53.051C47.911 57.812 41.3364 60.7592 34.006 60.7592C26.6755 60.7592 20.0253 57.812 15.1887 53.051C10.4277 48.2144 7.48047 41.5641 7.48047 34.2337C7.48047 26.9033 10.4277 20.3286 15.1887 15.4921C20.0253 10.6555 26.6755 7.70826 34.006 7.70826C35.0639 7.70826 35.9708 8.61511 35.9708 9.74868V32.2689H58.491C59.6246 32.2689 60.5314 33.1757 60.5314 34.2337Z" fill="#B5A88A"/>
</svg>
