<svg width="258" height="1448" viewBox="0 0 258 1448" fill="none" xmlns="http://www.w3.org/2000/svg">
<g opacity="0.19" clip-path="url(#clip0_6_8929)">
<path d="M-0.000912517 1430.72C-0.000912517 1425.04 0.129481 1416.49 0.212465 1407.86C0.212465 1403.37 0.295449 1398.9 0.342868 1394.39C0.342868 1391.08 0.342864 1387.87 0.579959 1385.18C0.728821 1382.51 0.728821 1379.84 0.579959 1377.17C0.508831 1375.37 0.425853 1373.3 0.437708 1371.43C0.437708 1362.95 0.556248 1354.51 0.615522 1346.04C0.615522 1340.42 0.674809 1335 0.888195 1329.86C1.0186 1326.51 0.888189 1323.74 0.734077 1320.74C0.540059 1318.23 0.627539 1315.7 0.994883 1313.21C1.18843 1311.93 1.18843 1310.63 0.994883 1309.35C0.670576 1307.76 0.547111 1306.14 0.627388 1304.52L0.698514 1276.18C0.698514 1273.51 0.615533 1268.73 1.08972 1270.25C1.08972 1270.32 1.1727 1269.99 1.1727 1269.81L1.24382 1256.4C0.88818 1251.34 1.24383 1245.14 1.06601 1239.72C1.06601 1238.69 1.06601 1236.8 1.06601 1236.17C1.39794 1232.37 1.12528 1226.45 1.39794 1222.55C1.54407 1220.43 1.52029 1218.31 1.32682 1216.2C1.1727 1214.47 1.08972 1212.55 1.08972 1209.75C1.08972 1196.62 1.08972 1183.48 1.08972 1170.34C1.08972 1162.12 1.08972 1153.74 1.19641 1145.72C1.38609 1130.98 1.37424 1116.18 1.42166 1101.39C1.42166 1092.83 1.57576 1084.28 1.69431 1075.83C1.69431 1072.49 1.76544 1069.5 1.69431 1066.19C1.16085 1039.95 1.18456 1013.17 1.22013 986.399C1.22013 982.356 1.39794 978.255 1.36238 974.331C1.32681 970.407 1.25569 966.649 1.36238 962.405C1.43351 959.548 1.36238 955.743 1.29125 952.838C0.864481 939.608 1.03044 925.963 1.10157 912.532C1.15689 903.759 1.22407 894.979 1.3031 886.191C1.3031 877.276 1.3031 868.325 1.23197 859.387C1.23197 857.751 1.23197 856.091 1.23197 854.479C1.23197 847.105 1.44536 839.649 1.39794 832.417C1.39794 825.53 1.22011 818.69 1.24382 811.66C1.24382 809.218 1.24384 806.728 1.18456 804.31C1.04231 794.589 0.852625 784.844 1.32682 775.586V771.33C1.32682 769.919 1.38609 768.497 1.42166 767.074L1.5165 762.818C1.59948 761.395 1.72987 759.985 1.82471 758.562C1.91955 757.14 2.0381 755.598 2.1448 754.128C2.25149 752.658 2.50043 751.271 2.69011 750.145C2.93906 748.592 3.17616 747.122 3.4014 745.7C3.62664 744.277 3.93486 742.902 4.1601 741.551C4.38534 740.199 4.57502 738.848 4.82397 737.496C5.07292 736.145 5.32187 734.805 5.57082 733.406C5.99759 730.348 7.28976 726.056 8.27371 722.287C8.98013 719.832 9.85145 717.428 10.8818 715.091C11.1307 714.522 12.2569 711.902 12.5414 711.036C12.8259 710.171 13.1223 709.353 13.4305 708.523L13.9166 707.338C14.0825 706.935 14.2722 706.532 14.4619 706.152C15.185 704.564 15.9319 703.011 16.5958 701.493L17.307 699.881C17.5797 699.36 17.8287 698.862 18.0776 698.364L19.5713 695.495C20.0573 694.57 20.5315 693.657 21.0413 692.78C21.551 691.903 22.1201 691.049 22.6772 690.184C23.0329 689.627 23.5663 688.726 24.0998 687.813C24.6333 686.9 25.1312 685.94 25.5105 685.323C30.612 676.254 36.7505 667.808 43.8024 660.156C49.7874 653.55 56.3058 647.448 63.2917 641.911C70.2343 636.383 77.6392 631.461 85.4245 627.2C85.9698 626.903 86.4914 626.571 87.0486 626.287L88.7201 625.433L91.9446 623.738C93.6991 622.742 95.501 621.924 97.3622 621.071C99.2234 620.217 101.014 619.328 102.91 618.629L108.577 616.388L114.374 614.444C115.121 614.195 115.868 613.91 116.638 613.697L118.926 613.021L123.514 611.67C125.74 611.316 127.939 610.805 130.093 610.141C130.864 609.963 131.622 609.761 132.381 609.643L134.752 609.251C136.305 608.991 137.906 608.718 139.624 608.374C143.868 607.722 148.587 607.106 153.115 606.869C155.942 606.622 158.782 606.57 161.615 606.715C162.759 606.652 163.902 606.851 164.958 607.295C165.089 607.39 165.207 607.485 165.183 607.592C165.16 607.698 163.856 608.042 160.264 608.196L156.932 608.35L153.578 608.671L150.258 608.955L148.634 609.085L147.046 609.275C144.769 609.536 142.505 609.797 140.265 610.093L133.662 611.279C132.559 611.468 131.492 611.741 130.413 612.002L127.201 612.784C126.134 613.057 125.055 613.282 124 613.59L120.847 614.527L118.476 615.214C117.705 615.451 116.923 615.653 116.164 615.938L111.576 617.538L109.288 618.332L107.048 619.245L102.543 621.059C101.049 621.675 99.6028 622.398 98.1209 623.062L95.9041 624.129L94.8016 624.639L93.711 625.196C90.8303 626.714 87.8784 628.112 85.057 629.819L82.2949 631.408L80.9078 632.202L79.5683 633.068C77.7782 634.253 76.0118 635.367 74.1743 636.541L68.9582 640.264C68.0691 640.868 67.2393 641.556 66.3976 642.208L63.8963 644.187C63.102 644.816 62.284 645.373 61.5253 646.096L59.1543 648.099C57.6369 649.451 56.0603 650.755 54.6377 652.201C53.2151 653.648 51.7095 655.023 50.2751 656.445L46.1141 660.879C41.2492 666.244 36.7162 671.902 32.5404 677.819C30.6436 680.333 28.984 683.035 27.3006 685.667C26.4234 686.971 25.6884 688.37 24.9297 689.722L22.5587 693.812L20.4248 698.008C19.7136 699.407 18.9667 700.782 18.3503 702.228C17.0699 705.097 15.7066 707.919 14.6041 710.859C13.9996 712.364 13.4187 713.87 12.8022 715.399L11.273 719.987C7.86118 730.762 5.47955 741.837 4.1601 753.062C3.98656 754.24 3.88364 755.427 3.85189 756.618C3.85189 759.451 3.59108 762.545 3.59108 765.746C3.59108 767.347 3.50809 768.959 3.47252 770.571C3.43696 772.183 3.47252 773.831 3.47252 775.42C3.47252 792.293 3.47252 809.166 3.47252 826.04V887.684C3.47252 900.393 3.47252 913.219 3.41325 925.774C3.34212 933.621 3.41325 941.054 3.41325 948.677L3.33027 990.501V1062.1C3.33027 1063.74 3.33027 1065.39 3.33027 1067C3.66221 1088.62 3.59107 1110.46 3.56736 1132.3V1194.01C3.56736 1207.98 3.5239 1221.96 3.43696 1235.94C3.38954 1247.4 3.35002 1258.86 3.31841 1270.32C3.31841 1282.61 3.31841 1295 3.08132 1307.17C3.01019 1310.72 3.0102 1314.5 2.99834 1318.18L2.74938 1373.63C2.74938 1378.12 2.6427 1382.3 2.33448 1385.71C2.19222 1387.39 2.10922 1390.76 2.09737 1393.46C2.09737 1401.2 1.9314 1409.04 2.09737 1416.76C2.19221 1421.88 2.02625 1426.48 1.97883 1431.31C1.97883 1431.64 1.87213 1432.22 1.83656 1432.05C1.64689 1431.27 1.59948 1432.41 1.58762 1434.35C1.58762 1437.91 1.78915 1441.78 1.58762 1445.17C1.33867 1449.19 0.947454 1446.11 0.651085 1447.54C0.354716 1448.96 0.117624 1444.53 -0.178745 1444.05C-0.178745 1444.05 -0.249864 1442 -0.261719 1440.86L-0.000912517 1430.72Z" fill="#A8B4A2"/>
<path d="M22.1331 1431.36C22.1331 1425.89 22.2635 1417.63 22.3465 1409.35C22.3465 1405.03 22.4295 1400.72 22.4769 1396.38C22.4769 1393.21 22.4769 1390.11 22.714 1387.53C22.8628 1384.95 22.8628 1382.37 22.714 1379.8C22.6428 1378.07 22.5599 1376.09 22.5717 1374.28C22.631 1366.12 22.6903 1358 22.7495 1349.83C22.7495 1344.42 22.8088 1339.16 23.0222 1334.25C23.1526 1331.04 23.0222 1328.33 22.8681 1325.47C22.674 1323.06 22.7616 1320.63 23.1289 1318.24C23.3482 1317.01 23.3682 1315.75 23.1882 1314.52C22.865 1312.99 22.7414 1311.43 22.8207 1309.87L22.8918 1282.6C22.8918 1280.04 22.8088 1275.49 23.283 1276.89C23.283 1276.96 23.366 1276.64 23.366 1276.46L23.4371 1263.56C23.0815 1258.68 23.4371 1252.72 23.2711 1247.5C23.2711 1246.5 23.2711 1244.68 23.2711 1244.07C23.6149 1240.42 23.2711 1234.72 23.6031 1230.96C23.7493 1228.93 23.7255 1226.89 23.5319 1224.86C23.3778 1223.19 23.2949 1221.3 23.2949 1218.65C23.2949 1206 23.2949 1193.36 23.2949 1180.71C23.2949 1172.8 23.2948 1164.8 23.4015 1157C23.5912 1142.78 23.5794 1128.55 23.6268 1114.32C23.6268 1106.03 23.7809 1097.86 23.9113 1089.73C23.9113 1086.49 23.9113 1083.62 23.9113 1080.44C23.3778 1055.17 23.4015 1029.38 23.4371 1003.61C23.4371 999.724 23.6149 995.764 23.5794 991.994C23.5438 988.225 23.4727 984.597 23.5794 980.519C23.6505 977.757 23.5794 974.094 23.5082 971.308C23.0815 958.564 23.2474 945.429 23.3186 932.472C23.3897 924.031 23.4569 915.579 23.5201 907.114C23.5201 898.532 23.5201 889.913 23.449 881.307C23.449 879.73 23.449 878.13 23.449 876.565C23.5082 869.452 23.6624 862.339 23.6149 855.333C23.6149 848.694 23.4371 842.115 23.4608 835.346C23.4608 832.975 23.4608 830.604 23.4608 828.233C23.3304 818.868 23.1289 809.49 23.6031 800.576V784.216C23.6031 781.478 23.5201 778.289 23.6031 776.084C23.6623 774.578 23.7098 773.156 23.7335 771.769C23.7572 770.382 23.7927 769.03 23.8283 767.702C23.8639 766.375 23.8283 765.071 23.8283 763.755C23.8283 762.439 23.9113 761.111 23.9232 759.748C23.9232 759.001 23.9232 758.183 24.0061 757.294C24.0891 756.405 24.1602 755.492 24.2551 754.544C24.3499 753.595 24.4566 752.611 24.5633 751.639C24.67 750.667 24.7648 749.695 24.9189 748.77C25.1323 747.419 25.3457 746.079 25.571 744.858C25.6895 744.242 25.8081 743.673 25.9385 743.092C26.0689 742.511 26.2585 742.025 26.4245 741.551C26.5905 741.077 27.278 738.314 27.4203 737.449C27.4914 737.034 27.5626 736.607 27.6574 736.192L27.9656 735.007C28.179 734.177 28.4161 733.359 28.6413 732.541C28.8666 731.723 29.1037 730.929 29.3408 730.17C29.5779 729.411 29.8505 728.617 30.0758 727.799C30.4314 726.685 30.7752 725.63 31.1071 724.61C31.2731 724.097 31.4391 723.599 31.605 723.117C31.7947 722.631 31.9844 722.156 32.1622 721.682C32.9328 719.821 33.6441 718.019 34.5332 716.241C35.1259 715.055 36.2165 712.59 36.7263 711.274L37.0464 710.456L37.402 709.65C37.651 709.116 37.8999 708.571 38.137 708.026C38.6468 706.947 39.1447 705.844 39.6663 704.742C40.7451 702.56 41.9661 700.391 43.2227 698.162C43.8747 697.095 44.5386 696.005 45.2143 694.926C45.89 693.847 46.5302 692.733 47.2652 691.666C48.0002 690.599 48.7352 689.544 49.482 688.489C50.2289 687.434 50.9402 686.343 51.7581 685.324L53.726 682.787L54.71 681.53L55.196 680.89L55.7176 680.285L59.8905 675.425L64.3005 670.766C65.806 669.26 67.3827 667.802 68.9238 666.32C75.214 660.525 82.0191 655.315 89.2548 650.755L92.3014 648.835C93.3447 648.242 94.376 647.649 95.3363 647.068L97.8376 645.586C98.6793 645.089 99.5565 644.674 100.41 644.223L103.018 642.884L104.322 642.22C104.761 642.006 105.211 641.817 105.65 641.615C107.44 640.821 109.206 640.015 111.02 639.244L116.521 637.134C117.232 636.849 117.967 636.624 118.69 636.375L120.871 635.64C122.33 635.154 123.776 634.609 125.258 634.218C126.335 634.086 127.396 633.844 128.423 633.495C129.454 633.175 130.474 632.771 131.553 632.546C134.528 631.87 137.314 631.29 140.657 630.709L143.787 630.128C144.854 629.95 145.944 629.843 147.035 629.713L150.342 629.322L151.172 629.227H151.99L153.638 629.12C155.475 629.002 157.052 628.883 158.38 628.848C159.708 628.812 160.869 628.848 161.794 628.942C162.899 628.882 164.004 629.081 165.019 629.523C165.137 629.618 165.256 629.713 165.232 629.82C165.208 629.926 163.952 630.27 160.49 630.412C158.368 630.412 156.199 630.721 154.053 630.91C152.974 631.017 151.907 631.088 150.852 631.207C149.797 631.325 148.778 631.467 147.782 631.574C139.244 632.563 130.832 634.443 122.685 637.181L118.263 638.699C116.793 639.232 115.359 639.884 113.913 640.394L111.743 641.259C111.032 641.556 110.321 641.9 109.621 642.208L105.365 644.14L101.204 646.262L99.1179 647.329L97.0908 648.515C95.7275 649.297 94.3523 650.044 93.0127 650.886C91.6731 651.727 90.3454 652.581 89.0058 653.422C82.1274 657.922 75.6504 663.007 69.647 668.62L67.4538 670.529C66.7544 671.205 66.0313 671.868 65.3793 672.592L61.3605 676.871L57.567 681.34C56.9268 682.075 56.3815 682.858 55.7413 683.628L53.9631 685.999C53.4297 686.699 52.8843 687.375 52.3746 688.086L50.8572 690.208L49.3516 692.377C49.1027 692.733 48.8419 693.088 48.6048 693.456L47.9053 694.57C46.9688 696.064 46.0323 697.534 45.1195 699.004C44.2067 700.474 43.4005 701.991 42.5707 703.461C42.1913 704.125 41.7883 704.765 41.4564 705.441L40.425 707.468C39.7493 708.82 39.038 710.159 38.386 711.523L36.5485 715.66C36.2521 716.359 35.9202 717.035 35.6594 717.746L34.8414 719.857C34.3079 721.267 33.7389 722.666 33.2291 724.089L31.8184 728.451C31.5932 729.163 31.3205 729.874 31.119 730.609L30.5144 732.778C30.1232 734.236 29.6846 735.683 29.3289 737.141C28.9733 738.599 28.6414 740.199 28.2857 741.717C28.1316 742.487 27.9182 743.246 27.8115 744.017C27.7048 744.787 27.5626 745.546 27.4322 746.305L26.792 750.3L26.3415 754.342C25.9859 757.021 25.8792 759.724 25.6777 762.427C25.6777 763.103 25.571 763.778 25.5591 764.466V766.493C25.5591 767.857 25.4998 769.208 25.4643 770.571C25.4643 773.322 25.4643 776.072 25.4643 778.87C25.4643 780.055 25.4643 781.596 25.4643 782.331C25.8555 787.808 25.7132 794.423 25.7251 800.552C25.7251 816.793 25.7251 833.038 25.7251 849.287V908.691C25.7251 920.937 25.7844 933.29 25.7251 945.37C25.654 952.921 25.7251 960.081 25.7251 967.42L25.6421 1007.73L25.7014 1076.66C25.7014 1078.24 25.7014 1079.83 25.7014 1081.4C26.0333 1102.22 25.9622 1123.24 25.9385 1144.23V1203.65C25.9385 1217.08 25.895 1230.52 25.8081 1243.96C25.7606 1255.02 25.7211 1266.06 25.6895 1277.08C25.6302 1288.93 25.6895 1300.79 25.4524 1312.56C25.3813 1316 25.3813 1319.67 25.3694 1323.17L25.1205 1376.52C25.1205 1380.83 25.0138 1384.81 24.7174 1388.15C24.5633 1389.76 24.4922 1393.01 24.4685 1395.59C24.4685 1403.06 24.3025 1410.61 24.4685 1418.04C24.5633 1422.97 24.3973 1427.4 24.3499 1432.04C24.3499 1432.36 24.2432 1432.92 24.2077 1432.77C24.018 1432.02 23.9706 1433.11 23.9587 1434.98C23.9587 1438.46 24.1602 1442.1 23.9587 1445.38C23.7216 1449.26 23.3304 1446.29 23.0222 1447.75C22.714 1449.21 22.4887 1444.86 22.1924 1444.4C22.1924 1444.4 22.1212 1442.42 22.1094 1441.33L22.1331 1431.36Z" fill="#A8B4A2"/>
<path d="M44.2656 1432C44.2656 1426.76 44.396 1418.8 44.479 1410.86C44.479 1406.69 44.562 1402.56 44.6094 1398.38C44.6094 1395.32 44.6094 1392.35 44.8465 1389.86C44.9954 1387.39 44.9954 1384.91 44.8465 1382.44C44.8465 1380.77 44.6924 1378.89 44.7042 1377.13C44.7042 1369.28 44.8228 1361.47 44.8821 1353.64C44.8821 1348.43 44.9413 1343.41 45.1547 1338.65C45.2851 1335.57 45.1547 1333 45.0006 1330.21C44.8065 1327.89 44.8941 1325.55 45.2614 1323.25C45.4584 1322.07 45.4584 1320.87 45.2614 1319.7C44.9384 1318.23 44.8187 1316.73 44.9058 1315.24C44.9058 1306.49 44.9058 1297.74 44.9058 1288.99C44.9058 1286.53 44.8228 1282.1 45.297 1283.49C45.297 1283.57 45.38 1283.25 45.38 1283.09L45.4511 1270.69C45.0955 1265.95 45.4511 1260.26 45.2851 1255.28C45.2851 1254.33 45.2851 1252.56 45.2851 1251.98C45.6289 1248.42 45.3444 1243 45.6171 1239.38C45.7666 1237.41 45.7428 1235.42 45.5459 1233.45C45.3918 1231.85 45.3088 1230.07 45.3088 1227.52C45.3088 1215.38 45.3088 1203.22 45.3088 1191.05C45.3088 1183.44 45.3088 1175.75 45.4155 1168.26C45.6052 1154.63 45.5934 1140.94 45.6408 1127.25C45.6408 1119.31 45.7949 1111.41 45.9253 1103.54C45.9253 1100.44 45.9846 1097.68 45.9253 1094.62C45.3918 1070.32 45.4155 1045.54 45.4511 1020.75C45.4511 1017.02 45.6289 1013.21 45.5934 1009.6C45.5578 1005.98 45.4867 1002.49 45.5934 998.562C45.6645 995.906 45.5934 992.385 45.5222 989.706C45.0955 977.46 45.2614 964.811 45.3325 952.376C45.4037 944.259 45.4708 936.131 45.5341 927.99C45.5341 919.692 45.5341 911.394 45.4629 903.19C45.4629 901.673 45.4629 900.132 45.4629 898.638C45.4629 891.822 45.6763 884.922 45.6289 878.224C45.6289 871.846 45.4511 865.528 45.4748 859.019C45.4748 856.755 45.4748 854.443 45.4155 852.215C45.2851 843.217 45.0836 834.195 45.5578 825.625V809.893C45.5578 807.262 45.4748 804.191 45.5578 802.093C45.7977 796.866 45.7502 791.63 45.4155 786.409C45.2496 783.588 45.2259 779.462 45.1547 775.87C45.0308 773.497 45.1062 771.118 45.38 768.757C45.4748 768.188 45.5815 765.545 45.5696 764.715C45.5696 763.055 45.7119 761.407 45.8423 759.795C45.8423 758.989 46.0201 758.195 46.1268 757.424C46.2335 756.654 46.3284 755.871 46.4113 755.053C46.5299 753.939 46.6484 752.872 46.8381 751.864C47.0278 750.857 47.1937 749.873 47.3716 748.912C47.4546 748.438 47.5494 747.964 47.6442 747.49C47.7391 747.016 47.8695 746.577 47.9762 746.115C48.2133 745.206 48.4622 744.293 48.723 743.376C48.9008 742.784 49.0905 741.835 49.3632 740.887C49.6358 739.938 49.8729 738.978 50.0152 738.314C50.4538 736.109 51.2007 733.916 51.8053 731.664C52.1135 730.478 52.5284 729.411 52.9907 728.297L54.1762 724.895C56.0289 720.3 58.1832 715.833 60.6252 711.522C68.7565 697.156 79.7904 684.64 93.0243 674.773C93.4629 674.417 93.9371 674.085 94.4113 673.765L95.8338 672.757L98.5841 670.778C104.795 666.506 111.449 662.917 118.429 660.073C119.78 659.48 121.167 658.982 122.543 658.425L124.605 657.607L126.715 656.896C127.742 656.715 128.747 656.429 129.715 656.042C130.699 655.698 131.683 655.366 132.702 655.058C135.524 654.205 138.238 653.766 141.415 652.984C143.371 652.604 145.434 652.225 147.532 651.893L150.71 651.525L152.298 651.336C152.832 651.277 153.353 651.217 153.887 651.194C155.641 651.075 157.17 650.98 158.474 650.921C159.778 650.862 160.845 650.921 161.758 650.921C162.83 650.867 163.899 651.07 164.876 651.514C164.983 651.608 165.101 651.703 165.078 651.81C165.054 651.917 163.892 652.26 160.525 652.403C160.016 652.403 159.506 652.403 158.996 652.486L157.455 652.628L154.349 652.924C153.318 652.995 152.298 653.161 151.29 653.292L148.327 653.648C140.139 654.721 132.11 656.779 124.416 659.776C113.188 664.052 102.653 669.965 93.1547 677.321C86.9014 682.144 81.1469 687.581 75.9771 693.551C71.0662 699.233 66.7299 705.388 63.0317 711.926C59.7212 717.737 56.8942 723.812 54.5793 730.087L54.1881 731.095L53.8324 732.126L53.2278 734.26L52.5402 736.323C52.315 737.01 52.1372 737.721 51.9357 738.421C51.5682 739.82 51.1414 741.207 50.8095 742.618L49.8611 746.862C49.6833 747.573 49.5647 748.284 49.4462 748.995L49.0787 751.141L48.7112 753.275C48.5926 753.998 48.5215 754.721 48.4266 755.433C48.2607 756.867 48.0473 758.301 47.9169 759.748L47.585 764.075C47.585 764.454 47.5257 764.821 47.502 765.26V766.446L47.4427 768.698C47.4427 769.457 47.4427 770.204 47.4427 770.95C47.4427 771.697 47.4427 772.456 47.4427 773.191C47.5731 783.682 47.6798 794.162 47.585 804.784C47.585 805.898 47.585 807.416 47.585 808.115C47.9762 813.379 47.8339 819.733 47.8576 825.636V872.486V929.591C47.8576 941.351 47.9287 953.229 47.7983 964.847C47.7272 972.102 47.7983 978.99 47.7983 986.043L47.7154 1024.76L47.7746 1091.02C47.7746 1092.53 47.7746 1094.06 47.7746 1095.56C48.1066 1115.57 48.0354 1135.78 48.0117 1156.02V1213.14C47.9643 1226.09 47.9169 1239.02 47.8695 1251.95C47.822 1262.57 47.7825 1273.18 47.7509 1283.79C47.6917 1295.17 47.7509 1306.63 47.5138 1317.89C47.4427 1321.2 47.4427 1324.69 47.4308 1328.09L47.3004 1379.28C47.3004 1383.44 47.1938 1387.3 46.8974 1390.47C46.7433 1392.01 46.6721 1395.13 46.6484 1397.58C46.6484 1404.69 46.4825 1412.01 46.6484 1419.16C46.7433 1423.9 46.5773 1428.14 46.5299 1432.61C46.5299 1432.92 46.4232 1433.45 46.3876 1433.31C46.2098 1432.59 46.1505 1433.64 46.1387 1435.43C46.1387 1438.79 46.3402 1442.3 46.1387 1445.44C45.9016 1449.16 45.5104 1446.32 45.2021 1447.66C44.8939 1449 44.6805 1444.87 44.3842 1444.43C44.3842 1444.43 44.3012 1442.52 44.2893 1441.48L44.2656 1432Z" fill="#A8B4A2"/>
<path d="M66.3977 1432.62C66.3977 1427.59 66.5281 1419.95 66.6111 1412.33C66.6111 1408.33 66.7059 1404.35 66.7415 1400.36C66.7415 1397.42 66.7415 1394.57 66.9786 1392.18C67.1269 1389.81 67.1269 1387.43 66.9786 1385.06C66.9193 1383.46 66.8245 1381.64 66.8363 1379.97L67.0142 1357.44C67.0142 1352.45 67.0142 1347.64 67.2868 1343.07C67.4172 1340.1 67.2868 1337.63 67.1327 1334.97C66.9592 1332.74 67.0667 1330.5 67.4528 1328.3C67.672 1327.17 67.692 1326.01 67.5121 1324.87C67.1893 1323.46 67.0695 1322.02 67.1564 1320.59C67.1564 1312.18 67.1762 1303.79 67.2157 1295.39C67.2157 1293.02 67.1327 1288.78 67.6069 1290.12C67.6069 1290.19 67.6899 1289.89 67.6899 1289.73L67.761 1277.87C67.4054 1273.37 67.761 1267.87 67.595 1263.05C67.595 1262.14 67.595 1260.45 67.595 1259.89C67.9388 1256.52 67.595 1251.27 67.927 1247.8C68.0731 1245.92 68.0493 1244.04 67.8558 1242.17C67.6838 1240.26 67.6086 1238.34 67.6306 1236.43C67.6306 1224.76 67.6306 1213.09 67.6306 1201.42C67.6306 1194.12 67.6306 1186.73 67.7491 1179.55C67.927 1166.51 67.9151 1153.31 67.9625 1140.18C67.9625 1132.58 68.1166 1124.98 68.247 1117.48C68.247 1114.5 68.3063 1111.85 68.247 1108.91C67.7136 1085.6 67.7373 1061.81 67.7729 1038.03C67.7729 1034.47 67.9507 1030.8 67.9151 1027.36C67.8795 1023.92 67.8084 1020.53 67.9151 1016.77C67.9862 1014.22 67.9151 1010.84 67.844 1008.27C67.4291 996.524 67.595 984.396 67.6543 972.447C67.7254 964.654 67.7926 956.854 67.8558 949.045C67.8558 941.126 67.8558 933.172 67.7847 925.241C67.7847 923.783 67.7847 922.313 67.7847 920.878C67.844 914.323 67.9981 907.708 67.9507 901.283C67.9507 895.154 67.7728 889.096 67.7966 882.848C67.7966 880.679 67.7966 878.462 67.7966 876.316C67.6662 867.674 67.4646 859.02 67.9388 850.793V835.702C67.9388 833.177 67.8558 830.225 67.9388 828.21C68.1787 823.197 68.1312 818.174 67.7966 813.166C67.6306 810.451 67.6069 806.492 67.5358 803.054C67.4312 800.796 67.4906 798.534 67.7136 796.285C67.7847 795.74 67.8321 793.226 67.7847 792.42C67.595 789.267 67.7847 786.125 67.7847 783.197C67.7254 778.918 67.7847 775.468 67.9625 771.84C67.9625 770.655 68.1048 768.13 68.0574 766.826C68.0541 757.55 69.5842 748.337 72.5859 739.56C75.0779 732.042 78.5157 724.872 82.8166 718.221C87.0953 711.546 92.193 705.433 97.9906 700.024C99.5436 698.483 101.334 697.013 102.875 695.602C108.291 690.81 114.285 686.712 120.716 683.404C121.985 682.776 123.241 682.1 124.545 681.531L126.489 680.642L127.462 680.203L128.457 679.8C130.383 679.224 132.275 678.539 134.124 677.749L136.116 677.097C136.779 676.872 137.455 676.73 138.131 676.54L140.205 675.983L141.284 675.686L142.47 675.414L145.339 674.738C146.311 674.513 147.318 674.371 148.326 674.193L149.843 673.932C150.353 673.849 150.863 673.766 151.373 673.719L154.419 673.363C155.261 673.244 156.055 673.197 156.79 673.161L158.841 673.055C159.469 673.055 160.027 673.055 160.572 673.055L161.995 673.114C163.024 673.059 164.051 673.262 164.982 673.707C165.1 673.802 165.207 673.908 165.183 674.003C165.124 674.288 163.998 674.454 160.821 674.596C159.849 674.596 158.865 674.774 157.869 674.857L156.387 674.999C155.889 674.999 155.391 675.094 154.905 675.177C152.937 675.473 150.981 675.675 149.144 676.007C148.148 676.161 147.141 676.315 146.145 676.493L143.205 677.145L141.747 677.476C141.261 677.595 140.786 677.737 140.312 677.88L137.396 678.662C136.459 678.958 135.535 679.29 134.61 679.61C133.685 679.93 132.749 680.215 131.848 680.606C130.046 681.341 128.22 682.029 126.466 682.87C115.973 687.673 106.4 694.272 98.1803 702.371C92.75 707.644 87.9738 713.551 83.9546 719.964C83.4923 720.723 82.9707 721.47 82.5439 722.264L81.228 724.635L80.5641 725.82L79.9714 727.006L78.7859 729.377C78.371 730.183 78.0509 731.024 77.6834 731.842L76.6284 734.32L75.68 736.833C75.3718 737.687 75.0161 738.517 74.7672 739.37C72.7405 745.446 71.2801 751.697 70.4046 758.041L70.1438 760.116C70.049 760.804 69.9541 761.491 69.9067 762.191L69.6104 766.352L69.5036 770.513C69.5036 771.912 69.5036 773.322 69.5036 774.721C69.5036 780.34 69.5036 785.955 69.5036 791.567C69.5036 794.459 69.5036 797.423 69.5036 800.268C69.634 810.333 69.7408 820.421 69.6459 830.593C69.6459 831.648 69.6459 833.106 69.6459 833.782C70.0371 838.832 69.8949 844.937 69.9186 850.592V895.569V950.373C69.9186 961.659 69.9897 973.051 69.9186 984.207C69.8474 991.177 69.9186 997.78 69.9186 1004.55L69.8356 1041.7L69.8949 1105.3C69.8949 1106.76 69.8949 1108.22 69.8949 1109.65C70.2268 1128.86 70.1557 1148.25 70.1319 1167.65V1222.48L69.9897 1259.72C69.9897 1269.9 69.9502 1280.09 69.8711 1290.27C69.8711 1301.2 69.8711 1312.2 69.634 1323.02C69.5629 1326.19 69.5629 1329.52 69.5511 1332.8L69.3021 1382.05C69.3021 1386.04 69.1954 1389.75 68.8991 1392.72C68.7449 1394.2 68.6738 1397.2 68.6501 1399.6C68.6501 1406.47 68.4841 1413.44 68.6501 1420.3C68.7449 1424.85 68.579 1428.94 68.5316 1433.22C68.5316 1433.53 68.4249 1434.02 68.3893 1433.88C68.2115 1433.19 68.1522 1434.2 68.1404 1435.93C68.1404 1439.15 68.3419 1442.52 68.1404 1445.53C67.9033 1449.09 67.512 1446.38 67.2038 1447.66C66.8956 1448.94 66.6822 1444.99 66.3859 1444.56C66.3859 1444.56 66.3029 1442.74 66.291 1441.73L66.3977 1432.62Z" fill="#A8B4A2"/>
<path d="M88.5301 1433.29C88.5894 1428.46 88.6605 1421.15 88.7435 1413.85C88.7435 1410.02 88.8383 1406.21 88.8739 1402.37C88.8739 1399.56 88.8739 1396.83 89.111 1394.55C89.2541 1392.27 89.2541 1389.99 89.111 1387.72C89.0399 1386.19 88.945 1384.43 88.9569 1382.83C89.0162 1375.63 89.0754 1368.44 89.1347 1361.22C89.1347 1356.48 89.194 1351.83 89.4074 1347.46C89.4951 1344.87 89.4437 1342.28 89.2533 1339.69C89.0591 1337.56 89.1468 1335.41 89.5141 1333.29C89.7332 1332.21 89.7533 1331.1 89.5733 1330.01C89.2514 1328.66 89.1316 1327.28 89.2177 1325.9C89.2177 1317.86 89.2177 1309.8 89.277 1301.77C89.277 1299.51 89.194 1295.44 89.6682 1296.72C89.6682 1296.78 89.7511 1296.5 89.7511 1296.34L89.8223 1284.94C89.4666 1280.62 89.8223 1275.35 89.6563 1270.71C89.6563 1269.83 89.6563 1268.22 89.6563 1267.69C89.9882 1264.46 89.6563 1259.39 89.9764 1256.1C90.1285 1254.3 90.1047 1252.49 89.9053 1250.7C89.7331 1248.88 89.6579 1247.04 89.68 1245.21C89.68 1234.03 89.68 1222.85 89.68 1211.66C89.68 1204.67 89.68 1197.6 89.7986 1190.72C89.9764 1178.17 89.9645 1165.58 90.012 1152.99C90.012 1145.72 90.1661 1138.44 90.2965 1131.24C90.2965 1128.4 90.3558 1125.86 90.2965 1123.04C89.763 1100.7 89.7867 1077.92 89.8223 1055.13C89.8223 1051.7 90.0001 1048.2 89.9645 1044.87C89.929 1041.54 89.8579 1038.32 89.9645 1034.72C89.9645 1032.28 89.9645 1029.04 89.8816 1026.57C89.4666 1015.31 89.6326 1003.7 89.6919 992.196C89.763 984.728 89.8302 977.255 89.8934 969.779C89.8934 962.192 89.8934 954.569 89.8223 946.97C89.8223 945.571 89.8223 944.161 89.8223 942.786C89.8815 936.514 90.0357 930.172 89.9882 924.008C89.9882 918.151 89.8104 912.331 89.8341 906.344C89.8341 904.269 89.8341 902.147 89.7749 900.096C89.6445 891.798 89.4429 883.5 89.9171 875.64V861.177C89.9171 858.806 89.8341 855.938 89.9171 854.065C90.1629 849.261 90.1154 844.447 89.7749 839.649C89.6089 837.053 89.5852 833.259 89.5141 829.964C89.4094 827.801 89.4689 825.633 89.6919 823.479C89.7832 822.248 89.8069 821.014 89.763 819.78C89.5733 816.758 89.763 813.746 89.763 810.949C89.763 806.847 89.763 803.528 89.9408 800.054C90.012 798.928 90.0001 796.498 89.9408 795.312C89.7156 791.211 89.5852 786.907 89.5141 782.474C89.5141 780.257 89.514 778.016 89.4311 775.752C89.3481 773.488 89.3599 771.235 89.4311 768.912C89.4311 767.951 89.4311 767.003 89.5378 766.055C89.6445 765.106 89.6563 764.158 89.7393 763.21L90.0831 760.376C90.1779 759.428 90.3795 758.503 90.5217 757.567C91.1654 753.812 92.1049 750.113 93.3313 746.506C95.7809 739.284 99.3362 732.485 103.87 726.353C105.139 724.67 106.49 722.915 107.794 721.386C112.247 716.025 117.477 711.362 123.312 707.551L125.043 706.449C125.624 706.081 126.228 705.69 126.785 705.358L128.564 704.327C128.86 704.149 129.156 703.971 129.453 703.817L130.366 703.343C131.284 703.036 132.169 702.639 133.009 702.158C133.875 701.731 134.728 701.257 135.629 700.853C136.815 700.308 138.119 699.893 139.387 699.407L143.43 698.08C147.15 696.955 150.962 696.162 154.822 695.709C161.33 694.914 164.306 695.365 164.981 695.898C165.088 695.993 165.195 696.1 165.171 696.195C165.112 696.479 164.045 696.621 160.998 696.799C157.261 697.141 153.545 697.687 149.867 698.435C146.103 699.16 142.416 700.236 138.854 701.648C137.988 702.003 137.099 702.323 136.257 702.727L133.709 703.912C132.049 704.766 130.377 705.584 128.801 706.556C124.067 709.323 119.643 712.589 115.606 716.3C111.559 720.048 107.92 724.212 104.747 728.724C103.681 730.158 102.756 731.712 101.784 733.229C100.812 734.746 99.9818 736.359 99.1994 737.971C98.417 739.583 97.6701 741.243 96.947 742.891C96.2239 744.538 95.6193 746.257 95.0858 747.988C94.5523 749.719 94.1256 751.284 93.6632 752.943C93.2009 754.603 92.8927 756.286 92.6556 757.993C92.0908 761.381 91.762 764.803 91.6716 768.236C91.5886 771.271 91.6716 774.448 91.6716 777.566C91.6716 780.683 91.6716 783.801 91.6716 786.812C91.6716 797.608 91.6716 808.376 91.6716 819.117C91.6716 821.891 91.6716 824.736 91.6716 827.415C91.802 837.065 91.9087 846.703 91.8139 856.471C91.8139 857.49 91.8139 858.842 91.8139 859.53C92.2051 864.366 92.0628 870.199 92.0865 875.64V918.72V971.225C92.0865 982.048 92.1577 992.967 92.0865 1003.65C92.0036 1010.32 92.0865 1016.69 92.0865 1023.14L92.0036 1058.7L92.0628 1119.62C92.0628 1121.02 92.0628 1122.42 92.0628 1123.8C92.3948 1142.19 92.3236 1160.78 92.2999 1179.36V1231.89L92.1577 1267.57C92.1577 1277.33 92.1182 1287.09 92.0391 1296.84C91.9799 1307.31 92.0391 1317.85 91.802 1328.21C91.7309 1331.25 91.7309 1334.44 91.719 1337.58L91.4701 1384.77C91.4701 1388.58 91.3753 1392.15 91.067 1395.06C90.9129 1396.48 90.8418 1399.35 90.8181 1401.64C90.8181 1408.23 90.6521 1414.9 90.8181 1421.47C90.9129 1425.83 90.747 1429.77 90.6995 1433.85C90.6995 1434.14 90.5928 1434.63 90.5573 1434.49C90.3795 1433.82 90.3202 1434.79 90.3083 1436.44C90.3083 1439.52 90.5099 1442.76 90.3083 1445.64C90.0712 1449.07 89.68 1446.45 89.3718 1447.68C89.0636 1448.91 88.8502 1445.12 88.5538 1444.72C88.5538 1444.72 88.4708 1442.96 88.459 1442L88.5301 1433.29Z" fill="#A8B4A2"/>
<path d="M257.129 17.2728C257.129 22.9512 256.999 31.4985 256.916 40.1288C256.916 44.6218 256.833 49.091 256.785 53.5958C256.785 56.9033 256.785 60.1159 256.548 62.807C256.4 65.4762 256.4 68.1516 256.548 70.8208C256.62 72.6227 256.702 74.6854 256.691 76.5585L256.513 101.951C256.513 107.571 256.454 112.988 256.24 118.133C256.11 121.476 256.24 124.25 256.394 127.249C256.588 129.761 256.501 132.286 256.133 134.777C255.92 136.055 255.9 137.358 256.074 138.642C256.398 140.228 256.522 141.849 256.442 143.467L256.371 171.811C256.371 174.479 256.454 179.256 255.979 177.739C255.979 177.668 255.896 178 255.896 178.178L255.825 191.585C256.181 196.647 255.825 202.847 256.003 208.265C256.003 209.296 256.003 211.193 256.003 211.821C255.671 215.615 256.003 221.542 255.671 225.442C255.525 227.555 255.549 229.676 255.742 231.785C255.896 233.516 255.979 235.436 255.979 238.234C255.979 251.369 255.979 264.508 255.979 277.651C255.979 285.866 255.979 294.188 255.873 302.273C255.683 317.009 255.695 331.803 255.647 346.598C255.647 355.157 255.493 363.705 255.375 372.157C255.315 375.5 255.304 378.487 255.375 381.795C255.908 408.041 255.885 434.821 255.849 461.589C255.849 465.632 255.671 469.734 255.707 473.658C255.742 477.581 255.813 481.339 255.707 485.583C255.636 488.44 255.707 492.246 255.778 495.15C256.205 508.38 256.039 522.025 255.967 535.456C255.912 544.229 255.845 553.009 255.766 561.798C255.766 570.712 255.766 579.663 255.837 588.601C255.837 590.237 255.837 591.897 255.837 593.509C255.778 600.883 255.624 608.34 255.671 615.571C255.671 622.459 255.849 629.299 255.837 636.329C255.837 638.771 255.837 641.26 255.837 643.679C255.979 653.399 256.169 663.144 255.695 672.403V676.658C255.695 678.069 255.695 679.492 255.6 680.914L255.505 685.17C255.422 686.593 255.292 688.003 255.197 689.426C255.102 690.849 254.984 692.39 254.877 693.86C254.77 695.33 254.521 696.717 254.332 697.843C254.083 699.396 253.846 700.866 253.62 702.288C253.395 703.711 253.087 705.086 252.862 706.438C252.636 707.789 252.447 709.141 252.198 710.492C251.949 711.843 251.7 713.183 251.451 714.582C251.024 717.64 249.732 721.932 248.748 725.702C248.042 728.156 247.17 730.56 246.14 732.897C245.891 733.466 244.765 736.086 244.492 736.952C244.219 737.817 243.899 738.635 243.591 739.465L243.105 740.65C242.939 741.054 242.749 741.457 242.56 741.836C241.837 743.424 241.09 744.977 240.426 746.495L239.715 748.107L238.944 749.625L237.45 752.493C236.964 753.418 236.49 754.331 235.98 755.208C235.471 756.085 234.902 756.939 234.344 757.804C233.989 758.362 233.455 759.262 232.922 760.175C232.388 761.088 231.891 762.048 231.511 762.665C226.431 771.765 220.308 780.243 213.267 787.927C207.3 794.493 200.806 800.559 193.849 806.065C186.906 811.594 179.501 816.516 171.716 820.777C171.17 821.073 170.649 821.405 170.092 821.69L168.42 822.543L165.196 824.238C163.441 825.234 161.639 826.052 159.778 826.906C157.917 827.759 156.127 828.648 154.23 829.348L148.504 831.588L142.707 833.533C141.96 833.781 141.213 834.066 140.443 834.279L138.155 834.955L133.567 836.33C131.34 836.684 129.142 837.195 126.988 837.859C126.217 838.037 125.458 838.239 124.7 838.357L122.329 838.749C120.776 839.009 119.175 839.282 117.456 839.626C113.212 840.278 108.494 840.894 103.966 841.131C101.139 841.378 98.2993 841.43 95.4659 841.286C94.3219 841.348 93.1788 841.149 92.1228 840.705C91.9924 840.61 91.8739 840.515 91.8976 840.408C91.9213 840.302 93.2253 839.958 96.8173 839.804L100.148 839.65L103.503 839.33L106.823 839.045L108.447 838.915L110.13 838.701C112.406 838.44 114.671 838.18 116.911 837.883L123.514 836.698C124.617 836.508 125.684 836.235 126.762 835.975L129.975 835.192C131.042 834.92 132.121 834.694 133.176 834.386L136.329 833.45L138.7 832.762C139.471 832.525 140.253 832.323 141.012 832.039L145.6 830.438L147.888 829.644L150.128 828.731L154.633 826.918C156.127 826.301 157.573 825.578 159.055 824.914L161.272 823.906L162.374 823.397L163.465 822.84C166.345 821.322 169.297 819.923 172.119 818.216L174.881 816.628L176.268 815.833L177.608 814.968C179.398 813.782 181.164 812.668 183.001 811.495L188.218 807.772C189.107 807.168 189.936 806.48 190.778 805.828L193.291 803.836C194.086 803.208 194.904 802.651 195.662 801.928L197.95 799.924C199.468 798.573 201.044 797.281 202.467 795.823C203.89 794.364 205.395 793.001 206.83 791.579L211.002 787.121C215.867 781.756 220.4 776.098 224.576 770.181C226.473 767.667 228.133 764.965 229.816 762.333C230.693 761.029 231.428 759.63 232.187 758.279L234.558 754.189L236.692 749.992C237.403 748.593 238.15 747.218 238.766 745.772C240.047 742.903 241.41 740.081 242.512 737.141C243.117 735.636 243.698 734.13 244.314 732.601C244.931 731.072 245.346 729.519 245.844 728.013C249.235 717.236 251.597 706.162 252.897 694.938C253.071 693.76 253.174 692.573 253.205 691.382C253.205 688.549 253.466 685.455 253.466 682.254C253.466 680.654 253.549 679.041 253.585 677.429C253.62 675.817 253.585 674.169 253.585 672.58C253.585 655.707 253.585 638.834 253.585 621.961V560.316C253.585 547.607 253.525 534.781 253.585 522.226C253.656 514.379 253.585 506.946 253.585 499.323L253.668 457.499L253.573 385.849C253.573 384.213 253.573 382.565 253.573 380.953C253.241 359.33 253.312 337.494 253.336 315.657V253.906C253.336 239.925 253.379 225.948 253.466 211.975C253.514 200.508 253.553 189.048 253.585 177.597C253.644 165.303 253.585 152.915 253.822 140.752C253.893 137.196 253.893 133.414 253.905 129.739L254.154 74.2824C254.154 69.8013 254.26 65.6165 254.569 62.2024C254.711 60.5308 254.794 57.1522 254.806 54.4612C254.806 46.72 254.972 38.8722 254.806 31.1547C254.711 26.0335 254.877 21.4338 254.924 16.6089C254.924 16.277 255.031 15.6961 255.067 15.8621C255.256 16.6445 255.304 15.5065 255.315 13.5623C255.315 9.94657 255.114 6.14119 255.315 2.75073C255.564 -1.26803 255.956 1.80235 256.252 0.379779C256.548 -1.04279 256.785 3.39089 257.082 3.86508C257.082 3.86508 257.153 5.91595 257.165 7.05401L257.129 17.2728Z" fill="#A8B4A2"/>
<path d="M234.95 16.6318C234.95 22.0969 234.819 30.3596 234.736 38.6343C234.736 42.9613 234.654 47.2645 234.606 51.6034C234.606 54.7805 234.606 57.8745 234.369 60.4589C234.22 63.0332 234.22 65.6139 234.369 68.1882C234.44 69.919 234.523 71.8987 234.511 73.7125C234.511 81.8686 234.393 89.9891 234.333 98.157C234.333 103.563 234.274 108.826 234.061 113.734C233.93 116.947 234.061 119.662 234.215 122.519C234.409 124.931 234.321 127.358 233.954 129.75C233.735 130.984 233.715 132.244 233.895 133.484C234.22 135.007 234.343 136.565 234.262 138.119L234.191 165.385C234.191 167.946 234.274 172.498 233.8 171.099C233.8 171.028 233.717 171.348 233.717 171.526L233.646 184.424C234.002 189.308 233.646 195.271 233.812 200.487C233.812 201.483 233.812 203.309 233.812 203.913C233.468 207.565 233.753 213.267 233.48 217.025C233.334 219.058 233.357 221.1 233.551 223.13C233.705 224.801 233.788 226.686 233.788 229.342C233.788 241.987 233.788 254.632 233.788 267.277C233.788 275.184 233.788 283.186 233.681 290.987C233.492 305.212 233.504 319.438 233.456 333.664C233.456 341.962 233.302 350.13 233.172 358.262C233.172 361.499 233.112 364.368 233.172 367.545C233.705 392.819 233.681 418.603 233.646 444.375C233.646 448.264 233.468 452.223 233.504 455.993C233.539 459.763 233.61 463.39 233.504 467.468C233.432 470.231 233.504 473.894 233.575 476.68C234.002 489.423 233.836 502.559 233.764 515.516C233.693 523.956 233.626 532.409 233.563 540.873C233.563 549.456 233.563 558.074 233.634 566.681C233.634 568.258 233.634 569.858 233.634 571.423C233.575 578.536 233.421 585.649 233.468 592.655C233.468 599.293 233.646 605.873 233.622 612.642C233.622 615.013 233.622 617.384 233.681 619.755C233.812 629.12 234.013 638.497 233.539 647.412V663.771C233.539 666.51 233.622 669.699 233.539 671.904C233.48 673.409 233.432 674.832 233.409 676.219C233.385 677.606 233.35 678.957 233.314 680.285C233.278 681.613 233.314 682.917 233.314 684.233C233.314 685.549 233.231 686.876 233.219 688.24C233.219 688.987 233.219 689.805 233.136 690.694C233.053 691.583 232.982 692.496 232.887 693.444L232.579 696.348C232.484 697.332 232.377 698.293 232.223 699.217C232.01 700.569 231.808 701.908 231.571 703.129C231.453 703.746 231.334 704.315 231.204 704.896C231.073 705.477 230.884 705.963 230.718 706.437C230.552 706.911 229.864 709.673 229.722 710.539C229.651 710.953 229.58 711.38 229.485 711.795L229.177 712.981C228.963 713.81 228.726 714.628 228.501 715.446C228.276 716.264 228.039 717.059 227.801 717.817C227.564 718.576 227.292 719.37 227.066 720.129C226.711 721.243 226.367 722.298 226.035 723.318L225.537 724.812C225.348 725.298 225.158 725.772 224.98 726.246C224.209 728.107 223.498 729.909 222.609 731.687C222.016 732.873 220.926 735.339 220.416 736.655L220.096 737.473L219.74 738.279C219.491 738.812 219.242 739.357 219.005 739.903C218.495 740.982 217.998 742.084 217.476 743.187C216.397 745.368 215.176 747.537 213.92 749.766L211.928 753.014C211.252 754.081 210.612 755.195 209.877 756.262C209.142 757.329 208.407 758.384 207.66 759.439C206.913 760.495 206.202 761.585 205.384 762.605L203.499 765.201L202.515 766.457L202.029 767.098L201.508 767.702L197.335 772.563L192.925 777.222C191.419 778.727 189.843 780.185 188.301 781.667C182.01 787.454 175.205 792.656 167.97 797.209L164.924 799.129C163.881 799.722 162.849 800.315 161.889 800.896L159.388 802.377C158.546 802.875 157.669 803.29 156.815 803.741L154.207 805.08L152.903 805.744C152.464 805.958 152.014 806.147 151.575 806.349C149.785 807.143 148.019 807.949 146.205 808.72L140.705 810.83C139.993 811.114 139.258 811.34 138.535 811.589L136.354 812.324C134.896 812.81 133.449 813.355 131.968 813.746C130.89 813.877 129.83 814.12 128.802 814.469C127.771 814.789 126.751 815.192 125.673 815.418C122.697 816.093 119.911 816.674 116.568 817.255L113.439 817.836C112.372 818.014 111.281 818.12 110.19 818.251L106.883 818.642L106.053 818.737H105.235L103.587 818.844C101.75 818.962 100.173 819.081 98.8453 819.116C97.5176 819.152 96.3558 819.116 95.4312 819.021C94.3258 819.081 93.2217 818.882 92.2067 818.441C92.0881 818.346 91.9696 818.251 91.9933 818.144C92.017 818.037 93.2736 817.694 96.7352 817.551C98.8572 817.551 101.027 817.243 103.172 817.054C104.251 816.947 105.318 816.876 106.373 816.757C107.428 816.639 108.448 816.496 109.444 816.39C117.982 815.401 126.393 813.521 134.54 810.782L138.962 809.265C140.432 808.732 141.866 808.08 143.313 807.57L145.482 806.704C146.193 806.408 146.905 806.064 147.604 805.756L151.86 803.824L156.021 801.702L158.107 800.635L160.134 799.449C161.498 798.667 162.873 797.92 164.213 797.078C165.552 796.237 166.88 795.383 168.219 794.541C175.098 790.042 181.575 784.957 187.578 779.344L189.7 777.305C190.4 776.629 191.123 775.965 191.775 775.242L195.794 770.962L199.587 766.493C200.227 765.758 200.773 764.976 201.413 764.205L203.191 761.834C203.724 761.135 204.27 760.459 204.78 759.748L206.273 757.578L207.779 755.409C208.028 755.053 208.289 754.698 208.526 754.33L209.225 753.216C210.162 751.722 211.098 750.252 212.011 748.782C212.924 747.312 213.73 745.795 214.56 744.325C214.939 743.661 215.342 743.021 215.674 742.345L216.705 740.33C217.381 738.966 218.092 737.639 218.744 736.263L220.582 732.126C220.878 731.427 221.21 730.751 221.471 730.04L222.289 727.929C222.822 726.519 223.391 725.12 223.901 723.697L225.312 719.394C225.537 718.683 225.81 717.971 226.011 717.248L226.616 715.067C227.007 713.609 227.446 712.163 227.801 710.705C228.157 709.246 228.489 707.646 228.845 706.129C228.999 705.358 229.212 704.599 229.319 703.829C229.426 703.058 229.568 702.299 229.698 701.541L230.338 697.546L230.789 693.503C231.145 690.824 231.251 688.121 231.453 685.418C231.453 684.743 231.559 684.067 231.571 683.379V681.352C231.571 679.989 231.631 678.637 231.666 677.274C231.666 674.524 231.666 671.773 231.666 668.976C231.666 667.79 231.666 666.249 231.666 665.514C231.275 660.037 231.417 653.422 231.405 647.293C231.405 631.052 231.405 614.807 231.405 598.558V539.154C231.405 526.908 231.346 514.556 231.465 502.476C231.536 494.924 231.465 487.764 231.465 480.426L231.548 440.12V371.184C231.548 369.607 231.548 368.019 231.548 366.442C231.216 345.625 231.287 324.607 231.31 303.612V244.457C231.31 231.021 231.354 217.586 231.441 204.15C231.488 193.086 231.528 182.045 231.559 171.028C231.619 159.173 231.559 147.259 231.797 135.547C231.868 132.109 231.868 128.434 231.88 124.878L232.128 71.5312C232.128 67.2161 232.235 63.2329 232.532 59.9017C232.686 58.2895 232.757 55.0413 232.78 52.4569C232.78 44.9884 232.946 37.4369 232.78 30.004C232.686 25.0724 232.852 20.6506 232.899 16.0035C232.899 15.6834 233.006 15.1263 233.041 15.2804C233.231 16.0272 233.278 14.9366 233.29 13.0635C233.29 9.5901 233.089 5.95069 233.29 2.66692C233.527 -1.20959 233.919 1.7541 234.227 0.355237C234.535 -1.04363 234.76 3.2478 235.057 3.71013C235.057 3.76941 235.128 5.68988 235.14 6.78052L234.95 16.6318Z" fill="#A8B4A2"/>
<path d="M212.816 15.9799C212.816 21.2197 212.685 29.1742 212.602 37.1288C212.602 41.2898 212.519 45.4271 212.472 49.6C212.472 52.6585 212.472 55.6222 212.235 58.1117C212.086 60.5831 212.086 63.0613 212.235 65.5328C212.306 67.2043 212.389 69.0892 212.377 70.8437C212.318 78.6916 212.259 86.5038 212.199 94.3398C212.199 99.5441 212.14 104.571 211.927 109.324C211.796 112.407 211.927 114.979 212.081 117.765C212.275 120.086 212.187 122.423 211.82 124.724C211.603 125.898 211.583 127.099 211.761 128.28C212.084 129.742 212.203 131.242 212.116 132.737C212.116 141.486 212.097 150.235 212.057 158.984C212.057 161.45 212.14 165.871 211.666 164.484C211.666 164.402 211.583 164.722 211.583 164.888L211.512 177.288C211.867 182.03 211.512 187.72 211.678 192.699C211.678 193.647 211.678 195.414 211.678 195.994C211.334 199.551 211.618 204.98 211.346 208.596C211.196 210.57 211.22 212.554 211.417 214.523C211.571 216.124 211.654 217.902 211.654 220.451C211.654 232.606 211.654 244.765 211.654 256.928C211.654 264.539 211.654 272.221 211.547 279.713C211.358 293.346 211.369 306.979 211.322 320.73C211.322 328.661 211.168 336.568 211.038 344.44C211.038 347.534 211.038 350.296 211.038 353.355C211.571 377.657 211.547 402.433 211.512 427.222C211.512 430.956 211.334 434.761 211.369 438.377C211.405 441.993 211.476 445.49 211.369 449.414C211.298 452.069 211.369 455.59 211.441 458.269C211.867 470.515 211.701 483.164 211.63 495.6C211.559 503.724 211.492 511.853 211.429 519.985C211.429 528.283 211.429 536.523 211.5 544.785C211.5 546.303 211.5 547.844 211.5 549.338C211.441 556.154 211.286 563.053 211.334 569.751C211.334 576.129 211.512 582.448 211.488 588.956C211.488 591.22 211.488 593.532 211.547 595.761C211.678 604.759 211.879 613.78 211.405 622.351V638.082C211.405 640.714 211.488 643.784 211.405 645.883C211.165 651.109 211.213 656.345 211.547 661.567C211.713 664.388 211.737 668.513 211.808 672.105C211.929 674.459 211.853 676.818 211.583 679.159C211.488 679.728 211.381 682.372 211.393 683.201C211.393 684.861 211.251 686.509 211.121 688.121C211.121 688.927 210.943 689.722 210.836 690.492C210.729 691.263 210.634 692.045 210.551 692.863C210.433 693.977 210.314 695.044 210.125 696.052C209.935 697.06 209.769 698.044 209.591 699.004C209.508 699.478 209.413 699.952 209.319 700.426C209.224 700.901 209.093 701.339 208.987 701.802C208.75 702.711 208.501 703.623 208.24 704.54C208.062 705.133 207.872 706.081 207.6 707.03C207.327 707.978 207.09 708.938 206.948 709.602C206.509 711.807 205.821 714 205.158 716.253C204.849 717.438 204.434 718.505 204.031 719.619L202.787 723.022C200.934 727.616 198.78 732.083 196.338 736.394C188.206 750.76 177.172 763.276 163.939 773.144C163.5 773.499 163.026 773.831 162.552 774.151L161.129 775.159L158.379 777.139C152.186 781.432 145.548 785.044 138.581 787.915C137.23 788.507 135.843 789.005 134.468 789.562L132.405 790.38L130.295 791.092C129.268 791.273 128.263 791.559 127.296 791.945C126.312 792.289 125.328 792.621 124.308 792.929C121.487 793.783 118.772 794.221 115.607 795.004C113.639 795.383 111.576 795.762 109.478 796.094L106.301 796.462L104.712 796.652C104.179 796.711 103.657 796.77 103.124 796.794C101.369 796.912 99.8399 797.007 98.5359 797.066C97.2318 797.126 96.1649 797.066 95.2521 797.066C94.1804 797.121 93.1114 796.917 92.1343 796.474C92.0276 796.379 91.909 796.284 91.9327 796.177C91.9565 796.071 93.1182 795.727 96.485 795.585C96.9947 795.585 97.5045 795.585 98.0142 795.502L99.5554 795.359L102.661 795.063C103.693 794.992 104.712 794.826 105.72 794.696L108.684 794.34C116.894 793.252 124.943 791.174 132.654 788.152C143.882 783.876 154.416 777.964 163.915 770.607C170.168 765.784 175.923 760.347 181.092 754.377C186.003 748.695 190.34 742.54 194.038 736.003C197.348 730.191 200.175 724.116 202.49 717.841L202.881 716.833L203.237 715.802L203.925 713.728L204.612 711.665C204.838 710.977 205.015 710.266 205.217 709.566C205.584 708.168 206.011 706.781 206.343 705.37L207.291 701.126C207.469 700.415 207.588 699.703 207.706 698.992L208.074 696.846L208.441 694.712C208.56 693.989 208.631 693.266 208.726 692.555C208.892 691.12 209.105 689.686 209.236 688.24L209.568 683.913C209.568 683.533 209.568 683.166 209.651 682.787V681.601L209.71 679.349C209.71 678.59 209.71 677.843 209.71 677.096C209.71 676.349 209.71 675.591 209.71 674.856C209.579 664.364 209.473 653.885 209.568 643.263C209.568 642.148 209.568 640.631 209.568 639.932C209.176 634.668 209.319 628.314 209.307 622.41C209.307 606.794 209.307 591.177 209.307 575.56V518.456C209.307 506.696 209.236 494.817 209.366 483.2C209.437 475.945 209.366 469.057 209.366 462.003L209.449 423.286L209.39 357.03C209.39 355.512 209.39 353.983 209.39 352.489C209.058 332.478 209.129 312.266 209.153 292.03V234.997L209.295 196.196C209.342 185.574 209.382 174.96 209.413 164.354C209.473 152.974 209.413 141.51 209.651 130.248C209.722 126.94 209.722 123.455 209.734 120.053C209.82 102.942 209.903 85.836 209.982 68.7336C209.982 64.5725 210.089 60.7079 210.386 57.5427C210.54 56.0015 210.611 52.8837 210.634 50.4298C210.634 43.2577 210.8 36.0026 210.634 28.8541C210.54 24.1122 210.706 19.8682 210.753 15.399C210.753 15.0908 210.86 14.5573 210.895 14.6995C211.073 15.4227 211.132 14.3676 211.144 12.5775C211.144 9.22265 210.943 5.71364 211.144 2.57213C211.381 -1.15027 211.773 1.69487 212.081 0.355285C212.389 -0.984303 212.602 3.14115 212.899 3.57978C212.899 3.63905 212.982 5.4884 212.994 6.53162L212.816 15.9799Z" fill="#A8B4A2"/>
<path d="M190.743 15.3394C190.743 20.3776 190.613 28.0121 190.53 35.6347C190.53 39.6298 190.447 43.613 190.399 47.608C190.399 50.548 190.399 53.3932 190.162 55.7878C190.014 58.1565 190.014 60.532 190.162 62.9007C190.221 64.5011 190.316 66.3267 190.304 67.9982C190.245 75.526 190.186 83.0182 190.126 90.5223C190.126 95.5131 190.067 100.326 189.854 104.89C189.723 107.866 189.854 110.332 190.008 112.999C190.202 115.226 190.114 117.468 189.747 119.673C189.548 120.81 189.548 121.974 189.747 123.111C190.07 124.517 190.19 125.962 190.103 127.402C190.103 135.796 190.103 144.189 190.103 152.582C190.103 154.953 190.186 159.197 189.712 157.857C189.712 157.786 189.629 158.083 189.629 158.249L189.557 170.103C189.913 174.608 189.557 180.109 189.723 184.922C189.723 185.835 189.723 187.53 189.723 188.087C189.38 191.454 189.664 196.705 189.391 200.179C189.245 202.054 189.269 203.939 189.463 205.81C189.635 207.717 189.71 209.632 189.688 211.548C189.688 223.213 189.688 234.882 189.688 246.555C189.688 253.857 189.688 261.243 189.569 268.427C189.391 281.467 189.403 294.661 189.356 307.796C189.356 315.395 189.202 322.994 189.071 330.498C189.071 333.474 189.012 336.129 189.071 339.069C189.605 362.376 189.581 386.168 189.546 409.949C189.546 413.505 189.368 417.18 189.403 420.618C189.439 424.056 189.51 427.447 189.403 431.204C189.332 433.753 189.403 437.132 189.474 439.704C189.889 451.452 189.723 463.58 189.664 475.529C189.593 483.322 189.526 491.122 189.463 498.931C189.463 506.85 189.463 514.804 189.534 522.735C189.534 524.193 189.534 525.663 189.534 527.098C189.534 533.653 189.32 540.268 189.368 546.694C189.368 552.822 189.546 558.88 189.522 565.128C189.522 567.297 189.522 569.514 189.581 571.66C189.712 580.302 189.913 588.956 189.439 597.183V612.274C189.439 614.799 189.522 617.751 189.439 619.766C189.199 624.78 189.246 629.802 189.581 634.81C189.747 637.525 189.771 641.484 189.842 644.922C189.947 647.18 189.887 649.442 189.664 651.691C189.593 652.237 189.546 654.75 189.593 655.556C189.783 658.709 189.593 661.851 189.593 664.779C189.652 669.058 189.593 672.508 189.415 676.136C189.356 677.321 189.273 679.846 189.32 681.15C189.324 690.426 187.794 699.639 184.792 708.416C182.3 715.934 178.862 723.104 174.561 729.755C170.282 736.43 165.185 742.543 159.387 747.952C157.834 749.493 156.044 750.963 154.503 752.374C149.016 757.105 142.958 761.131 136.472 764.359C135.203 764.987 133.947 765.663 132.643 766.232L130.699 767.121L129.726 767.56L128.731 767.963C126.805 768.539 124.913 769.223 123.064 770.014L121.073 770.666C120.409 770.891 119.733 771.033 119.057 771.223L116.983 771.78L115.904 772.076L114.778 772.349L111.909 773.025C110.937 773.25 109.929 773.392 108.921 773.57L107.404 773.831C106.894 773.914 106.384 773.997 105.875 774.044L102.828 774.4C101.986 774.518 101.192 774.566 100.457 774.601L98.4062 774.708C97.7779 774.708 97.2207 774.708 96.6754 774.708L95.2528 774.649C94.2231 774.704 93.196 774.5 92.2654 774.056C92.1469 773.961 92.0402 773.855 92.0639 773.76C92.1231 773.475 93.2494 773.309 96.4264 773.167C97.3985 773.167 98.3825 772.989 99.3783 772.906L100.86 772.764C101.358 772.764 101.856 772.669 102.342 772.586C104.31 772.29 106.266 772.088 108.103 771.756C109.099 771.602 110.107 771.448 111.103 771.27L114.043 770.618L115.501 770.286C115.987 770.168 116.461 770.026 116.935 769.883L119.792 769.077C120.729 768.781 121.653 768.449 122.578 768.129C123.503 767.809 124.439 767.524 125.34 767.133C127.142 766.398 128.968 765.71 130.722 764.869C141.209 760.091 150.781 753.52 159.008 745.451C164.438 740.178 169.214 734.272 173.233 727.858C173.696 727.099 174.217 726.353 174.644 725.57L175.96 723.199L176.624 722.014L177.217 720.828L178.402 718.457C178.817 717.651 179.137 716.809 179.505 715.991L180.56 713.514L181.508 711.001C181.816 710.147 182.172 709.317 182.421 708.464C184.448 702.388 185.908 696.137 186.783 689.792L187.044 687.718C187.139 687.03 187.234 686.343 187.281 685.643L187.578 681.482L187.684 677.321C187.684 675.922 187.684 674.512 187.684 673.113C187.684 667.494 187.684 661.878 187.684 656.267C187.684 653.375 187.684 650.411 187.684 647.566C187.554 637.501 187.447 627.413 187.542 617.241C187.542 616.186 187.542 614.728 187.542 614.052C187.151 609.002 187.293 602.897 187.269 597.242V552.265V497.461C187.269 486.175 187.198 474.783 187.329 463.627C187.4 456.657 187.329 450.054 187.329 443.284L187.412 406.132L187.187 342.709C187.187 341.25 187.187 339.792 187.187 338.358C186.855 319.153 186.926 299.759 186.949 280.364V225.536L187.092 188.289C187.092 178.101 187.131 167.918 187.21 157.739C187.269 146.809 187.21 135.807 187.447 125.008C187.518 121.819 187.518 118.488 187.53 115.216L187.779 65.9592C187.779 61.976 187.886 58.2655 188.182 55.2899C188.336 53.8081 188.408 50.8088 188.431 48.4142C188.431 41.5384 188.597 34.5678 188.431 27.7157C188.336 23.1635 188.502 19.0736 188.55 14.794C188.55 14.4858 188.656 13.9879 188.692 14.1302C188.87 14.8178 188.929 13.8101 188.941 12.0793C188.941 8.86667 188.739 5.48806 188.941 2.47695C189.178 -1.07948 189.569 1.63526 189.878 0.354948C190.186 -0.925366 190.399 3.02227 190.696 3.44904C190.696 3.44904 190.779 5.27467 190.79 6.28233L190.743 15.3394Z" fill="#A8B4A2"/>
<path d="M168.55 14.6998C168.55 19.5247 168.42 26.8391 168.337 34.1416C168.337 37.9707 168.242 41.7761 168.206 45.6171C168.206 48.4266 168.206 51.1532 167.969 53.4412C167.826 55.7151 167.826 57.9957 167.969 60.2695C168.04 61.7988 168.135 63.5533 168.123 65.1537C168.064 72.3614 168.005 79.5454 167.946 86.7649C167.946 91.5068 167.886 96.1539 167.673 100.528C167.585 103.117 167.636 105.71 167.827 108.293C168.021 110.429 167.934 112.582 167.566 114.695C167.347 115.777 167.327 116.889 167.507 117.979C167.829 119.325 167.949 120.711 167.863 122.092C167.863 130.13 167.863 138.191 167.803 146.217C167.803 148.481 167.886 152.547 167.412 151.267C167.412 151.207 167.329 151.492 167.329 151.646L167.258 163.05C167.614 167.365 167.258 172.641 167.424 177.276C167.424 178.153 167.424 179.766 167.424 180.299C167.092 183.524 167.424 188.597 167.104 191.893C166.952 193.689 166.976 195.496 167.175 197.287C167.347 199.111 167.422 200.943 167.4 202.776C167.4 213.951 167.4 225.134 167.4 236.325C167.4 243.319 167.4 250.384 167.282 257.272C167.104 269.814 167.116 282.404 167.068 294.994C167.068 302.273 166.914 309.551 166.784 316.747C166.784 319.592 166.725 322.129 166.784 324.951C167.317 347.285 167.294 370.07 167.258 392.855C167.258 396.293 167.08 399.79 167.116 403.121C167.151 406.452 167.222 409.665 167.116 413.269C167.057 415.711 167.116 418.947 167.199 421.413C167.614 432.675 167.448 444.293 167.388 455.733C167.317 463.201 167.25 470.674 167.187 478.15C167.187 485.737 167.187 493.36 167.258 500.97C167.258 502.357 167.258 503.768 167.258 505.143C167.199 511.414 167.045 517.757 167.092 523.921C167.092 529.777 167.27 535.598 167.246 541.585C167.246 543.659 167.246 545.781 167.246 547.832C167.377 556.131 167.578 564.429 167.104 572.289V586.751C167.104 589.122 167.187 591.991 167.104 593.924C166.858 598.727 166.906 603.541 167.246 608.339C167.412 610.935 167.436 614.729 167.507 618.024C167.612 620.187 167.552 622.355 167.329 624.509C167.238 625.74 167.214 626.974 167.258 628.208C167.448 631.23 167.258 634.242 167.258 637.039C167.317 641.141 167.258 644.46 167.08 647.934C167.009 649.119 167.021 651.49 167.08 652.676C167.305 656.778 167.436 661.081 167.507 665.514C167.507 667.731 167.566 669.972 167.59 672.236C167.614 674.5 167.661 676.753 167.59 679.076C167.59 680.036 167.59 680.985 167.483 681.933C167.377 682.882 167.365 683.83 167.282 684.778L166.938 687.612C166.843 688.56 166.642 689.485 166.499 690.421C165.856 694.176 164.916 697.875 163.69 701.482C161.24 708.704 157.685 715.503 153.151 721.635C151.882 723.318 150.531 725.073 149.227 726.602C144.816 731.961 139.629 736.632 133.839 740.46L132.109 741.563C131.528 741.93 130.923 742.321 130.366 742.653L128.588 743.685C128.291 743.863 127.995 744.04 127.699 744.195L126.786 744.669C125.868 744.976 124.982 745.373 124.142 745.854C123.277 746.281 122.423 746.755 121.522 747.158C120.337 747.704 119.033 748.118 117.764 748.604L113.686 749.908C109.966 751.033 106.154 751.826 102.294 752.279C95.7857 753.074 92.8101 752.623 92.1344 752.09C92.0277 751.995 91.921 751.888 91.9447 751.793C92.004 751.509 93.1302 751.367 96.1176 751.189C99.8552 750.847 103.571 750.3 107.249 749.553C111.012 748.828 114.7 747.752 118.262 746.34C119.128 745.985 120.017 745.664 120.858 745.261L123.407 744.076C125.067 743.222 126.738 742.404 128.315 741.432C133.049 738.665 137.473 735.398 141.51 731.688C145.556 727.94 149.196 723.776 152.368 719.264C153.435 717.83 154.36 716.277 155.332 714.759C156.304 713.242 157.134 711.629 157.916 710.017C158.699 708.405 159.446 706.745 160.169 705.097C160.892 703.45 161.497 701.731 162.03 700C162.564 698.269 162.99 696.704 163.453 695.045C163.915 693.385 164.223 691.702 164.46 689.995C165.031 686.608 165.36 683.185 165.444 679.752C165.527 676.717 165.444 673.54 165.444 670.422C165.444 667.305 165.444 664.187 165.444 661.176C165.444 650.38 165.444 639.612 165.444 628.871C165.444 626.097 165.444 623.252 165.444 620.573C165.314 610.923 165.207 601.285 165.302 591.517C165.302 590.497 165.302 589.146 165.302 588.458C164.911 583.622 165.053 577.789 165.029 572.348V529.268V476.763C165.029 465.94 164.958 455.021 165.029 444.34C165.112 437.666 165.029 431.3 165.029 424.851L165.112 389.287L165.053 328.365C165.053 326.966 165.053 325.567 165.053 324.192C164.721 305.794 164.792 287.205 164.816 268.629V216.077L164.958 180.394C164.958 170.641 164.998 160.885 165.077 151.124C165.136 140.657 165.077 130.118 165.314 119.757C165.385 116.71 165.385 113.521 165.397 110.38L165.646 63.1977C165.646 59.3804 165.741 55.8121 166.049 52.9077C166.203 51.4852 166.274 48.6163 166.298 46.3283C166.298 39.7371 166.464 33.0629 166.298 26.4953C166.203 22.1328 166.369 18.197 166.416 14.1189C166.416 13.8226 166.523 13.3365 166.559 13.4788C166.736 14.1427 166.796 13.1706 166.808 11.5228C166.808 8.44052 166.606 5.20417 166.808 2.32346C167.045 -1.10257 167.436 1.51733 167.744 0.284439C168.052 -0.948457 168.266 2.84507 168.562 3.24813C168.562 3.3074 168.645 5.00263 168.657 5.96287L168.55 14.6998Z" fill="#A8B4A2"/>
</g>
<defs>
<clipPath id="clip0_6_8929">
<rect width="257.082" height="1448" fill="white"/>
</clipPath>
</defs>
</svg>
