<svg width="21" height="22" viewBox="0 0 21 22" fill="none" xmlns="http://www.w3.org/2000/svg">
<path d="M10.0686 0.951172H10.0229C4.48739 0.951172 0 5.43988 0 10.977L0 11.0227C0 16.5598 4.48739 21.0486 10.0229 21.0486H10.0686C15.6041 21.0486 20.0915 16.5598 20.0915 11.0227V10.977C20.0915 5.43988 15.6041 0.951172 10.0686 0.951172Z" fill="#00E510"/>
<path d="M12.001 13.9394C9.42961 13.9394 7.33762 11.8461 7.33691 9.274C7.33762 8.62199 7.86836 8.0918 8.51877 8.0918C8.58564 8.0918 8.6518 8.09743 8.71515 8.1087C8.85452 8.13193 8.98686 8.17911 9.10864 8.25022C9.12624 8.26078 9.1382 8.27768 9.14101 8.2974L9.41272 10.0105C9.41624 10.0309 9.40991 10.0506 9.39653 10.0654C9.2466 10.2316 9.05514 10.3513 8.84186 10.4111L8.73909 10.44L8.7778 10.5393C9.12834 11.4321 9.8421 12.1454 10.7354 12.4974L10.8346 12.5368L10.8635 12.434C10.9233 12.2207 11.043 12.0292 11.2091 11.8792C11.221 11.8679 11.2372 11.8623 11.2534 11.8623C11.2569 11.8623 11.2605 11.8623 11.2647 11.863L12.9773 12.1348C12.9977 12.1383 13.0146 12.1496 13.0251 12.1672C13.0955 12.289 13.1427 12.4221 13.1666 12.5615C13.1779 12.6234 13.1828 12.6889 13.1828 12.7572C13.1828 13.4085 12.6528 13.9387 12.001 13.9394Z" fill="#FDFDFD"/>
<path d="M16.562 10.4356C16.4234 8.86825 15.7054 7.41427 14.5404 6.34191C13.3684 5.26321 11.848 4.66895 10.2579 4.66895C6.76794 4.66895 3.92841 7.50932 3.92841 11.0003C3.92841 12.1719 4.25149 13.3133 4.86319 14.3075L3.49902 17.3281L7.86674 16.8627C8.62625 17.1739 9.4301 17.3316 10.2572 17.3316C10.4747 17.3316 10.6978 17.3204 10.9217 17.2971C11.1188 17.276 11.318 17.245 11.5137 17.2056C14.4363 16.6149 16.5698 14.0202 16.5867 11.0341V11.0003C16.5867 10.8102 16.5782 10.6201 16.5613 10.4356H16.562ZM8.03497 15.5369L5.61848 15.7946L6.33998 14.1955L6.19568 14.0019C6.18512 13.9878 6.17456 13.9737 6.16259 13.9576C5.53612 13.0922 5.20528 12.0698 5.20528 11.001C5.20528 8.21413 7.47185 5.9469 10.2579 5.9469C12.868 5.9469 15.0803 7.98389 15.2936 10.5842C15.3049 10.7236 15.3112 10.8637 15.3112 11.0017C15.3112 11.0411 15.3105 11.0799 15.3098 11.1214C15.2563 13.4527 13.6282 15.4327 11.3503 15.9368C11.1765 15.9755 10.9984 16.0051 10.821 16.0241C10.6366 16.0452 10.4472 16.0558 10.2593 16.0558C9.58989 16.0558 8.93948 15.9262 8.32498 15.6699C8.2567 15.6425 8.18983 15.6129 8.12718 15.5826L8.03568 15.5383L8.03497 15.5369Z" fill="#FDFDFD"/>
</svg>
