<svg width="158" height="91" viewBox="0 0 158 91" fill="none" xmlns="http://www.w3.org/2000/svg">
<path d="M15.6579 69.3418C15.9622 69.3418 16.1355 69.4951 16.1355 69.8216V71.9318C16.1355 72.2361 15.9622 72.4116 15.6579 72.4116H6.11078C3.87171 72.4116 3.28307 73.0425 3.28307 75.326V75.4348H15.5268C15.8312 75.4348 16.0066 75.5881 16.0066 75.9124V77.8471C16.0066 78.1737 15.8312 78.3269 15.5268 78.3269H3.28307V78.5868C3.28307 80.8703 3.87171 81.5012 6.11078 81.5012H15.6579C15.9622 81.5012 16.1355 81.6744 16.1355 81.9787V84.089C16.1355 84.4155 15.9622 84.5665 15.6579 84.5665H6.08857C1.67263 84.5665 0 82.9783 0 78.8245V75.0838C0 70.93 1.67263 69.3418 6.08857 69.3418H15.6579Z" fill="white"/>
<path d="M28.3051 69.3428C29.4357 69.3428 30.0888 69.6693 30.8085 70.9954L38.0077 84.0677C38.1609 84.372 38.0943 84.5675 37.7478 84.5675H34.9845C34.7002 84.5675 34.5691 84.5009 34.4825 84.3054L33.0475 81.6532H22.6297L21.2169 84.3054C21.1081 84.5009 20.9992 84.5675 20.7149 84.5675H17.865C17.5185 84.5675 17.4518 84.372 17.6051 84.0677L24.7377 70.9954C25.4329 69.6693 26.1082 69.3428 27.0212 69.3428H28.3051ZM31.5037 78.8255L28.1318 72.5836C28.0652 72.4748 27.9785 72.4304 27.8719 72.4304H27.7408C27.632 72.4304 27.5676 72.4748 27.501 72.5836L24.1512 78.8255H31.5037Z" fill="white"/>
<path d="M54.9808 69.3428C55.2851 69.3428 55.4584 69.496 55.4584 69.8226V71.9328C55.4584 72.2371 55.2851 72.4126 54.9808 72.4126H44.0831C43.3012 72.4126 42.9303 72.7813 42.9303 73.5877V74.3274C42.9303 75.1093 43.279 75.4358 44.0831 75.4358H52.2175C54.6543 75.4358 56.0248 76.8285 56.0248 79.2631V81.0246C56.0248 83.2658 54.6743 84.5697 52.1753 84.5697H40.1248C39.7983 84.5697 39.6472 84.4165 39.6472 84.0922V81.9819C39.6472 81.6776 39.8005 81.5044 40.1248 81.5044H51.5445C52.3041 81.5044 52.6973 81.1334 52.6973 80.3293V79.4386C52.6973 78.6567 52.3708 78.3301 51.5667 78.3301H43.4101C40.9755 78.3301 39.625 76.9374 39.625 74.5028V72.8924C39.625 70.6533 40.9533 69.3472 43.4545 69.3472H54.9808V69.3428Z" fill="white"/>
<path d="M74.0212 69.3428C74.3255 69.3428 74.4988 69.496 74.4988 69.8226V71.9328C74.4988 72.2371 74.3255 72.4126 74.0212 72.4126H64.4741C62.2328 72.4126 61.6464 73.0434 61.6464 75.3269V75.4358H73.8901C74.1944 75.4358 74.3699 75.5891 74.3699 75.9134V77.8481C74.3699 78.1746 74.1944 78.3279 73.8901 78.3279H61.6464V78.5878C61.6464 80.8713 62.235 81.5021 64.4741 81.5021H74.0212C74.3255 81.5021 74.4988 81.6754 74.4988 81.9797V84.0899C74.4988 84.4165 74.3255 84.5675 74.0212 84.5675H64.4518C60.0359 84.5675 58.3633 82.9793 58.3633 78.8255V75.0848C58.3633 70.931 60.0359 69.3428 64.4518 69.3428H74.0212Z" fill="white"/>
<path d="M100.028 69.3421C100.354 69.3421 100.506 69.4953 100.506 69.8219V71.9543C100.506 72.2808 100.352 72.4319 100.028 72.4319H90.3497C88.1085 72.4319 87.4554 73.1072 87.4554 75.4106V78.4982C87.4554 80.8039 88.1085 81.477 90.3497 81.477H100.028C100.354 81.477 100.506 81.6303 100.506 81.9546V84.087C100.506 84.4135 100.352 84.5646 100.028 84.5646H90.2409C85.825 84.5646 84.1523 82.9986 84.1523 78.8225V75.0819C84.1523 70.9059 85.825 69.3398 90.2409 69.3398H100.028V69.3421Z" fill="white"/>
<path d="M119.178 69.3428C119.505 69.3428 119.678 69.496 119.678 69.8226V84.0899C119.678 84.4165 119.505 84.5675 119.178 84.5675H116.828C116.524 84.5675 116.35 84.4143 116.35 84.0899V78.3701H106.172V84.0899C106.172 84.4165 106.019 84.5675 105.693 84.5675H103.345C103.018 84.5675 102.867 84.4143 102.867 84.0899V69.8226C102.867 69.496 103.02 69.3428 103.345 69.3428H105.693C106.021 69.3428 106.172 69.496 106.172 69.8226V75.4113H116.35V69.8226C116.35 69.496 116.524 69.3428 116.828 69.3428H119.178Z" fill="white"/>
<path d="M132.211 69.3418C133.342 69.3418 133.997 69.6683 134.715 70.9944L141.914 84.0667C142.067 84.3711 142.001 84.5665 141.652 84.5665H138.891C138.606 84.5665 138.475 84.4999 138.389 84.3044L136.954 81.6522H126.536L125.123 84.3044C125.014 84.4999 124.905 84.5665 124.621 84.5665H121.771C121.425 84.5665 121.358 84.3711 121.511 84.0667L128.644 70.9944C129.339 69.6683 130.014 69.3418 130.93 69.3418H132.211ZM135.41 78.8245L132.038 72.5827C131.974 72.4738 131.885 72.4294 131.778 72.4294H131.647C131.538 72.4294 131.474 72.4738 131.407 72.5827L128.06 78.8245H135.41Z" fill="white"/>
<path d="M157.5 69.3418C157.826 69.3418 158 69.4951 158 69.8216V71.954C158 72.2806 157.826 72.4316 157.5 72.4316H150.647V84.089C150.647 84.4155 150.516 84.5665 150.19 84.5665H147.82C147.517 84.5665 147.342 84.4133 147.342 84.089V72.4316H140.492C140.187 72.4316 140.012 72.2783 140.012 71.954V69.8216C140.012 69.4951 140.187 69.3418 140.492 69.3418H157.5Z" fill="white"/>
<path d="M2.57226 90.322H0V87.7031H0.610856V89.8289H2.57448V90.322H2.57226Z" fill="#B4D0D0"/>
<path d="M6.77976 90.321H4.07422V87.7021H6.7531V88.1486H4.68285V88.7328H5.88901V89.1793H4.68285V89.8279H6.77753V90.321H6.77976Z" fill="#B4D0D0"/>
<path d="M10.9367 88.1686H9.72832V90.321H9.11969V88.1686H7.91797V87.7021H10.9367V88.1686Z" fill="#B4D0D0"/>
<path d="M17.5658 87.7024L16.2108 89.1329V90.3191H15.5977V89.1463L14.2383 87.7002H15.0491L15.9487 88.7064L16.8505 87.7002H17.5658V87.7024Z" fill="#B4D0D0"/>
<path d="M21.9602 89.7013C21.9602 89.9457 21.9136 90.11 21.8203 90.1944C21.727 90.2788 21.5582 90.321 21.3094 90.321H19.3813C19.1347 90.321 18.9659 90.2788 18.8704 90.1944C18.7771 90.11 18.7305 89.9457 18.7305 89.7013V88.3219C18.7305 88.0798 18.7771 87.9154 18.8704 87.8288C18.9637 87.7444 19.1325 87.7021 19.3813 87.7021H21.3094C21.556 87.7021 21.7248 87.7444 21.8203 87.8288C21.9136 87.9132 21.9602 88.0775 21.9602 88.3219V89.7013ZM21.3516 89.8279V88.1686H19.3413V89.8279H21.3516Z" fill="#B4D0D0"/>
<path d="M26.8081 89.7013C26.8081 89.9457 26.7615 90.11 26.6682 90.1944C26.5749 90.2788 26.4061 90.321 26.1573 90.321H24.5024C24.2558 90.321 24.087 90.2788 23.9915 90.1944C23.8982 90.11 23.8516 89.9457 23.8516 89.7013V87.7021H24.4624V89.8279H26.1972V87.7021H26.8059V89.7013H26.8081Z" fill="#B4D0D0"/>
<path d="M31.8576 90.321H30.9846L29.9295 89.3303H29.3497V90.321H28.75V87.7021H30.9935C31.3845 87.7021 31.5821 87.871 31.5821 88.2086V88.8239C31.5821 89.0771 31.48 89.2348 31.2778 89.2948C31.2001 89.3192 30.9891 89.3303 30.6492 89.3303L31.8576 90.321ZM30.9957 88.6773V88.3641C30.9957 88.2752 30.9691 88.2175 30.9202 88.1908C30.8824 88.1664 30.8158 88.1553 30.7225 88.1553H29.352V88.8861H30.7225C30.8158 88.8861 30.8824 88.875 30.9202 88.8506C30.9691 88.8217 30.9957 88.7661 30.9957 88.6773Z" fill="#B4D0D0"/>
<path d="M38.8069 89.7023C38.8069 89.9466 38.7602 90.111 38.6669 90.1954C38.5736 90.2798 38.4048 90.322 38.156 90.322H36.5922C36.3457 90.322 36.1769 90.2798 36.0813 90.1954C35.988 90.111 35.9414 89.9466 35.9414 89.7023V88.3229C35.9414 88.0807 35.988 87.9164 36.0813 87.8297C36.1746 87.7453 36.3435 87.7031 36.5922 87.7031H38.156C38.467 87.7031 38.6603 87.7764 38.7336 87.9208C38.7824 88.0052 38.8046 88.2207 38.8046 88.5694L38.196 88.6649V88.1674H36.5523V89.8267H38.196V89.2669L38.8046 89.3935V89.7023H38.8069Z" fill="#B4D0D0"/>
<path d="M43.248 90.321H40.6758V87.7021H41.2866V89.8279H43.2503V90.321H43.248Z" fill="#B4D0D0"/>
<path d="M45.3569 90.321H44.7461V87.7021H45.3569V90.321Z" fill="#B4D0D0"/>
<path d="M50.0141 90.322H47.3086V87.7031H49.9875V88.1496H47.9172V88.7338H49.1234V89.1803H47.9172V89.8289H50.0119V90.322H50.0141Z" fill="#B4D0D0"/>
<path d="M54.8231 90.3213H54.4077L52.4841 88.702C52.4019 88.6354 52.3308 88.5643 52.2664 88.4888C52.282 88.6576 52.2908 88.7908 52.2908 88.8886V90.3191H51.7422V87.7002H52.1576L53.999 89.244C54.1301 89.3551 54.23 89.4506 54.2967 89.5283C54.2811 89.284 54.2722 89.1352 54.2722 89.0774V87.7024H54.8209V90.3213H54.8231Z" fill="#B4D0D0"/>
<path d="M59.1867 88.1686H57.9783V90.321H57.3697V88.1686H56.168V87.7021H59.1867V88.1686Z" fill="#B4D0D0"/>
<path d="M63.3847 89.7016C63.3847 89.9459 63.3358 90.1103 63.2425 90.1947C63.1492 90.2791 62.976 90.3213 62.7294 90.3213H61.1123C60.8435 90.3213 60.668 90.2747 60.5836 90.1792C60.4992 90.0859 60.457 89.9015 60.457 89.6305L60.9946 89.5194V89.8282H62.8471V89.2284H61.2145C60.9679 89.2284 60.7969 89.1862 60.7036 89.1018C60.6103 89.0174 60.5636 88.853 60.5636 88.6087V88.3199C60.5636 88.0778 60.6103 87.9134 60.7036 87.8268C60.7969 87.7424 60.9657 87.7002 61.2145 87.7002H62.7005C62.9493 87.7002 63.1226 87.7424 63.2137 87.829C63.3047 87.9157 63.3514 88.0823 63.3514 88.3288L62.8138 88.4554V88.1556H61.099V88.7176H62.7316C62.9782 88.7176 63.1492 88.7597 63.2448 88.8442C63.3403 88.9286 63.3869 89.0929 63.3869 89.3373V89.7016H63.3847Z" fill="#B4D0D0"/>
<path d="M70.6803 89.8079C70.6803 90.15 70.4226 90.321 69.9095 90.321H67.8281V87.7021H70.0716C70.4626 87.7021 70.6603 87.871 70.6603 88.2086V88.5285C70.6603 88.7861 70.5092 88.9327 70.2094 88.9705C70.5226 89.0105 70.6803 89.1793 70.6803 89.4725V89.8079ZM70.0961 88.564V88.3152C70.0961 88.1908 70.0028 88.1286 69.8162 88.1286H68.4257V88.7528H69.8162C70.005 88.7528 70.0961 88.6906 70.0961 88.564ZM70.1116 89.6169V89.4192C70.1116 89.3215 70.0872 89.2571 70.0428 89.2282C69.9961 89.1993 69.9228 89.186 69.8162 89.186H68.4257V89.8501H69.8162C69.9206 89.8501 69.9961 89.8346 70.0428 89.8079C70.0894 89.7768 70.1116 89.7146 70.1116 89.6169Z" fill="#B4D0D0"/>
<path d="M75.6399 89.7013C75.6399 89.9457 75.5933 90.11 75.5 90.1944C75.4067 90.2788 75.2379 90.321 74.9891 90.321H73.061C72.8144 90.321 72.6456 90.2788 72.5501 90.1944C72.4568 90.11 72.4102 89.9457 72.4102 89.7013V88.3219C72.4102 88.0798 72.4568 87.9154 72.5501 87.8288C72.6434 87.7444 72.8122 87.7021 73.061 87.7021H74.9891C75.2356 87.7021 75.4045 87.7444 75.5 87.8288C75.5933 87.9132 75.6399 88.0775 75.6399 88.3219V89.7013ZM75.0313 89.8279V88.1686H73.021V89.8279H75.0313Z" fill="#B4D0D0"/>
<path d="M80.7063 89.7013C80.7063 89.9457 80.6597 90.11 80.5664 90.1944C80.4731 90.2788 80.3043 90.321 80.0555 90.321H78.1274C77.8808 90.321 77.712 90.2788 77.6165 90.1944C77.5232 90.11 77.4766 89.9457 77.4766 89.7013V88.3219C77.4766 88.0798 77.5232 87.9154 77.6165 87.8288C77.7098 87.7444 77.8786 87.7021 78.1274 87.7021H80.0555C80.302 87.7021 80.4709 87.7444 80.5664 87.8288C80.6597 87.9132 80.7063 88.0775 80.7063 88.3219V89.7013ZM80.0977 89.8279V88.1686H78.0874V89.8279H80.0977Z" fill="#B4D0D0"/>
<path d="M85.7546 90.321H84.7751L83.2091 89.1682V90.321H82.5938V87.7021H83.2091V88.7928L84.6595 87.7021H85.5414L83.8044 88.935L85.7546 90.321Z" fill="#B4D0D0"/>
<path d="M87.8003 90.1327C87.8003 90.2127 87.7892 90.266 87.7692 90.2882C87.7492 90.3104 87.6959 90.3215 87.6115 90.3215H87.1339C87.0517 90.3215 87.0117 90.2593 87.0117 90.1327V89.7217C87.0117 89.6418 87.0206 89.5885 87.0406 89.5685C87.0606 89.5463 87.1139 89.5352 87.1983 89.5352H87.6759C87.7581 89.5352 87.7981 89.5973 87.7981 89.7217V90.1327H87.8003Z" fill="#B4D0D0"/>
<path d="M94.7884 87.7024L93.4334 89.1329V90.3191H92.8204V89.1463L91.4609 87.7002H92.2717L93.1713 88.7064L94.0732 87.7002H94.7884V87.7024Z" fill="#B4D0D0"/>
<path d="M99.1907 89.7013C99.1907 89.9457 99.1441 90.11 99.0508 90.1944C98.9575 90.2788 98.7887 90.321 98.5399 90.321H96.6118C96.3652 90.321 96.1964 90.2788 96.1009 90.1944C96.0076 90.11 95.9609 89.9457 95.9609 89.7013V88.3219C95.9609 88.0798 96.0076 87.9154 96.1009 87.8288C96.1942 87.7444 96.363 87.7021 96.6118 87.7021H98.5399C98.7864 87.7021 98.9552 87.7444 99.0508 87.8288C99.1441 87.9132 99.1907 88.0775 99.1907 88.3219V89.7013ZM98.5821 89.8279V88.1686H96.5718V89.8279H98.5821Z" fill="#B4D0D0"/>
<path d="M104.031 89.7013C104.031 89.9457 103.984 90.11 103.891 90.1944C103.798 90.2788 103.629 90.321 103.38 90.321H101.725C101.478 90.321 101.31 90.2788 101.214 90.1944C101.121 90.11 101.074 89.9457 101.074 89.7013V87.7021H101.685V89.8279H103.42V87.7021H104.029V89.7013H104.031Z" fill="#B4D0D0"/>
<path d="M110.709 89.702C110.709 89.9464 110.662 90.1107 110.569 90.1952C110.475 90.2796 110.307 90.3218 110.058 90.3218H108.936C108.689 90.3218 108.518 90.2796 108.425 90.1952C108.332 90.1107 108.285 89.9464 108.285 89.702V89.16L108.898 89.0445V89.8309H110.1V87.7051H110.709V89.702Z" fill="#B4D0D0"/>
<path d="M115.5 89.7013C115.5 89.9457 115.453 90.11 115.36 90.1944C115.266 90.2788 115.097 90.321 114.849 90.321H113.194C112.947 90.321 112.778 90.2788 112.683 90.1944C112.59 90.11 112.543 89.9457 112.543 89.7013V87.7021H113.154V89.8279H114.889V87.7021H115.497V89.7013H115.5Z" fill="#B4D0D0"/>
<path d="M120.289 89.7016C120.289 89.9459 120.24 90.1103 120.145 90.1947C120.052 90.2791 119.878 90.3213 119.632 90.3213H118.015C117.746 90.3213 117.57 90.2747 117.486 90.1792C117.402 90.0859 117.359 89.9015 117.359 89.6305L117.897 89.5194V89.8282H119.749V89.2284H118.117C117.87 89.2284 117.699 89.1862 117.606 89.1018C117.513 89.0174 117.466 88.853 117.466 88.6087V88.3199C117.466 88.0778 117.513 87.9134 117.606 87.8268C117.699 87.7424 117.868 87.7002 118.117 87.7002H119.603C119.852 87.7002 120.025 87.7424 120.116 87.829C120.207 87.9157 120.254 88.0823 120.254 88.3288L119.716 88.4554V88.1556H118.001V88.7176H119.634C119.881 88.7176 120.052 88.7597 120.147 88.8442C120.243 88.9286 120.291 89.0929 120.291 89.3373V89.7016H120.289Z" fill="#B4D0D0"/>
<path d="M124.585 88.1686H123.377V90.321H122.768V88.1686H121.566V87.7021H124.585V88.1686Z" fill="#B4D0D0"/>
<path d="M131.364 89.8079C131.364 90.15 131.106 90.321 130.593 90.321H128.512V87.7021H130.755C131.146 87.7021 131.344 87.871 131.344 88.2086V88.5285C131.344 88.7861 131.193 88.9327 130.893 88.9705C131.206 89.0105 131.364 89.1793 131.364 89.4725V89.8079ZM130.78 88.564V88.3152C130.78 88.1908 130.686 88.1286 130.5 88.1286H129.109V88.7528H130.5C130.686 88.7528 130.78 88.6906 130.78 88.564ZM130.795 89.6169V89.4192C130.795 89.3215 130.771 89.2571 130.726 89.2282C130.68 89.1993 130.604 89.186 130.5 89.186H129.109V89.8501H130.5C130.604 89.8501 130.68 89.8346 130.726 89.8079C130.773 89.7768 130.795 89.7146 130.795 89.6169Z" fill="#B4D0D0"/>
<path d="M136.256 90.321H135.383L134.328 89.3303H133.748V90.321H133.148V87.7021H135.392C135.783 87.7021 135.981 87.871 135.981 88.2086V88.8239C135.981 89.0771 135.878 89.2348 135.676 89.2948C135.599 89.3192 135.39 89.3303 135.045 89.3303L136.256 90.321ZM135.394 88.6773V88.3641C135.394 88.2752 135.368 88.2175 135.319 88.1908C135.281 88.1664 135.214 88.1553 135.121 88.1553H133.75V88.8861H135.121C135.214 88.8861 135.281 88.875 135.319 88.8506C135.368 88.8217 135.394 88.7661 135.394 88.6773Z" fill="#B4D0D0"/>
<path d="M140.534 90.321H137.828V87.7021H140.507V88.1486H138.437V88.7328H139.643V89.1793H138.437V89.8279H140.531V90.321H140.534Z" fill="#B4D0D0"/>
<path d="M145.334 90.321H144.649L144.334 89.748H142.675L142.37 90.321H141.762L143.243 87.7021H143.832L145.334 90.321ZM144.081 89.2748L143.519 88.2086L142.937 89.2748H144.081Z" fill="#B4D0D0"/>
<path d="M148.862 88.1696H147.654V90.322H147.045V88.1696H145.844V87.7031H148.862V88.1696Z" fill="#B4D0D0"/>
<path d="M153.342 90.321H152.727V89.1949H150.826V90.321H150.215V87.7021H150.826V88.7173H152.727V87.7021H153.342V90.321Z" fill="#B4D0D0"/>
<path d="M157.995 90.321H155.289V87.7021H157.968V88.1486H155.898V88.7328H157.104V89.1793H155.898V89.8279H157.992V90.321H157.995Z" fill="#B4D0D0"/>
<path d="M77.3312 19.8232H92.6937V23.3706H77.3312C71.6958 23.3706 67.1155 27.9487 67.1155 33.573C67.1155 39.2085 71.6936 43.7888 77.3312 43.7888H92.6937V47.3362H77.3312C69.7477 47.3362 63.5703 41.1588 63.5703 33.5753C63.5703 25.9873 69.7477 19.8232 77.3312 19.8232Z" fill="#9A70D3"/>
<path d="M92.6969 13.0508V16.5982H77.3344C67.9717 16.5982 60.3482 24.2083 60.3482 33.5711C60.3482 42.9338 67.9717 50.5573 77.3344 50.5573H92.6969V54.1047H77.3344C66.0103 54.1047 56.8008 44.8952 56.8008 33.5711C56.8008 22.2603 66.0103 13.0508 77.3344 13.0508H92.6969Z" fill="#9A70D3"/>
<path d="M72.4375 35.1826H103.653L100.61 38.73H77.3377C75.0542 38.73 73.1083 37.2462 72.4375 35.1826Z" fill="#9A70D3"/>
<path d="M103.653 31.9605H72.4375C73.1083 29.8969 75.0564 28.4131 77.3377 28.4131H100.595L103.653 31.9605Z" fill="#9A70D3"/>
<path d="M78.9973 66.4594C60.8649 66.4594 46.1133 51.7078 46.1133 33.5754C46.1133 15.443 60.8649 0.691406 78.9973 0.691406C97.1297 0.691406 111.881 15.443 111.881 33.5754C111.881 51.7078 97.1297 66.4594 78.9973 66.4594ZM78.9973 3.91672C62.6441 3.91672 49.3386 17.2223 49.3386 33.5754C49.3386 49.9286 62.6441 63.2341 78.9973 63.2341C95.3505 63.2341 108.656 49.9286 108.656 33.5754C108.656 17.2223 95.3505 3.91672 78.9973 3.91672Z" fill="#9A70D3"/>
</svg>
